<?xml version="1.0" standalone="no"?>
<!DOCTYPE svg PUBLIC "-//W3C//DTD SVG 1.1//EN" "http://www.w3.org/Graphics/SVG/1.1/DTD/svg11.dtd" >
<svg xmlns="http://www.w3.org/2000/svg" xmlns:xlink="http://www.w3.org/1999/xlink" version="1.1">
<metadata>
Created by FontForge 20170731 at Thu Jan 21 16:39:14 2021
 By Aleksey,,,
Copyright 2015 The Akaya Telivigala Project Authors (https://github.com/vaishnavimurthy/Akaya-Telivigala)
</metadata>
<defs>
<font id="AkayaTelivigala-Regular" horiz-adv-x="0" >
  <font-face 
    font-family="Akaya Telivigala"
    font-weight="400"
    font-stretch="normal"
    units-per-em="1000"
    panose-1="0 0 0 0 0 0 0 0 0 0"
    ascent="800"
    descent="-200"
    x-height="404"
    cap-height="645"
    bbox="-696 -805 1699 1011"
    underline-thickness="50"
    underline-position="-175"
    unicode-range="U+0020-FB02"
  />
<missing-glyph horiz-adv-x="543" 
d="M75 -81v727h393v-727h-393zM85 -71h373v707h-373v-707zM256 140v54q0 21 17 43t40 48t40 58t17 74q0 56 -22.5 90t-80.5 34q-36 0 -57.5 -15.5t-31 -39.5t-9.5 -51q0 -31 10.5 -59t25.5 -39l-6 -8q-16 12 -27.5 42t-11.5 64q0 29 10 55.5t33.5 43.5t63.5 17
q62 0 87.5 -38.5t25.5 -95.5q0 -44 -17 -77.5t-40 -59t-40 -46.5t-17 -40v-54h-10zM263 17q-9 0 -15.5 6.5t-6.5 15.5q0 8 6.5 14.5t15.5 6.5q8 0 14.5 -6.5t6.5 -14.5q0 -9 -6.5 -15.5t-14.5 -6.5z" />
    <glyph glyph-name="fi" unicode="fi" horiz-adv-x="505" 
d="M97 -192q-19 0 -29 9.5t-9 34.5q0 15 2.5 53.5t7 91t10 109.5t10.5 110t9 91q-10 -1 -19 -1.5t-18 -2.5q-10 -2 -15 -2q-12 0 -16 14.5t-4 27.5q0 15 4.5 25t19.5 16q9 4 23.5 7t30.5 5q5 59 15.5 112t32.5 90q24 41 64.5 61.5t84.5 20.5q38 0 69.5 -13t50.5 -34.5
t19 -47.5q0 -19 -9.5 -32.5t-23.5 -13.5q-11 0 -25 6q-13 7 -33.5 13.5t-48.5 6.5q-41 0 -65 -21t-36 -57.5t-19 -83.5q32 2 68 2.5t67 0.5q52 0 77.5 -6.5t34.5 -25.5t9 -57q0 -25 -3.5 -51.5t-11.5 -64.5q-3 -19 -5.5 -35t-2.5 -30q0 -25 12 -37.5t34 -23.5q9 -4 9 -15
q0 -8 -8 -25t-27.5 -31t-52.5 -14q-30 0 -47 16.5t-17 56.5q0 23 5 45t10 43q7 22 12 45t5 49t-6.5 38.5t-19.5 16.5q-13 5 -39 7.5t-56 3.5t-55 0q-4 -44 -6.5 -96.5t-2.5 -111.5q0 -63 4 -109t8 -75q2 -13 3 -23t1 -16q0 -29 -14 -44.5t-33 -21.5t-35 -6z" />
    <glyph glyph-name="fl" unicode="fl" horiz-adv-x="522" 
d="M97 -192q-19 0 -29 9.5t-9 34.5q0 15 2.5 53.5t7 91t10 109.5t10.5 110t9 91q-10 -1 -19 -1.5t-18 -2.5q-10 -2 -15 -2q-12 0 -16 14.5t-4 27.5q0 15 4.5 25t19.5 16q9 4 23.5 7t30.5 5q4 59 14 111t31 87q19 31 48.5 50t63.5 27.5t65 8.5q82 0 109.5 -45.5t27.5 -132.5
q0 -80 -6.5 -138.5t-12.5 -102.5q-4 -29 -7.5 -55t-3.5 -47q0 -35 11 -50.5t38 -30.5q13 -7 13 -18q0 -8 -8 -25t-27 -31t-53 -14q-29 0 -43.5 16t-14.5 56t11 114q6 43 10 90t4 90q0 47 -2 92t-10 69q-9 31 -28.5 39.5t-39.5 8.5q-39 0 -61.5 -21t-34 -57.5t-18.5 -84.5
q21 2 45 4t39 2q24 0 37.5 -7.5t13.5 -28.5q0 -13 -4.5 -30.5t-13.5 -31t-21 -13.5q-5 0 -17 3q-13 2 -34 5t-53 4q-4 -43 -6.5 -95.5t-2.5 -110.5q0 -63 4 -109t8 -75q2 -13 3 -23t1 -16q0 -29 -14 -44.5t-33 -21.5t-35 -6z" />
    <glyph glyph-name=".notdef" horiz-adv-x="543" 
d="M75 -81v727h393v-727h-393zM85 -71h373v707h-373v-707zM256 140v54q0 21 17 43t40 48t40 58t17 74q0 56 -22.5 90t-80.5 34q-36 0 -57.5 -15.5t-31 -39.5t-9.5 -51q0 -31 10.5 -59t25.5 -39l-6 -8q-16 12 -27.5 42t-11.5 64q0 29 10 55.5t33.5 43.5t63.5 17
q62 0 87.5 -38.5t25.5 -95.5q0 -44 -17 -77.5t-40 -59t-40 -46.5t-17 -40v-54h-10zM263 17q-9 0 -15.5 6.5t-6.5 15.5q0 8 6.5 14.5t15.5 6.5q8 0 14.5 -6.5t6.5 -14.5q0 -9 -6.5 -15.5t-14.5 -6.5z" />
    <glyph glyph-name=".null" 
 />
    <glyph glyph-name="nonmarkingreturn" horiz-adv-x="333" 
 />
    <glyph glyph-name="space" unicode=" " horiz-adv-x="290" 
 />
    <glyph glyph-name="exclam" unicode="!" horiz-adv-x="261" 
d="M130 172q-17 0 -23 5.5t-6 17.5v8.5t1 15.5q2 20 3 49t1 63q0 85 -8 127t-13 61q-3 17 -3 22q0 16 18.5 35.5t55.5 19.5q35 0 44.5 -25.5t9.5 -82.5q0 -43 -5 -95t-12 -97t-13 -69q-9 -37 -20.5 -46t-29.5 -9zM121 -8q-28 0 -45.5 18t-17.5 46q0 29 19 48t49 19
q28 0 45 -17t17 -45q0 -30 -19 -49.5t-48 -19.5z" />
    <glyph glyph-name="quotedbl" unicode="&#x22;" horiz-adv-x="359" 
d="M88 397q-21 0 -24 39q-3 24 -4.5 59t-1.5 67q0 44 8 65.5t46 21.5q40 0 40 -43q0 -20 -5 -51t-11.5 -63.5t-12.5 -57.5q-4 -18 -12 -27.5t-23 -9.5zM235 396q-21 0 -24 39q-3 24 -5 59t-2 67q0 44 8.5 65.5t46.5 21.5q40 0 40 -43q0 -20 -5 -51t-11.5 -63.5t-12.5 -57.5
q-9 -37 -35 -37z" />
    <glyph glyph-name="numbersign" unicode="#" horiz-adv-x="540" 
d="M132 -10q-16 0 -22 5t-6 17q0 14 4.5 37t11.5 49q-27 -3 -47 -4t-32 -1q-20 0 -20 23q0 20 9 39.5t25 19.5q3 0 9 -2q7 -2 22 -5.5t46 -3.5l19 111q-29 -3 -49.5 -4t-32.5 -1q-20 0 -20 23q0 20 8.5 39t25.5 19q3 0 9 -2q7 -1 22 -4.5t46 -3.5q3 23 3 39q0 12 -1.5 18
t-4.5 11q-2 6 -2 10q0 10 14.5 21t36.5 11q19 0 26.5 -6.5t7.5 -23.5q0 -6 -3.5 -28t-8.5 -50l115 5q1 8 1.5 16.5t0.5 15.5q0 12 -1.5 18t-4.5 11t-3 10q0 10 15 21t37 11q19 0 26 -6.5t7 -23.5q0 -5 -2.5 -24.5t-7.5 -45.5q21 2 40 2.5t25 0.5q23 0 32 -5.5t9 -22.5
q0 -23 -12 -37.5t-23 -14.5q-4 0 -7.5 0.5t-7.5 1.5q-7 2 -22.5 5t-46.5 4l-19 -110q22 2 42.5 2.5t26.5 0.5q23 0 32.5 -5.5t9.5 -22.5q0 -24 -12.5 -38.5t-23.5 -14.5q-7 0 -15 3q-7 2 -22.5 4.5t-46.5 3.5q-1 -8 -3 -23.5t-2 -22.5q0 -10 1.5 -17.5l2.5 -12.5q2 -8 2 -13
q0 -16 -16 -22.5t-42 -6.5q-28 0 -28 22q0 14 5.5 40.5t12.5 55.5l-116 -5q-1 -10 -2.5 -22t-1.5 -22q0 -18 3 -26q3 -9 3 -14q0 -16 -16 -22.5t-41 -6.5zM197 166l118 5l19 114l-118 -6z" />
    <glyph glyph-name="dollar" unicode="$" horiz-adv-x="503" 
d="M231 -96q-17 0 -24.5 10t-7.5 42q0 11 0.5 24.5t1.5 27.5q-46 1 -84 15t-60.5 38.5t-22.5 57.5q0 24 10.5 38.5t26.5 14.5q8 0 13.5 -2.5t9.5 -6.5q48 -40 114 -49q2 33 4.5 73.5t6.5 90.5q-41 10 -77.5 26t-59 44t-22.5 72q0 40 20 80t57.5 71t90.5 44q0 5 -1 17l-2 24
t-1 16q0 14 14.5 27t37.5 13q26 0 30 -22t2 -66q63 -1 105 -23.5t42 -54.5q0 -18 -13.5 -33.5t-31.5 -25t-31 -9.5q-8 0 -20 9q-6 5 -19 13t-39 15q-1 -33 -3.5 -73t-4.5 -75q48 -10 83.5 -25.5t55.5 -43t20 -73.5t-21 -89t-60 -74.5t-94 -45.5q2 -18 3 -38t1 -30
q0 -22 -13.5 -33t-36.5 -11zM224 385q2 37 3 73t1 62q-36 -4 -59 -22t-23 -44q0 -25 22 -42t56 -27zM281 115q45 8 69 28.5t24 50.5q0 29 -21.5 44t-65.5 26q-2 -48 -3.5 -84.5t-2.5 -64.5z" />
    <glyph glyph-name="percent" unicode="%" horiz-adv-x="684" 
d="M138 -30q-22 0 -38 10t-16 28q0 21 19.5 50.5t38.5 54.5q22 29 52 68t59 77.5t47 63.5q26 36 53.5 74t52 73t41.5 61q22 32 36.5 58t22.5 45q7 16 14 22.5t28 6.5q22 0 38 -9.5t16 -27.5q0 -21 -19 -50.5t-39 -55.5t-48 -62t-57.5 -76.5t-57.5 -78.5q-13 -18 -32.5 -44.5
t-40 -55.5t-39 -55t-30.5 -44q-22 -32 -36.5 -57.5t-22.5 -45.5q-6 -16 -13.5 -23t-28.5 -7zM149 337q-33 0 -63 14t-48.5 44.5t-18.5 78.5t19 86.5t53 60.5t80 22q34 0 63.5 -14t47.5 -44t18 -78t-19 -86.5t-52.5 -61t-79.5 -22.5zM161 420q30 0 52 19t22 53q0 35 -23.5 53
t-53.5 17q-29 0 -51 -19.5t-22 -51.5q-1 -36 23.5 -53.5t52.5 -17.5zM513 -13q-33 0 -62.5 14t-48 44t-18.5 78t19 86t53 60.5t80 22.5q34 0 63 -14t47 -44t18 -78t-19 -86t-52.5 -60.5t-79.5 -22.5zM526 69q29 0 51 19t22 52q0 35 -23 53t-54 17q-29 0 -50.5 -19.5
t-21.5 -51.5q-1 -35 23 -52.5t53 -17.5z" />
    <glyph glyph-name="ampersand" unicode="&#x26;" horiz-adv-x="646" 
d="M224 -13q-87 0 -140.5 46.5t-53.5 126.5q0 75 44.5 128t117.5 86q-11 30 -18.5 59t-7.5 58q0 50 22 84.5t57 52.5t74 18q37 0 67.5 -15t49.5 -43t19 -67q0 -41 -21.5 -73.5t-58 -58t-81.5 -45.5q26 -45 61 -92.5t71 -82.5q27 24 44 50t17 53q0 20 -9.5 26.5t-19.5 9.5
q-12 4 -18.5 8.5t-6.5 15.5q0 18 12 38.5t31 35.5t41 15q20 0 36 -18.5t16 -69.5t-20.5 -103t-65.5 -103q26 -17 50 -17q18 0 27 6t16 13q5 5 10 8t12 3q27 0 27 -41q0 -23 -11.5 -48.5t-35.5 -42.5t-63 -17q-35 0 -62.5 15t-53.5 41q-40 -29 -82.5 -44.5t-92.5 -15.5z
M264 403q42 20 68.5 43t26.5 50q0 20 -14 33.5t-40 13.5q-27 0 -43 -17.5t-16 -47.5q0 -14 4.5 -34t13.5 -41zM239 93q23 0 49.5 5t49.5 15q-19 25 -42.5 62t-44 75t-32.5 64q-47 -22 -73.5 -54.5t-26.5 -70.5q0 -43 33 -69.5t87 -26.5z" />
    <glyph glyph-name="quotesingle" unicode="'" horiz-adv-x="212" 
d="M88 397q-21 0 -24 39q-3 24 -4.5 59t-1.5 67q0 44 8 65.5t46 21.5q40 0 40 -43q0 -20 -5 -51t-11.5 -63.5t-12.5 -57.5q-4 -18 -12 -27.5t-23 -9.5z" />
    <glyph glyph-name="parenleft" unicode="(" horiz-adv-x="400" 
d="M269 -207q-13 0 -27.5 7t-28.5 28q-21 31 -44 87.5t-38.5 134t-15.5 171.5q0 107 19 204t51 177t71 135q11 14 26.5 27t35.5 13t38.5 -16t28.5 -49q-27 -27 -60 -70t-63 -101t-49 -129.5t-19 -154.5q0 -92 23 -168t58 -131.5t69 -88.5q-15 -43 -35 -59.5t-40 -16.5z" />
    <glyph glyph-name="parenright" unicode=")" horiz-adv-x="400" 
d="M83 -207q-19 0 -38.5 15.5t-29.5 48.5q27 27 60 70t63 101t49 129.5t19 154.5q0 93 -23 168.5t-57 131.5t-69 88q14 44 35 60.5t40 16.5q13 0 27 -7.5t28 -28.5q22 -30 44.5 -86.5t38 -134t15.5 -172.5q0 -106 -18.5 -203.5t-50.5 -177.5t-72 -135q-10 -14 -25.5 -26.5
t-35.5 -12.5z" />
    <glyph glyph-name="asterisk" unicode="*" horiz-adv-x="383" 
d="M187 506q-8 0 -13.5 5.5t-13.5 17.5q-10 20 -19.5 42.5t-9.5 40.5q0 19 12.5 30t33.5 11q23 0 32.5 -17.5t9.5 -45.5q0 -23 -5 -51q-2 -17 -7.5 -25t-19.5 -8zM249 476q-13 0 -19 8.5t-6 15.5q0 8 14 24t31.5 31t28.5 21q11 7 24 7q20 0 31.5 -16.5t11.5 -30.5
q0 -23 -26 -38q-8 -4 -27 -9.5t-37.5 -9t-25.5 -3.5zM74 448q-57 0 -57 42q0 20 12 33.5t31 13.5q14 0 36 -8.5t44 -19.5q14 -7 20.5 -13.5t4.5 -17.5t-9 -15.5t-24 -7.5q-14 -3 -29.5 -5t-28.5 -2zM298 333q-24 0 -42 24.5t-32 53.5q-9 15 -9 25q0 8 7 14.5t15 6.5
q5 0 11 -2t13 -5q32 -16 56.5 -33t24.5 -40q0 -16 -13.5 -30t-30.5 -14zM140 304q-16 0 -31.5 12t-15.5 31q0 20 16.5 41t36.5 42q15 16 27 16q9 0 16 -6t7 -20q0 -22 -5.5 -48t-12.5 -40q-16 -28 -38 -28z" />
    <glyph glyph-name="plus" unicode="+" horiz-adv-x="499" 
d="M226 43q-14 0 -20.5 5.5t-5.5 20.5l6 135l-126 -1q-15 0 -20.5 6t-5.5 19q0 10 3.5 24t11.5 25.5t20 10.5l122 -3v115q0 18 13 26.5t29 11.5t25 3q14 0 20 -5.5t5 -20.5l-6 -128l123 2q16 0 20.5 -6t4.5 -18q0 -9 -3.5 -23.5t-11 -26.5t-18.5 -12l-121 1l2 -129
q0 -12 -12.5 -19t-28.5 -10t-26 -3z" />
    <glyph glyph-name="comma" unicode="," horiz-adv-x="246" 
d="M59 -155q-9 0 -15.5 4.5t-6.5 14.5q0 14 22 31q23 20 34.5 47.5t11.5 44.5q0 7 -3.5 11.5t-17.5 11.5q-13 7 -19.5 21t-6.5 28q0 24 18 43.5t49 19.5q28 0 46 -18.5t18 -59.5q0 -34 -12.5 -68t-30.5 -62t-37 -45q-27 -24 -50 -24z" />
    <glyph glyph-name="hyphen" unicode="-" horiz-adv-x="329" 
d="M44 153q-15 0 -15 29q0 17 3.5 35.5t11.5 30.5q2 3 7 6.5t14 3.5h216q12 0 15.5 -5.5t3.5 -16.5t-3 -28t-10 -30t-19 -13h-89q-35 0 -64 -3t-48 -6q-15 -3 -23 -3z" />
    <glyph glyph-name="period" unicode="." horiz-adv-x="246" 
d="M121 -9q-28 0 -45.5 18t-17.5 46q0 29 19 48t49 19q28 0 45 -17t17 -45q0 -30 -19 -49.5t-48 -19.5z" />
    <glyph glyph-name="slash" unicode="/" horiz-adv-x="374" 
d="M5 -202q-19 0 -36 9t-17 28q0 15 10 39q11 31 30.5 74t50 111.5t75.5 176.5q19 46 40 96t40 96.5t31 79.5q14 34 22.5 61t12.5 43q5 17 8 30t4 19q4 11 18.5 19.5t33.5 8.5t32 -8.5t13 -28.5q0 -17 -8.5 -43.5t-23.5 -64.5q-7 -17 -22 -50.5t-34.5 -76t-40 -89
t-38.5 -89.5q-37 -90 -61.5 -150.5t-39.5 -97.5t-24 -60q-16 -42 -20.5 -65.5t-10.5 -37.5q-4 -14 -16.5 -22t-28.5 -8z" />
    <glyph glyph-name="zero" unicode="0" horiz-adv-x="550" 
d="M257 -13q-50 0 -95.5 21.5t-73.5 68t-28 119.5t29.5 131t82 92t121.5 34q51 0 96 -21.5t73 -67.5t28 -119t-29.5 -131.5t-81.5 -92.5t-122 -34zM277 88q56 1 97 36t41 98q0 43 -20.5 72t-53 44.5t-69.5 14.5q-55 -1 -95 -37t-41 -96q0 -44 20 -73.5t52.5 -44t68.5 -14.5z
" />
    <glyph glyph-name="one" unicode="1" horiz-adv-x="349" 
d="M201 -9q-31 0 -48 17.5t-18 67.5q-1 43 10 106.5t30 142.5q-24 -19 -53 -36t-51 -17q-25 0 -38.5 20.5t-13.5 45.5q0 21 8.5 29t18.5 9q59 5 98 25t74 46q12 9 23 9t22 -6.5t11 -14.5q0 -4 -2.5 -14t-6.5 -24q-10 -33 -20 -89.5t-10 -129.5q0 -45 9.5 -66.5t35.5 -32.5
q8 -3 12 -6.5t4 -11.5t-8.5 -25t-29 -31t-57.5 -14z" />
    <glyph glyph-name="two" unicode="2" horiz-adv-x="439" 
d="M198 -9q-67 0 -112.5 7.5t-59.5 29.5q-4 6 -8 18t-4 22q0 31 27 41q45 22 87 46t77 55q61 53 61 93q0 20 -16 32t-46 12q-23 0 -49.5 -6t-46.5 -17q-12 -7 -21.5 -11.5t-17.5 -4.5q-13 0 -20 13t-7 28q0 17 9.5 33.5t34.5 32.5q26 17 61.5 27.5t75.5 10.5
q63 0 102.5 -30.5t39.5 -83.5q0 -34 -15 -65.5t-38 -57.5q-34 -40 -80 -71t-89 -51q17 -1 42 -1.5t40 -0.5q59 0 84 10.5t38 24.5q12 13 20 13q11 0 22.5 -15.5t11.5 -42.5q0 -52 -50.5 -71.5t-152.5 -19.5z" />
    <glyph glyph-name="three" unicode="3" horiz-adv-x="433" 
d="M139 -215q-64 0 -109 28.5t-45 81.5q0 38 18 53.5t32 15.5q8 0 14.5 -5.5t14.5 -16.5q13 -16 43 -33.5t79 -17.5q53 0 86.5 23t33.5 65q0 33 -18.5 52t-41.5 29q-32 12 -72 17q-8 1 -14 4.5t-11 15.5q-9 20 -9 40q0 11 6 18t16 12q20 9 45.5 23.5t44 36.5t18.5 54
q0 37 -25.5 51.5t-57.5 14.5t-58 -10.5t-40 -18.5q-18 -12 -27 -12q-14 0 -20 15t-6 28q0 17 9.5 33.5t32.5 31.5q32 23 67.5 31t67.5 8q74 0 115 -36.5t41 -95.5q0 -50 -28 -93t-67 -67q52 -14 80.5 -52t28.5 -97q0 -65 -32.5 -116.5t-87.5 -81t-124 -29.5z" />
    <glyph glyph-name="four" unicode="4" horiz-adv-x="492" 
d="M311 -213q-28 0 -44 16t-17 59q0 23 3 58.5t9 68.5h-179q-36 0 -54.5 20.5t-18.5 46.5q0 16 6 33t16 36q29 58 73.5 113.5t92.5 102.5t87 77q25 18 43 28t34 10q21 0 27.5 -16t6.5 -44q0 -43 -7.5 -103t-16.5 -119q-2 -17 -4 -35t-4 -38q13 1 28.5 1.5t34.5 0.5
q11 0 20.5 -4.5t9.5 -20.5t-8.5 -36.5t-22 -36t-28.5 -15.5h-51v-22q0 -30 7 -56t31 -37q14 -6 14 -18q0 -9 -8 -25.5t-27 -30.5t-53 -14zM140 92l137 7q3 18 7 46.5t8 58t6.5 54t2.5 35.5q0 16 -9 16q-8 0 -23 -10q-36 -26 -79 -67t-76 -100q-6 -9 -6 -18q0 -11 9 -17
t23 -5z" />
    <glyph glyph-name="five" unicode="5" horiz-adv-x="452" 
d="M173 -212q-38 0 -71 12t-52.5 36.5t-19.5 61.5q0 38 17.5 53.5t30.5 15.5q12 0 28 -21q20 -25 49.5 -37.5t61.5 -12.5q53 0 80.5 26.5t28.5 66.5q1 44 -28.5 78.5t-74.5 54.5t-91 20q-17 0 -27 -2t-18 -2q-13 0 -23 7t-10 18q0 7 3 17q3 16 8.5 71.5t5.5 166.5
q0 14 5.5 23t18.5 9q3 0 9 -0.5t11 -1.5q18 -2 49 -4t66 -2q47 0 72.5 4.5t37 11t16.5 12.5q11 12 17 12q11 0 21.5 -15t10.5 -46q0 -52 -37.5 -66.5t-105.5 -14.5q-31 0 -61.5 2t-48.5 4l-15 -102q50 1 100 -11.5t87 -38.5q44 -31 64 -75t20 -91q0 -64 -31 -119t-84 -88
t-120 -33z" />
    <glyph glyph-name="six" unicode="6" horiz-adv-x="503" 
d="M230 -13q-60 0 -98.5 29.5t-56.5 81.5t-20 119q-2 91 25 169.5t76 138.5t111 93q29 15 62 24.5t59 8.5q22 -1 30 -10.5t8 -27.5q0 -17 -5.5 -35.5t-15 -31t-22.5 -12.5q-8 0 -14 2q-4 1 -9 1.5t-13 0.5q-65 0 -119 -43.5t-77 -120.5q29 24 60 34.5t65 10.5
q76 0 120.5 -50t45.5 -139q1 -66 -25.5 -121.5t-74.5 -88.5t-112 -33zM257 91q50 0 81 31.5t30 81.5q-1 53 -35 82.5t-84 29.5q-32 0 -60.5 -12t-53.5 -34q-4 -46 8.5 -87t41.5 -66.5t72 -25.5z" />
    <glyph glyph-name="seven" unicode="7" horiz-adv-x="456" 
d="M143 -212q-29 0 -44 15.5t-15 50.5q0 43 12 87.5t32 90.5q35 78 87 162.5t108 154.5q-34 -5 -74.5 -8.5t-80 -5t-69.5 -1.5q-22 0 -37 1.5t-26 6.5q-19 9 -19 42q0 30 10.5 53t26.5 23q3 0 8 -1t16 -4q40 -10 79 -13t85 -3q43 0 77 3t55 5q21 3 27 3q14 0 23 -14.5
t9 -25.5q0 -12 -8 -24q-61 -87 -113 -175.5t-80 -157.5q-12 -31 -18.5 -58t-6.5 -50q0 -22 6 -35t13 -24q5 -9 9 -16.5t4 -15.5q0 -13 -12 -28.5t-33.5 -26.5t-50.5 -11z" />
    <glyph glyph-name="eight" unicode="8" horiz-adv-x="489" 
d="M216 -13q-63 0 -101.5 23t-55.5 59.5t-17 77.5q0 45 17 79.5t42.5 59t51.5 39.5q-29 16 -50 47.5t-21 77.5q0 22 4.5 38t11.5 28q-2 -1 -5.5 -2t-6.5 -1q-10 0 -14.5 15.5t-4.5 27.5q0 19 9 30.5t18 18.5q20 14 63.5 33t102.5 19q80 0 127.5 -42t47.5 -111
q0 -54 -26.5 -97.5t-67.5 -70.5q38 -19 68 -56.5t30 -96.5q0 -56 -29.5 -100.5t-79.5 -70t-114 -25.5zM278 371q32 18 51 39.5t19 57.5q0 43 -27 66.5t-71 23.5q-20 0 -37.5 -4.5t-32.5 -11.5q-14 -22 -14 -49q0 -43 34.5 -72t77.5 -50zM260 84q40 0 71 18.5t31 56.5
q0 28 -18 50t-49 40q-19 12 -42 22t-47 18q-31 -18 -50 -44t-19 -60t18 -56.5t46.5 -33.5t58.5 -11z" />
    <glyph glyph-name="nine" unicode="9" horiz-adv-x="503" 
d="M105 -211q-22 1 -30.5 10t-8.5 26q0 18 5.5 37t15 31.5t21.5 12.5q3 0 6.5 -0.5t7.5 -1.5q5 -1 9.5 -1.5t12.5 -0.5q67 0 123 44t79 123q-29 -25 -59.5 -36.5t-65.5 -11.5q-76 0 -122 50t-48 136q-1 69 24.5 124.5t72.5 88.5t110 33q61 0 100 -30.5t59 -82.5t21 -119
q2 -90 -25.5 -168.5t-76 -138t-110.5 -93.5q-29 -15 -62 -24t-59 -8zM244 124q32 0 60 12t53 34q6 46 -6.5 86.5t-41.5 66t-74 25.5q-49 0 -80 -33t-30 -82q1 -51 35.5 -80t83.5 -29z" />
    <glyph glyph-name="colon" unicode=":" horiz-adv-x="263" 
d="M138 260q-28 0 -45.5 18t-17.5 46q0 29 19.5 48t48.5 19q28 0 45 -17t17 -45q0 -30 -18.5 -49.5t-48.5 -19.5zM121 -9q-28 0 -45.5 18t-17.5 46q0 29 19 48t49 19q28 0 45 -17t17 -45q0 -30 -19 -49.5t-48 -19.5z" />
    <glyph glyph-name="semicolon" unicode=";" horiz-adv-x="263" 
d="M138 260q-28 0 -45.5 18t-17.5 46q0 29 19.5 48t48.5 19q28 0 45 -17t17 -45q0 -30 -18.5 -49.5t-48.5 -19.5zM59 -155q-9 0 -15.5 4.5t-6.5 14.5q0 14 22 31q23 20 34.5 47.5t11.5 44.5q0 7 -3.5 11.5t-17.5 11.5q-13 7 -19.5 21t-6.5 28q0 24 18 43.5t49 19.5
q28 0 46 -18.5t18 -59.5q0 -34 -12.5 -68t-30.5 -62t-37 -45q-27 -24 -50 -24z" />
    <glyph glyph-name="less" unicode="&#x3c;" horiz-adv-x="499" 
d="M401 53q-9 0 -26 6q-19 7 -49.5 20t-66 29t-69.5 32.5t-61 30.5t-39 22q-34 23 -32 52q1 14 9 26.5t27 25.5q16 10 51.5 28t79 38t83.5 38.5t64 28.5q18 8 29 8q21 0 32 -22t11 -44q-1 -28 -32 -39l-250 -89l227 -84q21 -7 31 -24t10 -49q0 -15 -7 -24.5t-22 -9.5z" />
    <glyph glyph-name="equal" unicode="=" horiz-adv-x="499" 
d="M95 285q-26 0 -26 24q0 10 3 24t11 25.5t23 11.5h309q15 0 20 -5.5t5 -17.5q0 -9 -3.5 -24t-10.5 -26.5t-18 -11.5h-313zM85 131q-14 0 -19.5 5.5t-5.5 18.5q0 10 3 24t10.5 25t22.5 11h309q15 0 20 -5.5t5 -17.5q0 -9 -3.5 -23.5t-10.5 -26t-18 -11.5h-313z" />
    <glyph glyph-name="greater" unicode="&#x3e;" horiz-adv-x="499" 
d="M82 53q-16 0 -21.5 9.5t-5.5 24.5q1 32 13.5 49t33.5 24l231 83l-243 90q-13 6 -21 15t-7 24q1 22 13.5 44t32.5 22q12 0 30 -8q24 -10 62.5 -28.5t80 -38.5t76 -38t49.5 -28q34 -25 33 -52q-2 -29 -37 -52q-13 -8 -40.5 -22t-62.5 -30.5t-72 -32.5t-68.5 -29t-50.5 -20
q-16 -6 -26 -6z" />
    <glyph glyph-name="question" unicode="?" horiz-adv-x="383" 
d="M163 165q-34 0 -52.5 22t-18.5 53q0 41 31 67.5t90 59.5q29 17 50.5 37.5t21.5 48.5q0 31 -25 45t-56 14q-29 0 -49.5 -11t-20.5 -27q0 -10 9 -15.5t19 -9.5q10 -3 10 -14q0 -20 -13 -39.5t-44 -19.5q-23 0 -42.5 16t-19.5 50q0 38 24.5 73.5t66.5 59t94 23.5
q62 0 99.5 -33.5t37.5 -85.5q0 -49 -28.5 -85t-70.5 -70q-25 -19 -43 -37t-18 -32q0 -7 4.5 -13t8.5 -11q11 -9 11 -21q0 -16 -24 -30.5t-52 -14.5zM167 -7q-28 0 -45.5 18t-17.5 46q0 29 19 48t49 19q28 0 45 -17t17 -45q0 -30 -19 -49.5t-48 -19.5z" />
    <glyph glyph-name="at" unicode="@" horiz-adv-x="738" 
d="M325 -103q-82 0 -143 32.5t-94 91.5t-33 138q0 75 28.5 142.5t78.5 120.5t116.5 83t141.5 30q74 0 134.5 -28t96 -80t35.5 -125q0 -43 -13 -85t-37 -76.5t-57.5 -55.5t-75.5 -21t-56.5 21t-14.5 58v4q-20 -37 -51.5 -61t-73.5 -24q-45 0 -72.5 28.5t-27.5 80.5
q0 51 26 98.5t73.5 78.5t112.5 31q45 0 77 -15t32 -41q0 -7 -2 -21t-4 -21q-2 -6 -6 -10.5t-11 -4.5q-4 0 -10 2q-2 -13 -3 -28t-1 -31q0 -28 8 -51.5t31 -23.5q24 0 42.5 19t29 49t10.5 62q0 57 -30.5 97.5t-79.5 62t-106 21.5q-54 0 -102 -20t-84 -55t-56.5 -81t-20.5 -97
q0 -67 34 -113t90.5 -69.5t125.5 -23.5q60 0 109 15q6 3 12 3q9 0 13.5 -5.5t4.5 -13.5q0 -14 -15 -31t-41 -30q-30 -13 -68 -20t-73 -7zM334 150q26 0 46 16t32 41q7 17 11 36.5t6 39.5q-11 3 -26 6t-31 3q-40 0 -66.5 -24t-26.5 -60q0 -26 15 -42t40 -16z" />
    <glyph glyph-name="A" unicode="A" horiz-adv-x="599" 
d="M514 -11q-31 0 -52.5 26.5t-41.5 87.5q-10 30 -16.5 58.5t-9.5 55.5q-13 -20 -23.5 -26.5t-30.5 -6.5q-49 0 -104 1.5t-98 2.5q-2 -18 -3.5 -36.5t-1.5 -36.5q0 -16 1.5 -32t2.5 -31q3 -28 -22 -45t-62 -17q-32 0 -32 28q0 17 9 51q5 23 8 39.5t3 26.5q0 28 -17 38
q-14 8 -14 21q0 12 5.5 29t14.5 31.5t17 20.5q7 4 17 7t25 4q39 112 87.5 193.5t103.5 126t112 44.5q35 0 51 -23.5t16 -78.5v-45q0 -101 15 -186t37 -138q22 -56 61 -92q12 -10 16 -17.5t4 -15.5q0 -15 -11.5 -30t-29.5 -25t-37 -10zM168 292q49 2 86 3.5t62 1.5h70
q-2 28 -3.5 59t-1.5 65v58q0 29 -6.5 38.5t-24.5 9.5q-49 0 -98 -64t-84 -171z" />
    <glyph glyph-name="B" unicode="B" horiz-adv-x="538" 
d="M215 -12q-83 0 -119 39.5t-36 104.5q0 17 3 41t8 58q8 49 12 87.5t4 84.5q0 53 -3 86q-17 -10 -25 -10q-16 0 -16 36q0 28 12.5 47.5t41.5 36.5q29 18 73.5 31t95.5 13q83 0 126 -38t43 -100q0 -40 -17 -74t-48 -60q125 -20 125 -144q0 -67 -38 -122t-103 -86
q-63 -31 -139 -31zM255 99q45 0 81.5 12.5t58.5 36.5t22 56q0 41 -29 58t-67 17q-16 0 -40 -3q-10 -2 -23 -2q-22 0 -36.5 18t-14.5 45q0 19 17 24q122 32 122 111q0 63 -87 63q-32 0 -79 -11q0 -49 -5 -102.5t-15 -111.5q-6 -40 -9.5 -67.5t-3.5 -44.5q0 -54 27 -76.5
t81 -22.5z" />
    <glyph glyph-name="C" unicode="C" horiz-adv-x="567" 
d="M281 -13q-71 0 -124.5 32t-82.5 91t-29 140q0 77 25 148t72 127t113 89t149 33q62 0 102 -19t40 -56q0 -18 -9.5 -35.5t-24.5 -29.5t-31 -12q-10 0 -16 5q-27 18 -53 26.5t-60 8.5q-71 0 -120 -32.5t-74.5 -85.5t-25.5 -115q0 -60 23 -106t64 -72t96 -26q44 0 85.5 17.5
t73.5 48.5q14 13 28 13q12 0 17 -10t5 -20q0 -17 -10 -38.5t-31 -42.5q-37 -37 -91 -58t-111 -21z" />
    <glyph glyph-name="D" unicode="D" horiz-adv-x="604" 
d="M204 -13q-37 0 -68 7t-51 26q-15 14 -20 31.5t-5 38.5q0 34 6 68q9 59 16 127t7 126q0 18 -1.5 41t-4.5 43q-7 -3 -13.5 -5.5t-11.5 -2.5q-9 0 -12 9t-3 20q0 29 13.5 49.5t44.5 36.5q33 18 86.5 31.5t108.5 13.5q125 0 196.5 -73.5t71.5 -208.5q0 -77 -23.5 -145.5
t-69.5 -121t-113 -82t-154 -29.5zM236 99q45 0 90 14t81.5 42t58.5 71.5t22 104.5q0 69 -27 114t-72 67t-100 22q-30 0 -59.5 -5t-46.5 -10q-1 -46 -5.5 -89.5t-10.5 -84.5q-6 -43 -9.5 -84t-3.5 -81q0 -50 20.5 -65.5t61.5 -15.5z" />
    <glyph glyph-name="E" unicode="E" horiz-adv-x="505" 
d="M244 -13q-95 0 -140.5 30.5t-45.5 114.5q0 17 2.5 41t7.5 58q8 49 12 87.5t4 84.5q0 30 -1.5 58t-5.5 53q-15 -3 -20 -3q-8 0 -11 3.5t-3 13.5q0 21 5 41.5t14 33.5q17 24 52 28q27 3 66.5 6t81 4.5t74.5 1.5q92 0 109 -4q26 -4 26 -28q0 -30 -21 -55q-11 -15 -22 -21.5
t-31 -5.5q-44 3 -77 4t-46 1q-23 0 -47.5 -1t-49.5 -3q0 -35 -3 -75t-8 -84q46 3 104 4.5t103 1.5q20 0 27.5 -4t7.5 -21q0 -16 -8.5 -35.5t-22.5 -33.5q-6 -6 -13 -9.5t-19 -2.5q-43 2 -97.5 3t-95.5 0q-4 -23 -6 -42t-2 -34q0 -55 28 -77t92 -22q39 0 75.5 7t74.5 26
q14 8 21 8q11 0 21.5 -15.5t10.5 -33.5q0 -22 -16.5 -41.5t-43.5 -33.5q-31 -14 -74 -21.5t-89 -7.5z" />
    <glyph glyph-name="F" unicode="F" horiz-adv-x="463" 
d="M104 -10q-12 0 -24.5 4t-21 19t-8.5 46q0 20 4 52.5t11 84.5q5 33 11.5 88.5t6.5 116.5q0 27 -2 57.5t-8 55.5q-12 -3 -18 -3t-9 3.5t-3 13.5q0 20 4.5 40.5t14.5 34.5t23.5 20t28.5 8q25 3 63.5 5.5t81 4.5t77.5 2q47 0 69.5 -1t34.5 -3q26 -4 26 -28q0 -17 -6.5 -30.5
t-15.5 -24.5q-11 -16 -23.5 -22.5t-32.5 -4.5q-17 2 -46.5 3.5t-67.5 1.5q-16 0 -42 -1t-55 -3q-1 -34 -6 -77.5t-11 -88.5q27 2 65 3.5t78 2.5t71 1q18 0 26 -4.5t8 -19.5q0 -17 -8.5 -36.5t-22 -33.5t-28.5 -13q-25 2 -70.5 3t-95.5 1h-32q-2 -22 -3.5 -43.5t-1.5 -39.5
q0 -35 7 -61.5t27 -45.5q13 -13 13 -30q0 -22 -25 -40t-64 -18z" />
    <glyph glyph-name="G" unicode="G" horiz-adv-x="641" 
d="M288 -13q-69 0 -124 31t-87 90t-32 143q0 76 25.5 146.5t72.5 127t114 89.5t149 33q60 0 100 -19t40 -56q0 -18 -9.5 -35.5t-24.5 -29.5t-31 -12q-10 0 -16 5q-52 35 -118 35q-70 0 -118 -32.5t-72.5 -85.5t-24.5 -115q0 -93 52.5 -148t140.5 -55q38 0 71 11t54 32t21 51
t-18 46t-47 23.5t-63 9.5q-24 2 -35.5 6t-11.5 24q0 24 15 40t37 18q30 3 72 4.5t87.5 2t85.5 0.5q13 0 20 -4.5t7 -18.5q0 -17 -7.5 -37t-20.5 -34t-30 -14h-16q3 -10 5.5 -22.5t2.5 -28.5q0 -44 -21 -83.5t-58 -70.5t-85 -49t-102 -18z" />
    <glyph glyph-name="H" unicode="H" horiz-adv-x="637" 
d="M92 -11q-39 0 -39 28q0 8 3 21q21 105 30 213q-15 -4 -24 -4q-10 0 -10 18q0 24 12 54t28 44q0 53 -2.5 88.5t-9.5 62.5t-22 52q-9 14 -9 21q0 13 13.5 25.5t33 21.5t36.5 9q32 0 42.5 -28.5t10.5 -74.5q-1 -22 -4 -63t-9 -101q63 4 123 6t115 2h74v28q0 87 -23 153
q-7 17 -7 24q0 20 25.5 37t53.5 17q31 0 41.5 -22.5t10.5 -63.5q0 -27 -5 -73t-14 -112q-9 -70 -14 -115.5t-5 -80.5q0 -66 34 -98q13 -15 13 -30q0 -23 -27 -40.5t-65 -17.5q-24 0 -38 13t-14 56q0 15 3 45t10 76q4 29 7.5 56t5.5 51q-7 -9 -13.5 -14t-17.5 -4
q-36 2 -71.5 3.5t-70.5 1.5q-73 0 -139 -9q-1 -7 -1.5 -23.5t-0.5 -27.5q0 -43 4 -89t8 -82q3 -25 -24 -39.5t-58 -14.5z" />
    <glyph glyph-name="I" unicode="I" horiz-adv-x="257" 
d="M118 -10q-24 0 -39 13t-15 53q0 20 4 52l8 64q11 71 16 123t5 106q0 50 -5.5 93t-27.5 74q-8 13 -8 20q0 12 13.5 25.5t33 22.5t36.5 9q31 0 41.5 -27.5t10.5 -68.5q0 -25 -3 -62t-6.5 -71.5t-6.5 -53.5q-7 -53 -11 -99t-4 -78q0 -38 7.5 -64t26.5 -43q13 -12 13 -27
q0 -24 -24.5 -42.5t-64.5 -18.5z" />
    <glyph glyph-name="J" unicode="J" horiz-adv-x="511" 
d="M198 -13q-87 0 -132 40.5t-45 117.5q0 55 19 86.5t35 47.5q14 14 23 17.5t15 3.5q13 0 20.5 -7t7.5 -18q0 -7 -2.5 -12.5t-5.5 -9.5q-21 -27 -21 -67q0 -46 32 -67t83 -21q71 0 103 39.5t37 106.5q2 24 2.5 55t0.5 59q-2 105 -17 175q-25 2 -54 3t-55 1q-90 0 -141 -13
q-17 -4 -28 -4q-8 0 -11.5 3.5t-3.5 16.5q0 18 6 35t16 30q11 15 26 21.5t37 8.5q34 3 79.5 5.5t103.5 2.5q48 0 77.5 -2t41.5 -4q14 -2 20 -9t6 -23q0 -14 -4.5 -29t-12.5 -26q2 -134 -4.5 -242.5t-39.5 -183.5q-62 -137 -214 -137z" />
    <glyph glyph-name="K" unicode="K" horiz-adv-x="575" 
d="M92 -11q-27 0 -34 12t-3 34q15 74 26 161t11 175q0 60 -4.5 107t-29.5 88q-4 6 -6.5 11.5t-2.5 9.5q0 13 14.5 25.5t34.5 21.5t38 9q24 0 34.5 -16t12.5 -39.5t2 -47.5t-2.5 -53.5t-5.5 -64.5q-5 -46 -10 -100.5t-5 -113.5q0 -67 5 -109.5t7 -55.5q3 -17 -10 -29
t-33 -18.5t-39 -6.5zM473 -9q-40 0 -76.5 20t-68.5 52t-57.5 70t-44 75t-27.5 65q-9 27 -9 47q0 22 16 53q13 24 38 58t57.5 71t68 69t71.5 52t67 20q28 0 40.5 -16.5t12.5 -37.5q0 -17 -7 -36t-19 -32t-28 -13q-10 0 -18.5 2.5t-21.5 2.5t-30.5 -5t-38.5 -19
q-17 -12 -42 -35.5t-51 -53.5t-48 -64q14 -34 38 -68.5t50 -64.5q47 -54 90.5 -79t106.5 -25q13 0 17.5 -6t4.5 -19q0 -29 -21.5 -56t-69.5 -27z" />
    <glyph glyph-name="L" unicode="L" horiz-adv-x="466" 
d="M232 -13q-68 0 -105 15t-51 42t-14 64q0 18 3 40.5t7 51.5q18 110 18 195q0 56 -4.5 95.5t-26.5 75.5q-4 6 -7 12.5t-3 10.5q0 12 14 25t34 22t38 9q34 0 42.5 -27t8.5 -77q0 -19 -4 -60.5t-12 -105.5q-8 -62 -12 -107t-4 -72q0 -40 9.5 -60.5t31.5 -28.5t62 -8
q43 0 82 7.5t76 23.5q5 2 9 3t7 1q9 0 17 -11t8 -31q0 -44 -48 -69q-64 -36 -176 -36z" />
    <glyph glyph-name="M" unicode="M" horiz-adv-x="862" 
d="M77 -10q-19 0 -26 11t-7 24q0 62 12.5 142t30.5 159q16 67 35.5 125t34.5 95q22 52 50.5 79.5t66.5 27.5q28 0 50 -18.5t26 -66.5q6 -58 14 -117t18 -107.5t21 -74.5q9 -23 26 -23q19 0 33 24q13 22 28 60t29.5 80.5t25.5 77.5q13 38 29.5 76.5t42.5 64t65 25.5
q36 0 51.5 -24.5t15.5 -77.5q0 -41 -3 -86q-1 -26 -2.5 -53.5t-1.5 -56.5q0 -45 4.5 -95t18 -94t40.5 -74q8 -7 14.5 -16t6.5 -20q0 -25 -26.5 -45.5t-60.5 -20.5q-31 0 -46 20t-24 54q-10 42 -14 90t-4 93q0 72 5.5 132.5t5.5 89.5q0 16 -3 23.5t-15 7.5q-14 0 -23.5 -12.5
t-15.5 -34.5q-13 -42 -29 -90t-33.5 -94t-37.5 -82q-23 -42 -49.5 -56.5t-53.5 -14.5q-42 0 -63.5 26.5t-31.5 58.5q-13 43 -24 112.5t-16 156.5q-2 37 -24 37q-24 0 -38 -36q-12 -36 -23 -84.5t-17.5 -101t-6.5 -103.5q0 -43 3.5 -75t3.5 -60q0 -20 -15.5 -33t-36.5 -19
t-36 -6z" />
    <glyph glyph-name="N" unicode="N" horiz-adv-x="648" 
d="M99 -10q-22 0 -37.5 11.5t-15.5 54.5q0 22 4.5 53.5t9.5 65.5q8 48 16 105.5t8 114.5q0 60 -4 92t-9 52q-2 11 -3.5 20t-1.5 20q0 32 20.5 48.5t45.5 16.5t42 -12.5t30 -26.5q86 -97 155 -203.5t115 -218.5q5 -8 9 -8q6 0 8 8q18 117 18 212q0 57 -4.5 90.5t-11 52
t-12.5 29.5q-3 7 -5 12.5t-2 10.5q0 12 12.5 24.5t30.5 20.5t35 8q24 0 35 -16t14.5 -39.5t3.5 -47.5q0 -27 -5 -70t-11.5 -92.5t-11 -97.5t-4.5 -85q0 -21 1.5 -41t3.5 -39q3 -25 3 -44q0 -37 -18.5 -58.5t-50.5 -21.5q-22 0 -43.5 13t-32.5 42q-43 110 -105.5 214.5
t-130.5 180.5q-11 10 -18 10q-10 0 -13 -22q-5 -38 -10 -83t-8 -87.5t-3 -72.5q0 -34 6 -58.5t18 -47.5q11 -20 11 -36q0 -19 -22 -36.5t-62 -17.5z" />
    <glyph glyph-name="O" unicode="O" horiz-adv-x="636" 
d="M275 -13q-103 0 -164.5 60.5t-61.5 178.5q0 53 14.5 110t48.5 113q-19 -17 -36 -17q-29 0 -29 46q0 33 14 53t27 32q22 19 56 38.5t80 32.5t103 13q134 0 201.5 -75.5t67.5 -209.5q0 -79 -23 -147t-65.5 -119t-101.5 -80t-131 -29zM310 99q50 0 98.5 23t80 73.5
t31.5 131.5q0 76 -29 121.5t-73.5 66t-93.5 20.5q-37 0 -66.5 -9.5t-52.5 -20.5q-26 -40 -49 -97.5t-23 -121.5t25 -105.5t65.5 -61.5t86.5 -20z" />
    <glyph glyph-name="P" unicode="P" horiz-adv-x="517" 
d="M112 -10q-12 0 -24.5 4t-20.5 19t-8 46q0 25 4.5 63.5t11.5 82.5q7 45 11.5 95t4.5 101q0 20 -1 43t-4 45q-7 -4 -13.5 -6.5t-12.5 -2.5q-17 0 -17 33q0 30 13.5 50.5t49.5 39.5q35 19 82.5 31.5t96.5 12.5q97 0 155.5 -51t58.5 -136q0 -52 -21 -96t-55.5 -76.5t-75 -50
t-79.5 -17.5q-37 0 -50 16.5t-13 47.5q0 15 3.5 27.5t15.5 12.5q3 0 9 -1t12 -3q6 -1 17 -3t25 -2q55 0 89.5 31t34.5 80q0 51 -38 80t-98 29q-22 0 -45 -3.5t-46 -9.5q-3 -66 -14 -150q-6 -50 -10.5 -98.5t-4.5 -88.5q0 -35 6.5 -61.5t26.5 -45.5q14 -14 14 -30
q0 -22 -25 -40t-65 -18z" />
    <glyph glyph-name="Q" unicode="Q" horiz-adv-x="631" 
d="M611 -176q-58 0 -108.5 26.5t-91 66t-71.5 78.5q-18 -4 -36.5 -6t-36.5 -2q-64 0 -114 25t-78.5 70t-30.5 104q-1 80 55 139q47 50 88 50q21 0 32 -14.5t24 -43.5q24 -51 56.5 -102.5t72.5 -102.5q62 23 102 81t38 139q-1 68 -29 113t-72.5 67.5t-96.5 22.5
q-55 0 -96.5 -21.5t-70.5 -51t-46 -54.5q-4 -6 -11 -8t-12 -2q-15 0 -20.5 12t-5.5 30q-1 34 18.5 70.5t56 67.5t86.5 50t111 19q123 0 192 -77t71 -210q2 -111 -41.5 -195t-117.5 -131q26 -26 60 -48.5t72 -35.5t74 -13q27 0 47.5 6t24.5 6q8 0 12.5 -14.5t4.5 -28.5
q0 -43 -33.5 -62.5t-78.5 -19.5zM275 100q-35 44 -56 84t-41 87q-7 12 -16 12q-14 0 -27 -19t-12 -46q1 -46 43.5 -79t108.5 -39z" />
    <glyph glyph-name="R" unicode="R" horiz-adv-x="558" 
d="M112 -10q-12 0 -24.5 4t-20.5 19t-8 46q0 20 3.5 51.5t7.5 61.5q8 50 14.5 110t6.5 119q0 21 -1 44t-4 44q-6 -3 -13.5 -5.5t-12.5 -2.5q-10 0 -13.5 10.5t-3.5 24.5q0 32 15.5 51.5t46.5 35.5q41 23 87.5 33.5t88.5 10.5q62 0 110 -22t75 -62t27 -96q0 -58 -27.5 -103
t-70 -73.5t-86.5 -37.5q16 -25 34.5 -50t37.5 -45q57 -59 116 -59q16 0 28 2q6 1 10.5 -4.5t4.5 -21.5q0 -19 -8 -38.5t-27 -32.5t-52 -13q-39 0 -74.5 26t-65.5 66.5t-53.5 85.5t-39.5 83q-4 11 -7 21.5t-3 20.5q0 17 11 28q8 8 22.5 11t42.5 3q53 0 86 29t33 75
q0 50 -37.5 73t-91.5 23q-44 0 -92 -14q-3 -65 -14 -149q-6 -50 -10.5 -99t-4.5 -89q0 -35 6.5 -61.5t26.5 -45.5q14 -14 14 -30q0 -22 -25 -40t-65 -18z" />
    <glyph glyph-name="S" unicode="S" horiz-adv-x="494" 
d="M196 -13q-49 0 -90.5 14.5t-66.5 40.5t-25 61q0 23 11 40.5t30 17.5q12 0 25 -9q25 -22 64.5 -38.5t84.5 -16.5q59 0 96.5 23.5t37.5 63.5q0 38 -35 55t-97 32q-46 11 -88.5 28t-70 47.5t-27.5 81.5q0 39 17 77.5t50 70.5t80 51.5t106 19.5q44 0 80.5 -10t58 -28
t21.5 -44q0 -20 -11 -35t-26 -23.5t-26 -8.5q-10 0 -27 9q-28 15 -62.5 23.5t-60.5 8.5q-49 0 -79.5 -21.5t-30.5 -50.5q0 -32 38.5 -53.5t138.5 -45.5q68 -18 106 -49.5t38 -99.5q0 -61 -32.5 -114t-91 -85.5t-136.5 -32.5z" />
    <glyph glyph-name="T" unicode="T" horiz-adv-x="490" 
d="M231 -10q-12 0 -24.5 4t-20.5 19t-8 46q0 22 3.5 54t9.5 69q8 50 13.5 105.5t5.5 113.5q0 47 -4.5 81.5t-11.5 53.5q-38 -1 -72 -5t-69 -13q-9 -1 -15.5 -2.5t-12.5 -1.5q-9 0 -13 3.5t-4 17.5q0 17 5 35.5t15 31.5q10 14 23.5 20.5t29.5 8.5q25 3 64 5.5t85.5 4.5
t91.5 2q73 0 104.5 -1t42.5 -3q14 -2 19.5 -8.5t5.5 -20.5q0 -27 -24 -54q-10 -12 -21 -18.5t-29 -5.5q-16 2 -47 3t-69 1q-1 -35 -5.5 -81.5t-10.5 -93.5q-6 -46 -10 -92t-4 -84q0 -35 6.5 -61.5t26.5 -45.5q14 -14 14 -30q0 -22 -25 -40t-65 -18z" />
    <glyph glyph-name="U" unicode="U" horiz-adv-x="622" 
d="M276 -13q-105 0 -157 55.5t-52 174.5q0 20 1.5 42t3.5 43q2 20 3 40t1 36q0 60 -5 104t-30 84q-8 13 -8 21q0 13 14.5 25.5t34.5 21.5t38 9q24 0 34.5 -16t13.5 -39.5t3 -47.5q0 -25 -2.5 -55t-7.5 -65q-4 -38 -7.5 -79.5t-3.5 -83.5q0 -58 20.5 -92.5t56 -50t79.5 -15.5
q77 0 116 39.5t54 103.5q7 29 11 66.5t4 76.5q0 49 -6.5 94t-25.5 79l-7 14t-3 13q0 14 12 27.5t30 22t37 8.5q32 0 43 -27t11 -63q0 -22 -3.5 -64t-9.5 -90t-12 -90.5t-11 -65.5q-25 -119 -88 -187.5t-182 -68.5z" />
    <glyph glyph-name="V" unicode="V" horiz-adv-x="617" 
d="M240 -16q-34 0 -52.5 22.5t-21.5 78.5q-2 59 -9.5 117.5t-20.5 109.5q-17 74 -45.5 136.5t-78.5 102.5q-8 7 -13 13.5t-5 16.5q0 22 22.5 42t52.5 20q35 0 60 -29t45 -81q34 -82 49.5 -183.5t17.5 -195.5q1 -28 8 -37.5t24 -9.5q36 0 70.5 28t63 76t45.5 109t17 128
q0 41 -5.5 66.5t-12.5 40.5q-9 20 -9 32q0 15 14 28t32.5 21.5t33.5 8.5q20 0 29 -14.5t12 -36.5t3 -45q0 -69 -16 -146t-45.5 -151.5t-70 -135t-89.5 -96.5t-105 -36z" />
    <glyph glyph-name="W" unicode="W" horiz-adv-x="899" 
d="M230 -14q-34 0 -52.5 19.5t-20.5 74.5q-1 59 -6 117t-16 110q-15 76 -41 137t-73 105q-8 8 -13 15t-5 16q0 21 22 40.5t52 19.5q35 0 60 -30t43 -84q21 -55 33 -120t16.5 -132.5t4.5 -130.5q0 -22 6 -29t21 -7q33 0 65.5 20t59 54.5t42.5 76.5t17 85q1 45 -15.5 87.5
t-42.5 72.5q-7 8 -10.5 14.5t-3.5 13.5q0 16 13 31t30 25t29 10q25 0 42.5 -36.5t29.5 -88.5q17 -66 24 -148t7 -173q0 -25 5 -34t22 -9q36 0 70 26t60.5 71.5t42 104t15.5 123.5q0 49 -7.5 79.5t-14.5 43.5q-10 19 -10 32q0 15 13.5 28.5t32.5 22.5t33 9q22 0 31.5 -18.5
t12 -45.5t2.5 -51q0 -69 -14.5 -144.5t-41.5 -147t-64.5 -129t-84.5 -92t-101 -34.5q-36 0 -53 16t-22 45t-5 68q0 23 0.5 43.5t0.5 37.5q-46 -103 -111 -156.5t-130 -53.5z" />
    <glyph glyph-name="X" unicode="X" horiz-adv-x="626" 
d="M86 -10q-39 0 -64.5 21t-25.5 56q0 31 18.5 53.5t39.5 22.5q9 0 14.5 -5t10.5 -14q5 -12 17 -18.5t25 -6.5q38 0 73 56t75 156q-31 101 -69 162.5t-94 61.5q-8 0 -17 -1.5t-19 -3.5q-10 -3 -21.5 12t-11.5 34q0 29 26.5 48t69.5 19q70 0 115 -56t80 -184
q27 67 63.5 121.5t82.5 86.5t99 32q63 0 63 -52q0 -28 -15.5 -50t-33.5 -22q-9 0 -23 7q-21 10 -39 10q-43 0 -83 -52q-42 -53 -85 -162q23 -65 48 -115t55 -78.5t68 -28.5q11 0 19.5 2t14.5 3q6 2 10 2q22 0 22 -31q0 -20 -11.5 -39.5t-34.5 -32.5q-25 -14 -57 -14
q-52 0 -86.5 28.5t-57.5 77.5q-24 50 -48 132q-44 -115 -93.5 -176.5t-119.5 -61.5z" />
    <glyph glyph-name="Y" unicode="Y" horiz-adv-x="545" 
d="M243 -4q-31 0 -47 13.5t-16 47.5q0 26 8.5 72.5t24.5 103.5q-8 40 -19.5 83.5t-26.5 82.5q-19 53 -46 89t-64 36q-7 0 -13.5 -1t-11.5 -3q-10 -2 -20.5 14t-10.5 38q0 28 19.5 49.5t53.5 21.5q42 0 77.5 -27.5t63 -92.5t44.5 -177q18 46 43.5 97.5t57.5 97t69 74t78 28.5
q27 0 41.5 -13t14.5 -36q0 -16 -6.5 -34t-17.5 -31t-23 -13q-4 0 -8.5 0.5t-9.5 2.5q-10 5 -23 5q-32 0 -70 -44t-75 -136q-38 -97 -38 -188q0 -21 5.5 -41.5t20.5 -37.5q10 -15 10 -28q0 -22 -24 -37.5t-61 -15.5z" />
    <glyph glyph-name="Z" unicode="Z" horiz-adv-x="552" 
d="M252 -10q-43 0 -86 2.5t-78 10t-56 24t-21 44.5q0 22 12.5 40t36.5 40q21 19 56.5 51.5t77.5 72.5t82.5 79.5t73 73.5t48.5 54q11 16 11 24q0 13 -20 20q-15 5 -45.5 8t-71.5 3q-27 0 -58.5 -3t-60 -9.5t-45.5 -17.5q-9 -6 -12 -10.5t-11 -4.5q-14 0 -31.5 21t-17.5 47
q0 28 22.5 45t59 25.5t80 11.5t85.5 3t86 -2t81 -10.5t59.5 -27.5t22.5 -53q0 -37 -27.5 -77.5t-70 -81t-86.5 -79.5q-52 -45 -104.5 -92t-90.5 -82q-9 -7 -9 -15q0 -13 19 -16q18 -2 47 -4t71 -2q79 0 116.5 11.5t55.5 21.5q11 7 18 10.5t14 3.5q11 0 28 -17t17 -46
q0 -32 -25.5 -51t-67 -29t-90 -13.5t-95.5 -3.5z" />
    <glyph glyph-name="bracketleft" unicode="[" horiz-adv-x="401" 
d="M256 -206q-19 0 -39 0.5t-39 1.5q-35 2 -42 27t-7 59q0 31 1.5 92.5t5.5 144.5t9 177q6 103 11 190t9.5 145.5t5.5 75.5q4 29 14.5 51t41.5 22q32 0 65.5 -0.5t60 -2.5t36.5 -7q9 -4 14.5 -20t5.5 -33q0 -28 -16 -35.5t-48 -9.5q-44 -3 -80 -9q-11 -43 -19.5 -103
t-14 -128t-8.5 -136q-2 -43 -3.5 -92t-1.5 -96q0 -60 2.5 -112t6.5 -83q18 -4 37.5 -7.5t41.5 -6.5q30 -4 45 -10t15 -29q0 -18 -7.5 -36.5t-20.5 -23.5q-9 -3 -31 -4.5t-51 -1.5z" />
    <glyph glyph-name="backslash" unicode="\" horiz-adv-x="367" 
d="M309 -196q-13 0 -22.5 10.5t-17.5 35.5q-10 30 -22 74.5t-30.5 113.5t-48.5 174q-13 46 -27.5 95.5t-28.5 94.5t-24 76q-10 35 -20 60.5t-16 38.5q-8 20 -15.5 32t-7.5 23q0 22 19.5 39.5t37.5 17.5q22 0 35.5 -28.5t29.5 -82.5q5 -16 13.5 -49.5t20 -77t24.5 -90.5
t26 -92q26 -88 43.5 -147t29 -96t18.5 -60q8 -22 15 -38t11 -27q8 -16 12.5 -26t4.5 -19q0 -24 -21 -38t-39 -14z" />
    <glyph glyph-name="bracketright" unicode="]" horiz-adv-x="402" 
d="M174 -206q-31 0 -64.5 0.5t-60 2.5t-37.5 6q-9 5 -14.5 21t-5.5 32q0 28 16 35.5t49 9.5q44 3 79 9q11 44 19.5 103.5t14.5 127.5t9 136q2 44 3 92.5t1 96.5q0 59 -2 111t-6 83q-18 4 -38 7.5t-42 6.5q-29 5 -44 11t-15 28q0 18 7 36.5t20 23.5q9 4 31.5 5.5t50.5 1.5
q42 0 79 -3q35 -2 42 -27t7 -59q0 -30 -2 -92t-5.5 -145t-9.5 -177q-5 -103 -10.5 -190t-9.5 -145t-6 -75q-3 -30 -13.5 -51.5t-42.5 -21.5z" />
    <glyph glyph-name="asciicircum" unicode="^" horiz-adv-x="499" 
d="M418 298q-10 0 -20 7q-9 6 -26.5 25.5t-39 45.5t-43 51.5t-36.5 44.5q-18 -20 -40 -45t-43.5 -49t-39 -42t-26.5 -24q-11 -8 -21 -8t-17.5 8t-7.5 22q0 8 2 18t8 20q9 18 28.5 47.5t42.5 61.5t43 58t29 36q25 25 46 25q15 0 28 -8.5t20 -19.5q8 -9 26.5 -35.5t40.5 -59.5
t40 -64t25 -50q5 -10 6 -18t1 -15q0 -14 -7.5 -23t-18.5 -9z" />
    <glyph glyph-name="underscore" unicode="_" horiz-adv-x="480" 
d="M0 -202v77h480v-77h-480z" />
    <glyph glyph-name="grave" unicode="`" horiz-adv-x="384" 
d="M210 456q-8 0 -19 6q-36 20 -70 42t-60 47q-10 10 -15.5 21.5t-5.5 20.5q0 21 17.5 36t33.5 15q23 0 46 -23q24 -24 46.5 -56t43.5 -65q2 -5 4 -11t2 -11q0 -22 -23 -22z" />
    <glyph glyph-name="a" unicode="a" horiz-adv-x="504" 
d="M162 -13q-60 0 -96.5 37.5t-36.5 107.5q0 50 19.5 99.5t56.5 89.5t89 64t117 24q60 0 102.5 -20.5t42.5 -55.5q0 -9 -2 -23.5t-5 -23.5q-3 -8 -8.5 -14.5t-14.5 -6.5q-4 0 -15 3q-4 -21 -6 -41t-2 -40q0 -38 11.5 -67.5t45.5 -36.5q9 -2 14.5 -6t5.5 -17q0 -11 -5.5 -28
t-21 -30.5t-44.5 -13.5q-39 0 -60 28.5t-21 81.5q-27 -49 -68.5 -80t-97.5 -31zM194 91q40 0 70.5 25t47.5 63q11 24 17 52.5t8 56.5q-17 8 -39 13t-46 5q-61 0 -100.5 -36t-39.5 -90q0 -40 22 -64.5t60 -24.5z" />
    <glyph glyph-name="b" unicode="b" horiz-adv-x="500" 
d="M240 -13q-37 0 -63.5 13t-46.5 33q-10 -17 -23.5 -30.5t-30.5 -13.5q-11 0 -21 6.5t-8 17.5q15 80 25.5 162t10.5 167q0 71 -5 133t-31 114q-5 10 -8.5 19t-3.5 17q0 19 22 37t47 18q36 0 49 -44t13 -130q0 -73 -6.5 -133.5t-14.5 -103.5q28 59 76.5 99.5t109.5 40.5
t95.5 -40.5t34.5 -109.5q0 -51 -16 -99.5t-45 -87.5t-69.5 -62t-90.5 -23zM263 95q57 0 88 36t31 83q0 41 -22.5 63.5t-59.5 22.5t-66 -22.5t-49 -59t-31 -78.5q23 -22 51.5 -33.5t57.5 -11.5z" />
    <glyph glyph-name="c" unicode="c" horiz-adv-x="410" 
d="M183 -13q-70 0 -109.5 42.5t-39.5 118.5q0 75 32 134t88 93t127 34q48 0 76 -16t28 -44q0 -25 -24 -49q-9 -9 -23.5 -16.5t-22.5 -7.5q-9 0 -15 7q-10 11 -26 21t-45 10q-49 0 -80 -33.5t-31 -87.5q0 -49 28 -79t74 -30q24 0 52.5 8.5t50.5 24.5q11 10 23 10q20 0 20 -25
q0 -33 -33 -63q-25 -23 -66.5 -37.5t-83.5 -14.5z" />
    <glyph glyph-name="d" unicode="d" horiz-adv-x="512" 
d="M163 -13q-60 0 -94.5 40t-34.5 109q0 51 16.5 100t46.5 88t70 62t87 23q30 0 53.5 -9t41.5 -23q-1 68 -7 122t-29 100q-4 8 -6.5 14.5t-2.5 12.5q0 14 11.5 26t28.5 20t32 8q27 0 40.5 -23.5t17.5 -64t4 -92.5q0 -76 -7 -137t-13 -107q-4 -30 -7 -52t-3 -36q0 -71 61 -84
q16 -3 16 -21q0 -11 -6.5 -28t-23.5 -30.5t-49 -13.5q-43 0 -58 29t-15 88q-28 -51 -71 -86t-99 -35zM194 94q28 0 56 18t50 49q13 19 23.5 43.5t19.5 49.5q-51 46 -113 46q-54 0 -86 -32.5t-32 -80.5q0 -41 24 -67t58 -26z" />
    <glyph glyph-name="e" unicode="e" horiz-adv-x="435" 
d="M195 -13q-76 0 -118.5 43.5t-42.5 121.5q0 71 31 129t83.5 92.5t115.5 34.5q60 0 96 -29.5t36 -78.5q0 -39 -24 -72t-64 -52.5t-89 -19.5q-60 0 -98 27q1 -46 31.5 -74t78.5 -28q29 0 59.5 10.5t52.5 28.5q14 12 26 12q10 0 16.5 -6.5t6.5 -16.5q0 -22 -38 -58
q-67 -64 -159 -64zM210 222q36 0 60 15t24 38q0 19 -16 29.5t-44 10.5q-37 0 -64.5 -19.5t-39.5 -54.5q14 -9 36 -14t44 -5z" />
    <glyph glyph-name="f" unicode="f" horiz-adv-x="306" 
d="M97 -192q-19 0 -29 9.5t-9 34.5q0 15 2.5 53.5t7 91t10 109.5t10.5 110t9 91q-10 -1 -19 -1.5t-18 -2.5q-10 -2 -15 -2q-12 0 -16 14.5t-4 27.5q0 15 4.5 25t19.5 16q9 4 23.5 7t30.5 5q5 59 15.5 112t32.5 90q23 38 62.5 60t80.5 22q30 0 56.5 -11.5t43 -32t16.5 -46.5
q0 -19 -9.5 -31t-21.5 -12q-5 0 -11 2l-12 4q-11 5 -27.5 8.5t-35.5 3.5q-39 0 -61.5 -21t-34 -57.5t-18.5 -84.5q21 2 45 4t39 2q24 0 37.5 -7.5t13.5 -28.5q0 -13 -4.5 -30.5t-13.5 -31t-21 -13.5q-5 0 -17 3q-13 2 -34 5t-53 4q-4 -43 -6.5 -95.5t-2.5 -110.5
q0 -63 4 -109t8 -75q2 -13 3 -23t1 -16q0 -29 -14 -44.5t-33 -21.5t-35 -6z" />
    <glyph glyph-name="g" unicode="g" horiz-adv-x="445" 
d="M168 -276q-75 0 -119 31t-44 80q0 36 22.5 64t59.5 28q21 0 21 -12q0 -7 -2.5 -16t-2.5 -18q0 -28 32 -41.5t77 -13.5q28 0 57 6t48.5 18.5t19.5 33.5q0 23 -23 34t-58 16.5t-71.5 10t-62.5 14.5q-33 11 -49 27t-16 41q0 47 57 75q-33 17 -49.5 48t-16.5 69q0 49 25.5 92
t76 70.5t126.5 27.5q34 0 69 -6.5t58.5 -24t23.5 -50.5q0 -12 -5 -26.5t-19 -14.5q-6 0 -16 2.5l-18 4.5q2 -10 3.5 -22t1.5 -25q0 -59 -40 -106.5t-117 -56.5q-28 -2 -41.5 -6.5t-13.5 -15.5q0 -10 12 -14.5t31 -6.5q61 -5 108 -17t73.5 -38.5t26.5 -75.5
q0 -57 -33.5 -98.5t-89.5 -64.5t-122 -23zM206 171q46 0 72 25t26 65q0 11 -2 22.5t-4 19.5q-16 5 -31 6.5t-29 1.5q-53 0 -83 -20t-30 -55q0 -31 22 -48t59 -17z" />
    <glyph glyph-name="h" unicode="h" horiz-adv-x="517" 
d="M79 -11q-14 0 -24 6.5t-8 17.5q15 80 25.5 162.5t10.5 166.5q0 74 -5 134t-32 115q-5 11 -8 19t-3 15q0 19 22.5 37t47.5 18q35 0 48 -44t13 -130q0 -103 -12 -179.5t-21 -116.5l4 -2q20 53 48.5 99t66.5 74t88 28q53 0 80.5 -32t27.5 -79q0 -20 -4 -38.5t-9 -35.5
q-5 -16 -9 -32.5t-4 -33.5q0 -31 15 -50.5t40 -27.5q7 -2 10.5 -5.5t3.5 -12.5t-6 -26t-22 -31.5t-47 -14.5q-40 0 -62 28.5t-22 73.5q0 22 4.5 45t10.5 44q5 21 9 39.5t4 31.5q0 46 -48 46q-40 0 -70.5 -28.5t-52 -72t-35.5 -89.5v-34q0 -37 -21.5 -61t-53.5 -24z" />
    <glyph glyph-name="i" unicode="i" horiz-adv-x="248" 
d="M122 497q-28 1 -45 17t-17 45q1 31 21 50.5t51 18.5q29 -1 45.5 -17t15.5 -45q-1 -30 -20 -49.5t-51 -19.5zM123 -10q-30 0 -47 16.5t-17 56.5q0 23 4.5 45t10.5 43q7 22 11.5 45t4.5 49q0 18 -5 34.5t-22 24.5q-13 7 -22.5 14.5t-9.5 19.5q0 14 13 30t34.5 27.5
t44.5 11.5q25 0 36.5 -13t15.5 -33t4 -41q0 -32 -5 -62.5t-10 -56.5q-4 -19 -6 -35t-2 -30q0 -25 12 -37.5t34 -23.5q9 -5 9 -15q0 -8 -8 -25t-27.5 -31t-52.5 -14z" />
    <glyph glyph-name="j" unicode="j" horiz-adv-x="246" 
d="M113 497q-28 1 -45 17t-16 45q1 31 21 50.5t51 18.5q29 -1 45 -17t15 -45q-1 -30 -20 -49.5t-51 -19.5zM-36 -276q-39 0 -67.5 21t-28.5 59q0 30 15.5 47t32.5 17q12 0 23 -10q9 -9 20.5 -14t28.5 -5q37 0 54.5 24.5t24.5 62.5q13 64 16 120t3 119t-4.5 96.5t-27.5 44.5
q-15 8 -22 14t-7 16q0 15 13.5 31t35.5 27t47 11q29 0 41.5 -15t16 -38t2.5 -49q-1 -107 -10.5 -203.5t-35.5 -181.5q-26 -91 -67.5 -142.5t-103.5 -51.5z" />
    <glyph glyph-name="k" unicode="k" horiz-adv-x="500" 
d="M76 -11q-11 0 -21 6.5t-8 17.5q15 80 25.5 162.5t10.5 166.5q0 74 -5 134t-32 115q-5 11 -8 19t-3 15q0 19 22 37t47 18q36 0 49 -44t13 -130q0 -103 -12 -179.5t-21 -116.5l4 -2q20 49 51 94.5t71.5 75.5t88.5 30q47 0 72.5 -28t25.5 -67q0 -46 -33 -82t-86 -60
q13 -34 37 -53.5t61 -19.5q12 0 20 2q13 3 13 -25q0 -16 -6 -36t-23.5 -34.5t-52.5 -14.5q-47 0 -76.5 27.5t-46 68t-25.5 80.5q-8 37 25 39q35 4 59 21t24 45q0 32 -31 32q-20 0 -40.5 -14.5t-38 -34.5t-28.5 -39q-15 -26 -26 -51t-18 -50v-40q0 -37 -21.5 -61t-56.5 -24z
" />
    <glyph glyph-name="l" unicode="l" horiz-adv-x="228" 
d="M112 -10q-29 0 -43 16t-14 56q0 19 3 49t7 65q6 43 10.5 90t4.5 90q0 61 -5.5 126.5t-30.5 114.5q-9 20 -9 29q0 13 11.5 25t28.5 20.5t33 8.5q26 0 39 -23.5t17 -64t4 -92.5q0 -79 -6.5 -137t-12.5 -102q-4 -29 -7.5 -55t-3.5 -47q0 -35 11.5 -50.5t37.5 -30.5
q7 -4 10.5 -7.5t3.5 -10.5q0 -8 -8 -25t-27.5 -31t-53.5 -14z" />
    <glyph glyph-name="m" unicode="m" horiz-adv-x="766" 
d="M94 -11q-36 0 -32 24q11 43 18.5 87.5t7.5 85.5q0 53 -6.5 77.5t-17.5 34t-27 14.5q-7 3 -12.5 8t-5.5 14q0 14 11 31t31.5 29.5t46.5 12.5q34 0 47 -23.5t13 -61.5q0 -25 -5 -56t-10 -56l2 -1q16 53 39.5 98t57 73t77.5 28q45 0 71 -30.5t26 -89.5v-22q29 61 70.5 102
t100.5 41q48 0 75 -32t27 -80q0 -19 -4 -36.5t-9 -34.5q-4 -16 -8 -33t-4 -34q0 -60 51 -78q7 -3 11 -6.5t4 -12.5t-5.5 -26t-21.5 -31.5t-46 -14.5q-39 0 -60 28.5t-21 72.5q0 22 4 46t10 46q5 20 8.5 38t3.5 31q0 24 -11.5 35t-30.5 11q-32 0 -57.5 -20t-45 -52t-33.5 -70
q1 -9 1.5 -23.5t0.5 -25.5q0 -19 -2.5 -40t-9.5 -35q-8 -19 -23.5 -31t-41.5 -12q-11 0 -21 4.5t-10 14.5q0 4 6 35.5t12 77.5t6 90q0 48 -10 66.5t-30 18.5q-25 0 -47.5 -21t-41 -54t-32 -69t-21.5 -67v-11q0 -37 -20.5 -61t-55.5 -24z" />
    <glyph glyph-name="n" unicode="n" horiz-adv-x="536" 
d="M94 -11q-36 0 -32 24q11 43 18.5 87.5t7.5 85.5q0 53 -6.5 77.5t-17.5 34t-27 14.5q-7 3 -12.5 8t-5.5 14q0 14 11 31t31.5 29.5t46.5 12.5q34 0 47 -23.5t13 -61.5q0 -25 -5 -56t-10 -56l3 -1q20 53 48.5 98.5t66.5 73.5t88 28q53 0 81 -32t28 -80q0 -20 -4.5 -38
t-9.5 -35q-5 -16 -8.5 -33t-3.5 -34q0 -57 54 -77q14 -6 14 -18q0 -9 -6 -26t-22 -31.5t-47 -14.5q-40 0 -62 28.5t-22 72.5q0 25 5.5 50.5t11.5 47.5q4 17 7.5 33.5t3.5 29.5q0 46 -48 46q-41 0 -72 -30.5t-53 -76.5t-36 -93v-24q0 -37 -20.5 -61t-55.5 -24z" />
    <glyph glyph-name="o" unicode="o" horiz-adv-x="456" 
d="M196 -13q-69 0 -110.5 37.5t-41.5 110.5q0 34 9.5 66t25.5 60q-16 -10 -24 -10q-12 0 -16.5 13.5t-4.5 26.5q0 23 9.5 36.5t18.5 20.5q21 18 66 39.5t108 21.5q86 0 133.5 -48t47.5 -134q0 -67 -28 -121.5t-77.5 -86.5t-115.5 -32zM227 89q50 0 84.5 31.5t34.5 83.5
q0 54 -35 77t-81 23q-21 0 -38 -4t-32 -10q-14 -20 -25 -45t-11 -55q0 -50 30 -75.5t73 -25.5z" />
    <glyph glyph-name="p" unicode="p" horiz-adv-x="516" 
d="M101 -276q-30 0 -47 16.5t-17 59.5q0 29 6.5 73t15.5 93q7 39 13.5 82t11 84.5t4.5 74.5q0 38 -8.5 66t-34.5 36q-10 4 -18 9t-8 16q0 14 11 31t31.5 29.5t46.5 12.5q34 0 47 -23.5t13 -61.5q0 -11 -1 -22.5t-3 -23.5q29 56 76.5 94.5t107.5 38.5t94.5 -40.5t34.5 -109.5
q0 -51 -16 -99.5t-45 -87.5t-69.5 -62t-90.5 -23q-36 0 -63 12.5t-47 32.5q-4 -26 -7.5 -63t-3.5 -69q0 -37 8.5 -58t33.5 -32q11 -5 11 -16q0 -8 -8 -25t-26.5 -31t-52.5 -14zM279 95q57 0 88 36t31 83q0 41 -22 63.5t-59 22.5q-38 0 -67 -22.5t-49.5 -58.5t-33.5 -77
q50 -47 112 -47z" />
    <glyph glyph-name="q" unicode="q" horiz-adv-x="465" 
d="M327 -276q-28 0 -44.5 16t-17.5 60q-1 46 13.5 120.5t31.5 154.5q-28 -40 -63.5 -64t-83.5 -24q-60 0 -94.5 41t-34.5 115q0 49 15 96t45 85.5t75 61.5t104 23q37 0 68.5 -10t51.5 -27q17 -14 21 -26t4 -26q0 -29 -5.5 -71t-13.5 -83t-14 -70q-9 -47 -14.5 -99.5
t-5.5 -96.5q0 -32 6 -53.5t30 -34.5q6 -3 10.5 -6.5t4.5 -10.5q0 -8 -8 -25.5t-27 -31.5t-54 -14zM194 94q28 0 56 17.5t50 48.5q15 23 26 52t13 63q-16 8 -43.5 16.5t-59.5 8.5q-59 0 -91.5 -32.5t-32.5 -79.5q0 -42 24 -68t58 -26z" />
    <glyph glyph-name="r" unicode="r" horiz-adv-x="349" 
d="M98 -11q-16 0 -25.5 5.5t-6.5 18.5q11 43 18.5 87.5t7.5 85.5q0 53 -6.5 77.5t-17.5 34t-27 14.5q-7 3 -12.5 8t-5.5 14q0 14 11 31t31 29.5t46 12.5q34 0 47.5 -23.5t13.5 -61.5q18 40 44.5 63.5t66.5 23.5q27 0 45 -12t18 -39t-17.5 -50.5t-35.5 -23.5q-3 0 -7 1t-7 5
q-13 16 -32 16q-29 0 -51 -38t-24 -105q1 -25 1.5 -51t0.5 -38q0 -37 -20.5 -61t-55.5 -24z" />
    <glyph glyph-name="s" unicode="s" horiz-adv-x="398" 
d="M170 -13q-37 0 -69 11t-52 31t-20 48q0 15 7.5 28.5t24.5 13.5q9 0 19 -5q18 -10 46 -18.5t59 -8.5q35 0 62 10t27 28q0 14 -20.5 20t-68.5 13q-33 6 -64 14t-51 27.5t-20 57.5q0 37 20.5 71.5t61.5 57.5t100 23q31 0 60 -7t48 -21t19 -35q0 -18 -12.5 -33t-29 -24.5
t-27.5 -9.5q-8 0 -19 11q-17 14 -37.5 19.5t-40.5 5.5q-30 0 -48.5 -9t-18.5 -23q0 -13 15.5 -21t38.5 -11.5t44 -6.5q58 -8 92 -27.5t34 -68.5q0 -38 -21.5 -75.5t-62 -61.5t-96.5 -24z" />
    <glyph glyph-name="t" unicode="t" horiz-adv-x="335" 
d="M184 -13q-61 0 -87.5 40.5t-26.5 104.5q0 23 2.5 45t5.5 44t6 43t5 40q-21 -6 -42 -6q-22 0 -22 18q0 19 17 46.5t42.5 54.5t51 45.5t43.5 18.5q22 0 22 -38q0 -10 -1.5 -20.5t-3.5 -21.5q19 4 38.5 7t37.5 3q23 0 35.5 -8t12.5 -31q0 -24 -11.5 -48t-25.5 -24
q-3 0 -10 1t-17 3q-13 3 -33 6t-48 3q-7 -31 -12.5 -63.5t-5.5 -58.5q0 -58 29 -79t84 -21q17 0 24 -5.5t7 -19.5q0 -33 -34 -56t-83 -23z" />
    <glyph glyph-name="u" unicode="u" horiz-adv-x="517" 
d="M163 -13q-50 0 -77.5 29t-27.5 84q0 39 11 80q5 17 8 34t3 34q0 44 -27 57q-26 14 -26 30t13.5 32t33.5 26.5t40 10.5q57 0 57 -93q0 -30 -4.5 -55.5t-10.5 -48.5q-4 -16 -6.5 -32t-2.5 -28q0 -50 49 -50q46 0 86 49t66 137l-1 19q-2 50 17.5 76t57.5 26q33 0 33 -21
q0 -7 -2.5 -18t-7.5 -26q-10 -37 -17 -78.5t-7 -76.5q0 -39 12 -64.5t45 -34.5q9 -1 14.5 -5.5t5.5 -18.5q0 -24 -20 -47t-58 -23q-73 0 -73 103q0 18 3 54l-2 1q-63 -162 -185 -162z" />
    <glyph glyph-name="v" unicode="v" horiz-adv-x="447" 
d="M179 -14q-27 0 -46.5 16.5t-23.5 61.5q-2 34 -8.5 75t-16.5 78t-23 58q-7 11 -15.5 16.5t-25.5 7.5q-11 1 -15 7t-4 19q0 41 22.5 60.5t51.5 19.5q30 0 50 -19.5t31 -51.5t15.5 -70.5t4.5 -77.5q0 -16 -0.5 -33.5t-0.5 -29.5q0 -11 4.5 -17t17.5 -6q16 0 37 9.5
t41.5 27.5t34 42.5t13.5 54.5q0 17 -5.5 36t-17.5 32t-17.5 20.5t-5.5 17.5q0 18 16.5 33t39 24t39.5 9q29 0 37 -24t8 -53q0 -55 -20 -115t-54 -112t-76.5 -84t-87.5 -32z" />
    <glyph glyph-name="w" unicode="w" horiz-adv-x="676" 
d="M175 -14q-28 0 -47.5 16.5t-22.5 61.5q-2 34 -8.5 76t-15.5 79t-21 56q-7 11 -15.5 16.5t-25.5 7.5q-18 1 -18 26q0 41 22 60.5t50 19.5q30 0 49 -19.5t29.5 -52t15 -72.5t4.5 -81q0 -15 -0.5 -29.5t-0.5 -28.5q0 -10 4 -16.5t20 -6.5q22 0 52 11.5t52.5 38.5t22.5 72
q0 23 -7 38.5t-19 29.5q-4 5 -7 10t-3 12q0 19 15.5 30.5t35 17t32.5 5.5t20.5 -6.5t11.5 -25.5q4 -13 6 -28.5t2 -35.5q0 -31 -2.5 -50t-5.5 -34q-3 -13 -4.5 -25.5t-1.5 -29.5q0 -18 7 -24t22 -6q57 0 93 39.5t36 96.5q0 20 -6 37.5t-21 33.5q-8 10 -13 16.5t-5 16.5
q0 18 16.5 33t39 24.5t40.5 9.5q27 0 35 -25t8 -57q0 -54 -15.5 -112.5t-44.5 -110t-71 -83.5t-95 -32q-54 0 -74 31t-17 75q-30 -46 -70.5 -76t-83.5 -30z" />
    <glyph glyph-name="x" unicode="x" horiz-adv-x="459" 
d="M76 -10q-33 0 -54.5 17t-21.5 48q0 32 19.5 52.5t35.5 20.5q11 0 16 -12q6 -11 15 -15t18 -4q26 0 46 25t37 68q-16 44 -45 75.5t-71 31.5q-6 0 -10 -0.5t-7 -0.5q-7 0 -15 9.5t-8 31.5q0 35 23 52t51 17q42 0 77 -36.5t57 -92.5q19 35 45.5 64.5t57 47t59.5 17.5
q27 0 38 -13.5t11 -30.5q0 -16 -7 -33t-17 -29t-21 -12q-6 0 -14 3q-7 2 -17 4.5t-21 2.5q-25 0 -43.5 -19t-44.5 -69q11 -27 29 -52.5t43.5 -42.5t58.5 -17q6 0 11 0.5t9 0.5q6 0 9.5 -4.5t3.5 -19.5q0 -18 -7 -37.5t-25 -33.5t-52 -14q-37 0 -62 19t-40.5 50t-26.5 65
q-27 -58 -57.5 -96t-82.5 -38z" />
    <glyph glyph-name="y" unicode="y" horiz-adv-x="483" 
d="M66 -276q-41 0 -70.5 22t-29.5 59q0 29 17.5 49.5t43.5 20.5q12 0 17 -4t8 -9q8 -13 18.5 -22.5t28.5 -9.5q24 0 46.5 17t41.5 39q17 19 41 54.5t48 80.5q-22 -19 -41 -27.5t-36 -8.5q-21 0 -41 15.5t-25 58.5q-3 33 -11.5 73t-21 77.5t-30.5 63.5q-7 12 -16 18t-26 8
q-12 1 -15.5 7t-3.5 19q0 36 20 58t54 22q41 0 59 -31.5t31 -76.5q5 -18 10.5 -47.5t10 -63.5t6.5 -65q1 -22 25 -22q32 0 61 20t47.5 52t18.5 67q0 20 -5 36t-17 28q-10 12 -16 19.5t-6 17.5q0 17 16 32t38.5 25t39.5 10q30 0 40 -28.5t5 -62.5q-6 -47 -24 -111t-46.5 -134
t-65 -135.5t-77.5 -114.5q-35 -43 -78 -69.5t-90 -26.5z" />
    <glyph glyph-name="z" unicode="z" horiz-adv-x="434" 
d="M203 -11q-35 0 -63 2t-49 6q-22 4 -35.5 11t-21.5 16q-6 7 -10 19t-4 22q0 32 25.5 54t59.5 45l133 92q27 21 27 30q0 22 -60 22q-40 0 -64 -9.5t-33 -22.5q-6 -7 -10.5 -10.5t-12.5 -3.5q-15 0 -30.5 16.5t-15.5 44.5q0 33 25 51t65.5 25.5t86.5 7.5q50 0 85.5 -5.5
t57.5 -19.5q17 -10 25.5 -28t8.5 -38q0 -34 -34.5 -64t-95.5 -67l-112 -68q-10 -6 -10 -14q0 -11 14 -12q10 -1 25 -1.5t33 -0.5q81 0 126 21q17 9 24 9q11 0 21.5 -13.5t10.5 -34.5q0 -48 -53 -65t-139 -17z" />
    <glyph glyph-name="braceleft" unicode="{" horiz-adv-x="404" 
d="M228 -206q-52 0 -79.5 38.5t-27.5 94.5q0 29 7 69t16 78q7 31 11.5 58t4.5 43q0 27 -16 45t-43 27q-23 7 -23 33q0 37 26 44q26 9 48 32.5t22 63.5q0 30 -8 78q-4 29 -7 60t-3 58q0 45 14.5 81.5t42 58t64.5 21.5q36 0 64 -19t28 -43q0 -10 -7.5 -21t-24.5 -14
q-54 -12 -75 -39.5t-21 -76.5q0 -24 4.5 -45t9.5 -41q5 -17 8.5 -33.5t3.5 -34.5q0 -38 -16 -64.5t-37 -41t-37 -18.5q15 -3 33 -14t31.5 -32.5t13.5 -54.5q0 -22 -6 -43.5t-14 -44.5q-9 -27 -16.5 -56t-7.5 -63q0 -35 20.5 -56.5t65.5 -30.5q15 -4 21 -12.5t6 -18.5
q0 -16 -14 -31.5t-35.5 -25t-46.5 -9.5z" />
    <glyph glyph-name="bar" unicode="|" horiz-adv-x="246" 
d="M108 -202q-23 0 -36.5 12t-13.5 49q0 23 1.5 49.5t5.5 63.5q4 41 8.5 98.5t9.5 139.5q3 49 5 101.5t3 100.5t1 85q0 42 -3.5 69t-8.5 46q-3 11 -3 13q0 11 20 26.5t46 15.5q28 0 35.5 -28t7.5 -92q0 -17 -2.5 -51t-5.5 -76q-4 -43 -7.5 -90t-5.5 -89q-4 -90 -7 -150
t-4 -98t-1 -63q0 -24 3 -42.5t6 -30.5q2 -6 3 -11.5t1 -10.5q0 -14 -16 -25.5t-42 -11.5z" />
    <glyph glyph-name="braceright" unicode="}" horiz-adv-x="403" 
d="M126 -206q-36 0 -63.5 18.5t-27.5 42.5q0 10 7.5 21t23.5 15q54 11 75 38.5t21 76.5q0 24 -4 45.5t-10 40.5q-5 17 -8.5 33.5t-3.5 34.5q0 39 16 65t37.5 40.5t37.5 18.5q-15 3 -33.5 14.5t-32 33t-13.5 53.5q0 23 6 44.5t14 43.5q9 27 16.5 56t7.5 63q0 35 -20.5 56.5
t-64.5 31.5q-16 3 -22 11.5t-6 18.5q0 17 14 32t36 25t47 10q51 0 78.5 -39t27.5 -95q0 -29 -7 -69t-16 -78q-6 -31 -11 -57.5t-5 -42.5q0 -28 16 -46t43 -26q14 -4 18.5 -12t4.5 -22q0 -35 -25 -44q-26 -9 -48.5 -32t-22.5 -64q0 -28 8 -78q5 -28 8 -59.5t3 -58.5
q0 -44 -14.5 -80.5t-42 -58t-65.5 -21.5z" />
    <glyph glyph-name="asciitilde" unicode="~" horiz-adv-x="493" 
d="M319 190q-23 0 -45.5 8t-42.5 16q-18 8 -35.5 14t-34.5 6q-19 0 -30.5 -7t-20.5 -15q-6 -6 -13 -10t-15 -4t-17 6t-9 24q0 23 16 44.5t42.5 35.5t57.5 14q24 0 45.5 -7.5t42.5 -15.5q17 -7 35 -13.5t34 -6.5q20 0 35 10t24 22q9 13 20 13t20.5 -9.5t9.5 -26.5
q0 -24 -17 -46.5t-44 -37t-58 -14.5z" />
    <glyph glyph-name="uni00A0" unicode="&#xa0;" horiz-adv-x="290" 
 />
    <glyph glyph-name="exclamdown" unicode="&#xa1;" horiz-adv-x="258" 
d="M140 276q-28 0 -45 17.5t-16 45.5q1 30 20.5 49t48.5 17q29 -1 46 -19t16 -46q-1 -30 -21 -47.5t-49 -16.5zM93 -197q-35 1 -44 27t-7 84q2 43 8.5 94.5t15.5 96.5t15 69q11 37 23 45.5t30 7.5q17 -1 22.5 -6.5t5.5 -17.5q0 -3 -0.5 -9t-1.5 -15q-2 -19 -4 -48.5
t-4 -64.5q-3 -85 3.5 -127t10.5 -62q2 -7 2.5 -12t0.5 -10q0 -15 -19.5 -34t-56.5 -18z" />
    <glyph glyph-name="cent" unicode="&#xa2;" horiz-adv-x="456" 
d="M234 -72q-16 0 -22.5 8.5t-6.5 33.5q0 7 0.5 16t1.5 19q-67 5 -107 50t-40 125q0 55 21 103t58.5 83t88.5 51q-1 15 -2.5 28.5t-1.5 24.5q0 13 12 22.5t33 9.5q19 0 24 -18.5t3 -56.5q57 0 88.5 -17.5t31.5 -43.5q0 -13 -7.5 -25.5t-16.5 -21.5t-18.5 -15.5t-18.5 -6.5
q-13 0 -27 12q-7 6 -16 11t-22 9q-2 -29 -4.5 -72.5t-4.5 -85.5t-3 -69q26 5 46.5 14.5t33.5 17.5q13 10 25 10q20 0 20 -27q0 -14 -6.5 -29.5t-23.5 -29.5q-36 -35 -97 -47q1 -17 1.5 -28.5t0.5 -19.5q0 -17 -12 -26t-32 -9zM215 106q2 27 4.5 69t5 84.5t3.5 71.5
q-43 -9 -65 -42t-22 -73q0 -43 21 -71.5t53 -38.5z" />
    <glyph glyph-name="sterling" unicode="&#xa3;" horiz-adv-x="508" 
d="M84 -8q-21 0 -35 16t-14 46q0 43 23.5 67.5t59.5 29.5q8 20 15 45t7 54q0 11 -1.5 21t-3.5 20q-10 -1 -25 -1.5t-26 -0.5q-17 0 -28 3.5t-11 16.5q0 20 11 33.5t24 13.5q4 0 14.5 -0.5t18.5 -1.5q-6 21 -9.5 40t-3.5 38q0 59 28 106.5t74.5 76t101.5 28.5q37 0 70.5 -13
t54.5 -36.5t21 -55.5q0 -29 -16.5 -43.5t-28.5 -14.5q-7 0 -14 4.5t-19 14.5q-18 15 -42.5 31t-59.5 16q-37 0 -62 -20.5t-25 -54.5q0 -14 5 -29.5t12 -30.5q14 -31 22 -57q41 2 79.5 3.5t69.5 1.5q22 0 29.5 -6t7.5 -20q0 -23 -10.5 -34.5t-26.5 -11.5q-13 0 -53 1.5
t-85 3.5q0 -34 -10 -71t-31 -88q32 -15 64 -25t80 -10q26 0 56 6t57 28q11 9 18 9q11 0 17.5 -17.5t6.5 -34.5q0 -21 -12 -43.5t-39 -37.5t-73 -15q-51 0 -107 16.5t-104 38.5q-13 -23 -31 -39.5t-41 -16.5z" />
    <glyph glyph-name="currency" unicode="&#xa4;" horiz-adv-x="476" 
d="M82 18q-15 0 -30.5 15t-15.5 30t14 28q8 8 18 16l20 16q-7 16 -12 36t-5 44q0 30 8 56.5t21 49.5q-13 9 -25 19t-21 20q-17 15 -17 30q0 14 15.5 30t31.5 16q15 0 26 -14q21 -21 39 -48q22 15 47.5 23.5t54.5 8.5q22 0 43.5 -5.5t40.5 -16.5q8 10 15.5 18.5t15.5 16.5
q14 15 30 15q15 0 30.5 -15t15.5 -31q0 -14 -14 -27q-16 -16 -40 -32q8 -16 12.5 -35.5t4.5 -42.5q0 -28 -7 -55t-21 -50q29 -18 49 -40q17 -15 17 -30q0 -13 -15.5 -29.5t-31.5 -16.5q-15 0 -26 14q-11 11 -20.5 23.5t-19.5 26.5q-22 -16 -48.5 -25.5t-56.5 -9.5
q-45 0 -83 20q-7 -8 -14.5 -17t-15.5 -15q-15 -17 -30 -17zM239 136q38 1 64.5 23.5t26.5 62.5q0 41 -28 62t-64 21q-38 0 -65 -22.5t-28 -62.5q0 -42 29.5 -63t64.5 -21z" />
    <glyph glyph-name="yen" unicode="&#xa5;" horiz-adv-x="565" 
d="M249 -4q-32 0 -47.5 13.5t-15.5 47.5q0 17 3 41t10 55l-141 -1q-17 0 -17 17q0 24 11.5 36t23.5 12q8 0 31 -0.5t52 -1t54 -1.5l6 19q-3 14 -6.5 29.5t-8.5 31.5l-139 -1q-16 0 -16 17q0 24 11 36t24 12q11 0 39.5 -0.5t64.5 -2.5q-4 12 -7 23t-8 21q-19 53 -46.5 89
t-64.5 36q-6 0 -12.5 -1t-12.5 -3q-9 -2 -19.5 14t-10.5 38q0 28 19.5 49.5t53.5 21.5q42 0 77.5 -27.5t63 -92.5t44.5 -177q18 46 43.5 97.5t57.5 97t69 74t78 28.5q27 0 41 -13t14 -36q0 -16 -6.5 -34t-17 -31t-23.5 -13q-4 0 -8 0.5t-9 2.5t-10 3.5t-13 1.5
q-31 0 -68 -40.5t-72 -126.5q28 2 54.5 2.5t47.5 0.5q26 0 32 -6.5t6 -18.5q0 -23 -11 -34t-24 -11q-20 0 -55 1t-71 3q-7 -20 -11.5 -40t-7.5 -40q35 2 70 3t64 1q26 0 32 -6.5t6 -17.5q0 -22 -11 -33.5t-23 -11.5q-22 0 -62 1.5t-79 2.5q1 -21 6 -40.5t20 -35.5
q10 -15 10 -28q0 -22 -24 -37.5t-61 -15.5z" />
    <glyph glyph-name="brokenbar" unicode="&#xa6;" horiz-adv-x="246" 
d="M130 315q-20 0 -31 7t-10 26q2 41 2.5 80t0.5 69q0 50 -4.5 75t-7.5 38q-3 9 -3 15q0 11 20 26.5t46 15.5q28 0 35.5 -28t7.5 -92q0 -24 -4 -80.5t-10 -119.5q-2 -20 -13.5 -26t-28.5 -6zM111 -202q-28 0 -40.5 12t-12.5 49q0 39 5.5 108t13.5 155q2 21 14 27t29 6
q20 0 30 -7.5t9 -26.5q-3 -74 -4.5 -118t-1.5 -73q0 -22 2.5 -40t6.5 -32q2 -6 3 -12t1 -11q0 -14 -17.5 -25.5t-37.5 -11.5z" />
    <glyph glyph-name="section" unicode="&#xa7;" horiz-adv-x="485" 
d="M188 -198q-40 0 -74.5 14t-55 40t-20.5 60q0 20 8.5 35t22.5 15q12 0 22 -9q19 -19 51.5 -34.5t68.5 -15.5q48 0 77.5 21.5t29.5 58.5q0 36 -29 50t-81 28q-41 11 -79 28.5t-62 50.5t-24 87q0 46 20.5 81.5t53.5 59.5q-13 17 -21.5 37t-8.5 48q0 47 24.5 93t71 76.5
t112.5 30.5q54 0 92 -21t38 -59q0 -28 -18 -44.5t-32 -16.5q-8 0 -19 7q-10 7 -38.5 19t-63.5 12q-41 0 -63.5 -20t-22.5 -43t20 -40t53.5 -29t71.5 -24q59 -18 95 -50.5t36 -97.5q0 -49 -18.5 -85.5t-51.5 -62.5q26 -29 26 -87q0 -56 -26 -104.5t-73.5 -78.5t-112.5 -30z
M314 144q20 16 33 35.5t13 45.5q0 38 -28.5 52.5t-80.5 28.5q-20 6 -39.5 12.5t-37.5 14.5q-22 -16 -35 -34t-13 -42q0 -29 20.5 -47t54 -30t71.5 -23q11 -2 21.5 -5.5t20.5 -7.5z" />
    <glyph glyph-name="dieresis" unicode="&#xa8;" horiz-adv-x="384" 
d="M89 482q-26 0 -41.5 15t-15.5 43q0 29 18.5 47.5t46.5 18.5q26 0 41.5 -15t15.5 -43t-17.5 -47t-47.5 -19zM288 482q-27 0 -42.5 15t-15.5 43q0 29 18.5 47.5t47.5 18.5q26 0 41 -15t15 -43t-17.5 -47t-46.5 -19z" />
    <glyph glyph-name="copyright" unicode="&#xa9;" horiz-adv-x="712" 
d="M335 -13q-51 0 -100 16t-88.5 50t-63 87t-23.5 126q0 96 41 172.5t112.5 120.5t163.5 44q51 0 100 -16.5t88.5 -50.5t63 -86.5t23.5 -125.5q0 -72 -23.5 -133t-66 -107t-100.5 -71.5t-127 -25.5zM356 76q65 1 117.5 28t83.5 76.5t31 116.5q0 71 -33 119.5t-86.5 74
t-113.5 25.5q-63 0 -114 -28.5t-80.5 -79t-29.5 -117.5q0 -71 31 -119t83 -72t111 -24zM325 133q-55 0 -87 32.5t-32 89.5q0 56 27.5 103t72.5 75.5t98 28.5q35 0 57 -12.5t22 -34.5q0 -10 -5.5 -20t-14.5 -19q-6 -5 -16.5 -12.5t-18.5 -7.5q-5 0 -9.5 4t-9.5 8
q-10 9 -20.5 14t-24.5 5q-36 0 -62 -29t-26 -70q0 -35 21.5 -56.5t55.5 -21.5q23 0 44.5 9.5t34.5 16.5q4 2 9 5t10 3q17 0 17 -20q0 -27 -26 -50q-19 -18 -52 -29.5t-65 -11.5z" />
    <glyph glyph-name="ordfeminine" unicode="&#xaa;" horiz-adv-x="332" 
d="M108 336q-40 0 -64.5 24.5t-24.5 70.5q0 45 23 87t64.5 69t98.5 27q40 0 69 -14t29 -43q0 -13 -6 -32t-15 -19q-4 0 -12 4q-3 -22 -3 -45q0 -26 8.5 -44t27.5 -22q15 -2 15 -14q0 -7 -4 -19t-14 -21t-29 -9q-28 0 -41 20.5t-13 50.5v2q-18 -32 -45.5 -52.5t-63.5 -20.5z
M132 417q22 0 38.5 13.5t26.5 34.5q7 14 10 29t4 31q-9 5 -21.5 8t-25.5 3q-34 0 -56 -20t-22 -51q0 -22 12.5 -35t33.5 -13z" />
    <glyph glyph-name="guillemotleft" unicode="&#xab;" horiz-adv-x="474" 
d="M217 22q-14 0 -32 12q-17 12 -40 34.5t-43 45t-29 34.5q-20 24 -20 48q0 13 5.5 27t18.5 29q11 12 32.5 35t46.5 46t44 35q8 5 17 7t13 2q15 0 20.5 -7.5t5.5 -15.5q0 -4 -2 -10.5t-4 -11.5q-6 -11 -23 -33t-37.5 -48t-39.5 -50q17 -23 35 -50t32.5 -49t19.5 -34
q6 -12 6 -21q0 -11 -7.5 -18t-18.5 -7zM392 22q-15 0 -32 12q-18 12 -40.5 34.5t-42.5 45t-29 34.5q-21 24 -21 48q0 13 5.5 27t18.5 29q11 12 33 35t47 46t43 35q9 5 17.5 7t13.5 2q14 0 20 -7.5t6 -15.5q0 -10 -7 -22q-6 -11 -22.5 -33t-37 -48t-40.5 -50q17 -23 35.5 -50
t33 -49t19.5 -34q6 -12 6 -21q0 -11 -7.5 -18t-18.5 -7z" />
    <glyph glyph-name="logicalnot" unicode="&#xac;" horiz-adv-x="499" 
d="M375 119q-25 0 -25 26v130h-276q-26 0 -26 24q0 10 3 24t11 25t22 11h321q32 0 32 -33v-170q0 -15 -11.5 -23t-26 -11t-24.5 -3z" />
    <glyph glyph-name="uni00AD" unicode="&#xad;" horiz-adv-x="329" 
d="M44 153q-15 0 -15 29q0 17 3.5 35.5t11.5 30.5q2 3 7 6.5t14 3.5h216q12 0 15.5 -5.5t3.5 -16.5t-3 -28t-10 -30t-19 -13h-89q-35 0 -64 -3t-48 -6q-15 -3 -23 -3z" />
    <glyph glyph-name="registered" unicode="&#xae;" horiz-adv-x="384" 
d="M179 314q-40 0 -77.5 17.5t-61.5 54t-24 94.5q0 57 24.5 102.5t67.5 71.5t97 26q40 0 77.5 -17.5t61.5 -54t24 -94.5q0 -56 -24 -101.5t-66.5 -72t-98.5 -26.5zM191 370q56 1 95.5 35t39.5 91q0 42 -19.5 70.5t-50.5 43.5t-65 15q-55 -1 -93 -36.5t-38 -94.5
q0 -41 18.5 -69t48.5 -41.5t64 -13.5zM144 416q-21 0 -21 23q0 13 4 33.5t4 48.5v14h-3q-11 0 -11 14q0 18 21 28q11 5 25 8t30 3q29 0 46.5 -13t18.5 -37q1 -22 -12.5 -36t-34.5 -18q14 -17 26 -22.5t29 -5.5q9 0 9 -13t-8.5 -20t-22.5 -7q-18 0 -36.5 16.5t-28.5 45.5
q-1 5 -2.5 9.5t-1.5 6.5q0 7 6 13q5 4 18 4q11 0 18.5 6t7.5 13q0 18 -32 18q-6 0 -12 -0.5t-11 -1.5q-1 -18 -4.5 -39.5t-3.5 -38.5q0 -15 6 -20q7 -6 7 -11q0 -10 -9 -15.5t-22 -5.5z" />
    <glyph glyph-name="macron" unicode="&#xaf;" horiz-adv-x="384" 
d="M70 493q-8 -1 -14.5 9.5t-6.5 26.5q0 14 4.5 27t17.5 18q9 3 35.5 5.5t61 4t67 2.5t53.5 1q23 0 35 -5.5t12 -25.5t-7 -42t-21 -21q-21 2 -53.5 3.5t-67.5 0.5q-27 0 -62 -1t-54 -3z" />
    <glyph glyph-name="degree" unicode="&#xb0;" horiz-adv-x="336" 
d="M158 383q-42 0 -76 28t-34 89q0 62 36 103t94 41q44 0 77 -27t33 -89t-35.5 -103.5t-94.5 -41.5zM169 454q26 0 44.5 16t18.5 45t-19 44t-44 15q-26 0 -45 -16.5t-19 -45.5q0 -30 20 -44t44 -14z" />
    <glyph glyph-name="plusminus" unicode="&#xb1;" horiz-adv-x="499" 
d="M226 124q-14 0 -20.5 5.5t-5.5 20.5l6 112l-121 -1q-14 0 -19.5 6t-5.5 19q0 10 3.5 24.5t11.5 26t20 10.5l116 -3v92q0 17 13 25.5t29 11.5t25 3q14 0 20 -5.5t5 -20.5l-6 -104l119 2q15 0 20 -6t5 -18q0 -9 -4 -24t-11.5 -27t-18.5 -12l-116 2l2 -107q0 -12 -12.5 -19
t-28.5 -10t-26 -3zM90 4q-26 0 -26 24q0 10 3 24.5t11 25.5t23 11h309q15 0 20 -5.5t5 -17.5q0 -9 -3.5 -23.5t-10.5 -26.5t-18 -12h-313z" />
    <glyph glyph-name="uni00B2" unicode="&#xb2;" horiz-adv-x="338" 
d="M161 297q-51 0 -83.5 5t-43.5 20q-5 6 -7.5 13.5t-2.5 14.5q0 10 4.5 16.5t17.5 13.5q62 35 115 97q50 59 50 107q0 26 -14.5 39t-40.5 13q-19 0 -37.5 -7t-32.5 -15q-7 -4 -13.5 -7t-12.5 -3q-9 0 -15 9.5t-6 22.5q0 16 8.5 26t21.5 20q26 17 51.5 24t50.5 7
q57 0 91.5 -29t34.5 -77q0 -43 -29 -93.5t-77 -94.5q-15 -14 -29 -25t-28 -20q10 -1 26.5 -1.5t26.5 -0.5q44 0 62 8.5t27 15.5q4 2 8.5 4.5t8.5 2.5q10 0 17.5 -12.5t7.5 -29.5q0 -34 -36.5 -49t-120.5 -15z" />
    <glyph glyph-name="uni00B3" unicode="&#xb3;" horiz-adv-x="318" 
d="M132 298q-50 0 -79.5 19.5t-30.5 52.5q0 20 11 34t23 14q10 0 23 -15q7 -8 29 -19t55 -11t53 13t20 35q0 14 -8.5 25.5t-28.5 19.5q-13 5 -26 7t-24 3q-18 1 -23 15q-7 14 -7 27q0 8 5 12.5t13 7.5q27 8 50.5 25t23.5 41q0 19 -15 25.5t-37 6.5q-34 0 -59 -13
q-9 -4 -16.5 -7.5t-12.5 -3.5q-7 0 -13 7.5t-6 23.5q0 13 5.5 23t20.5 20q17 12 41 19.5t53 7.5q53 0 82 -24t29 -62q0 -30 -17 -55.5t-43 -39.5q75 -20 75 -93q0 -39 -21.5 -71t-58.5 -51t-86 -19z" />
    <glyph glyph-name="acute" unicode="&#xb4;" horiz-adv-x="384" 
d="M178 456q-23 0 -23 22q0 12 7 22q20 33 42.5 65t46.5 56q23 23 46 23q16 0 33.5 -15t17.5 -36q0 -9 -5 -20.5t-16 -21.5q-25 -25 -59.5 -47t-70.5 -42q-10 -6 -19 -6z" />
    <glyph glyph-name="uni00B5" unicode="&#xb5;" horiz-adv-x="523" 
d="M112 -243q-22 0 -33 12t-16 44q-9 65 -9 135q0 52 4.5 103t13.5 97q7 35 9.5 60.5t2.5 41.5q0 39 -28 53q-12 6 -20.5 13t-8.5 17q0 14 12.5 30.5t33 28.5t43.5 12q31 0 43 -24.5t12 -62.5q0 -23 -2.5 -47.5t-6.5 -44.5q-6 -37 -6 -61q0 -25 13 -45.5t42 -20.5
q26 0 48 17.5t39.5 45.5t31.5 60.5t23 63.5v22q0 44 16.5 70.5t58.5 26.5q33 0 33 -21q0 -7 -4.5 -25.5t-10 -39.5t-8.5 -36q-4 -16 -7.5 -43t-3.5 -58q0 -39 11.5 -62t45.5 -34q8 -1 14 -5t6 -17q0 -11 -6 -28t-22.5 -30.5t-48.5 -13.5q-33 0 -54 22t-21 81q0 14 1.5 27.5
t2.5 26.5l-2 1q-13 -43 -31 -80t-44 -59t-66 -22q-47 0 -78 34q2 -28 5 -53t9 -48q5 -27 14.5 -50.5t19.5 -45.5q4 -7 6.5 -13.5t2.5 -11.5q0 -17 -25 -30t-55 -13z" />
    <glyph glyph-name="paragraph" unicode="&#xb6;" horiz-adv-x="495" 
d="M150 -199q-31 0 -59 9.5t-46 30t-18 51.5q0 22 12 42t38 20q13 0 23 -10q16 -13 38.5 -19.5t41.5 -6.5q36 0 67 23.5t43 77.5q8 37 9.5 94t0.5 114q-48 -25 -101 -25q-71 0 -112.5 48.5t-41.5 138.5q0 76 31 135.5t91.5 94t147.5 34.5q27 0 57.5 -4t57 -12t43.5 -21
t17 -32q0 -9 -4.5 -25t-13.5 -29.5t-23 -13.5q-5 0 -16 2.5t-25 6.5q1 -97 -3.5 -195t-14 -183t-26.5 -142q-27 -91 -81.5 -147.5t-132.5 -56.5z" />
    <glyph glyph-name="periodcentered" unicode="&#xb7;" horiz-adv-x="215" 
d="M104 188q-29 0 -46 16t-17 45q0 31 20 50.5t51 19.5q29 0 45.5 -16t16.5 -45q0 -30 -19 -50t-51 -20z" />
    <glyph glyph-name="cedilla" unicode="&#xb8;" horiz-adv-x="384" 
d="M143 -246q-25 0 -42.5 11t-17.5 31q0 15 14 15q33 0 54.5 12t21.5 36q0 25 -26 36q-10 5 -17 11t-7 13q0 5 2.5 9.5t6.5 10.5q11 11 22 31t16 36h82q-10 -14 -22 -28.5t-26 -27.5q65 -12 65 -76q0 -33 -18.5 -60t-47 -43.5t-60.5 -16.5z" />
    <glyph glyph-name="uni00B9" unicode="&#xb9;" horiz-adv-x="275" 
d="M157 300q-27 0 -39 14.5t-12 45.5q0 32 3 77t9 93.5t14 89.5q-19 -10 -42.5 -17.5t-43.5 -7.5q-13 0 -22.5 6t-9.5 22q0 11 5 26.5t12 17.5q37 5 71 14.5t62 27.5q10 7 21 7q8 0 18 -5t10 -12q0 -2 -1 -8.5t-3 -15.5q-4 -28 -12 -81t-8 -121q0 -18 1.5 -40.5t7 -42
t18.5 -29.5q8 -6 8 -14q0 -6 -5 -17.5t-19.5 -20.5t-42.5 -9z" />
    <glyph glyph-name="ordmasculine" unicode="&#xba;" horiz-adv-x="308" 
d="M139 338q-46 0 -74.5 25.5t-28.5 74.5q0 40 18 74q-9 -6 -14 -6q-7 0 -10 14t-3 22q0 16 7 25.5t14 14.5q15 12 45 26t73 14q58 0 90 -32t32 -91q0 -45 -18.5 -81.5t-52 -58t-78.5 -21.5zM158 419q29 0 49.5 17.5t20.5 47.5q0 29 -20 42.5t-46 13.5q-12 0 -22.5 -2.5
t-18.5 -5.5q-7 -12 -13 -26t-6 -31q0 -28 16.5 -42t39.5 -14z" />
    <glyph glyph-name="guillemotright" unicode="&#xbb;" horiz-adv-x="474" 
d="M69 22q-14 0 -20 8t-6 15q0 10 7 22q6 12 22.5 34t37.5 48.5t40 49.5q-17 24 -35.5 50t-32.5 48.5t-20 33.5q-5 13 -5 21q0 12 7.5 18.5t18.5 6.5q14 0 31 -11q18 -12 41 -34.5t43 -45t29 -34.5q20 -26 20 -48q0 -13 -5.5 -27.5t-18.5 -28.5q-10 -12 -32.5 -35t-47 -46
t-43.5 -35q-9 -6 -17.5 -8t-13.5 -2zM244 22q-14 0 -20 8t-6 15q0 10 7 22q6 12 22.5 34t37 48.5t39.5 49.5q-16 24 -34.5 50t-32.5 48.5t-20 33.5q-6 12 -6 21q0 12 8 18.5t18 6.5q13 0 32 -11q18 -12 40.5 -34.5t42.5 -45t29 -34.5q11 -13 15.5 -25t4.5 -23
q0 -13 -5 -27.5t-19 -28.5q-10 -12 -32 -35t-46.5 -46t-43.5 -35q-9 -6 -17.5 -8t-13.5 -2z" />
    <glyph glyph-name="onequarter" unicode="&#xbc;" horiz-adv-x="831" 
d="M179 229q-28 0 -40 15t-12 46q0 32 3 77t9 93.5t15 89.5q-19 -10 -43 -17.5t-44 -7.5q-13 0 -22 6t-9 22q0 11 4.5 26.5t11.5 17.5q37 5 71 14.5t62 27.5q10 7 21 7q8 0 18 -5t10 -12q0 -2 -1 -8.5t-3 -15.5q-4 -28 -12 -81t-8 -121q0 -18 1.5 -40.5t7 -42t18.5 -29.5
q4 -3 6 -6t2 -9t-5 -17.5t-19 -20.5t-42 -9zM196 -4q-13 0 -29.5 10.5t-16.5 25.5q0 13 16 35q12 17 28.5 37t40 48t58 69.5t83.5 102.5q28 34 58 72t58 74t48 64q9 12 20.5 30.5t22.5 37t15 27.5q5 10 14 13.5t19 3.5q15 0 29.5 -7.5t14.5 -22.5q0 -13 -13.5 -37.5
t-42.5 -56.5q-12 -15 -33 -39.5t-46 -54.5t-50 -61t-46 -57q-57 -71 -92 -114.5t-54.5 -69.5t-32.5 -43q-18 -25 -28 -44t-15 -30q-3 -8 -10.5 -10.5t-15.5 -2.5zM675 -5q-19 0 -32.5 10t-13.5 41q0 11 1.5 27.5t3.5 35.5l-116 -2q-19 0 -32 16.5t-13 34.5q0 17 14 43
q18 35 50 70.5t66.5 66t59.5 49.5q16 11 27.5 17.5t22.5 6.5q14 0 17.5 -9t3.5 -25q0 -22 -5.5 -72.5t-15.5 -115.5h28q20 0 26 -2.5t6 -11.5q0 -10 -5.5 -25.5t-13.5 -27.5t-18 -12h-15.5t-16.5 -1q0 -23 4.5 -36.5t20.5 -21.5q7 -4 7 -12q0 -5 -5 -16t-18 -19.5t-38 -8.5z
M569 180q18 2 36 3l36 2q2 11 5 31.5t5 39.5t2 26q0 9 -5 9q-4 0 -12 -5q-18 -13 -39.5 -35.5t-39.5 -49.5q-3 -4 -3 -9q0 -12 15 -12z" />
    <glyph glyph-name="onehalf" unicode="&#xbd;" horiz-adv-x="897" 
d="M179 229q-28 0 -40 15t-12 46q0 32 3 77t9 93.5t15 89.5q-19 -10 -43 -17.5t-44 -7.5q-13 0 -22 6t-9 22q0 11 4.5 26.5t11.5 17.5q37 5 71 14.5t62 27.5q10 7 21 7q8 0 18 -5t10 -12q0 -2 -1 -8.5t-3 -15.5q-4 -28 -12 -81t-8 -121q0 -18 1.5 -40.5t7 -42t18.5 -29.5
q4 -3 6 -6t2 -9t-5 -17.5t-19 -20.5t-42 -9zM196 -4q-13 0 -29.5 10.5t-16.5 25.5q0 13 16 35q12 17 28.5 37t40 48t58 69.5t83.5 102.5q28 34 58 72t58 74t48 64q9 12 20.5 30.5t22.5 37t15 27.5q5 10 14 13.5t19 3.5q15 0 29.5 -7.5t14.5 -22.5q0 -13 -13.5 -37.5
t-42.5 -56.5q-12 -15 -33 -39.5t-46 -54.5t-50 -61t-46 -57q-57 -71 -92 -114.5t-54.5 -69.5t-32.5 -43q-18 -25 -28 -44t-15 -30q-3 -8 -10.5 -10.5t-15.5 -2.5zM679 -7q-51 0 -84 5.5t-44 19.5q-10 13 -10 29q0 10 5 16.5t18 13.5q62 35 115 97q23 28 36.5 55.5t13.5 50.5
q0 26 -14.5 39.5t-40.5 13.5q-20 0 -38.5 -7t-31.5 -15q-7 -4 -13.5 -7.5t-12.5 -3.5q-10 0 -15.5 10t-5.5 23q0 15 8 25.5t22 19.5q26 17 51 24.5t50 7.5q57 0 91.5 -29t34.5 -78q0 -42 -28.5 -92.5t-77.5 -95.5q-15 -13 -29 -24t-27 -20q9 -1 25.5 -1.5t27.5 -0.5
q44 0 61.5 8t27.5 15q4 3 8 5.5t8 2.5q11 0 18 -12.5t7 -29.5q0 -34 -36.5 -49.5t-119.5 -15.5z" />
    <glyph glyph-name="threequarters" unicode="&#xbe;" horiz-adv-x="849" 
d="M214 -4q-13 0 -29.5 10.5t-16.5 25.5q0 13 16 35q12 17 28.5 37t40.5 48t58.5 69.5t83.5 102.5q27 34 57 72t58 74t48 64q9 12 21 30.5t22.5 37t14.5 27.5q5 10 14 13.5t19 3.5q15 0 29.5 -7.5t14.5 -22.5q0 -13 -13.5 -37.5t-42.5 -56.5q-12 -15 -33 -39.5t-46 -54.5
t-50 -61t-46 -57q-57 -71 -92 -114.5t-54.5 -69.5t-32.5 -43q-18 -25 -28 -44t-15 -30q-3 -8 -10.5 -10.5t-15.5 -2.5zM159 228q-49 0 -78.5 19.5t-30.5 52.5q0 20 11 34t23 14q10 0 23 -15q7 -8 29 -19t55 -11t53 13t20 35q0 29 -37 45q-13 5 -26 7t-24 3q-19 2 -23 14
q-7 16 -7 28q0 8 5 12.5t13 7.5q27 8 50.5 25t23.5 41q0 19 -15 25.5t-37 6.5q-34 0 -59 -13q-9 -4 -16.5 -7.5t-12.5 -3.5q-7 0 -13 7.5t-6 23.5q0 12 5 22.5t21 20.5q17 12 41 19.5t53 7.5q53 0 82 -24t29 -62q0 -31 -17 -56t-43 -39q74 -20 74 -93q0 -39 -21 -71
t-58.5 -51t-86.5 -19zM684 -5q-19 0 -33 10t-14 41q0 11 1.5 27.5t3.5 35.5l-115 -2q-20 0 -32.5 16.5t-12.5 34.5q0 9 3.5 19.5t9.5 23.5q19 35 51 70.5t66.5 66t59.5 49.5q15 11 27 17.5t23 6.5q14 0 17.5 -9t3.5 -25q0 -22 -6 -72.5t-15 -115.5h28q20 0 25.5 -2.5
t5.5 -11.5q0 -10 -5.5 -25.5t-13.5 -27.5t-17 -12h-15.5t-17.5 -1q0 -23 4.5 -36.5t20.5 -21.5q8 -4 8 -12q0 -5 -5 -16t-18.5 -19.5t-37.5 -8.5zM578 180q18 2 36 3l36 2q2 11 4.5 31.5t4.5 39.5t2 26q0 9 -4 9t-12 -5q-18 -13 -40 -35.5t-40 -49.5q-2 -6 -2 -9
q0 -12 15 -12z" />
    <glyph glyph-name="questiondown" unicode="&#xbf;" horiz-adv-x="373" 
d="M202 270q-28 0 -45.5 17t-17.5 44q0 31 19 50t48 19t46.5 -17.5t17.5 -45.5q0 -29 -19.5 -48t-48.5 -19zM135 -204q-61 0 -99 33.5t-38 85.5q0 49 28.5 85t71.5 70q25 20 42.5 37.5t17.5 30.5q0 8 -4 14t-9 10q-11 11 -11 21q0 17 24.5 31t51.5 14q34 0 52.5 -21
t18.5 -53q0 -41 -31 -67.5t-90 -59.5q-29 -16 -50.5 -37t-21.5 -50q0 -31 25.5 -44.5t55.5 -13.5q29 0 49.5 10.5t20.5 26.5q0 11 -8.5 16.5t-19.5 8.5q-9 3 -9 15q0 20 13 39t43 19q24 0 43.5 -15t19.5 -50q0 -38 -24.5 -74t-66.5 -59t-95 -23z" />
    <glyph glyph-name="Agrave" unicode="&#xc0;" horiz-adv-x="599" 
d="M388 694q-10 0 -19 6q-36 20 -70 42t-60 47q-21 21 -21 42t17.5 36t33.5 15q11 0 23 -5.5t23 -17.5q24 -23 46 -55.5t43 -65.5q7 -10 7 -22q0 -10 -6.5 -16t-16.5 -6zM514 -11q-31 0 -52.5 26.5t-41.5 87.5q-10 30 -16.5 58.5t-9.5 55.5q-13 -20 -23.5 -26.5t-30.5 -6.5
q-49 0 -104 1.5t-98 2.5q-2 -18 -3.5 -36.5t-1.5 -36.5q0 -16 1.5 -32t2.5 -31q3 -28 -22 -45t-62 -17q-32 0 -32 28q0 17 9 51q5 23 8 39.5t3 26.5q0 28 -17 38q-14 8 -14 21q0 12 5.5 29t14.5 31.5t17 20.5q7 4 17 7t25 4q39 112 87.5 193.5t103.5 126t112 44.5
q35 0 51 -23.5t16 -78.5v-45q0 -101 15 -186t37 -138q22 -56 61 -92q12 -10 16 -17.5t4 -15.5q0 -15 -11.5 -30t-29.5 -25t-37 -10zM168 292q49 2 86 3.5t62 1.5h70q-2 28 -3.5 59t-1.5 65v58q0 29 -6.5 38.5t-24.5 9.5q-49 0 -98 -64t-84 -171z" />
    <glyph glyph-name="Aacute" unicode="&#xc1;" horiz-adv-x="599" 
d="M355 694q-10 0 -16.5 6t-6.5 16q0 12 8 22q20 33 42 65.5t46 55.5q23 23 46 23q16 0 33.5 -15t17.5 -36q0 -20 -20 -42q-26 -25 -60.5 -47t-70.5 -42q-9 -6 -19 -6zM514 -11q-31 0 -52.5 26.5t-41.5 87.5q-10 30 -16.5 58.5t-9.5 55.5q-13 -20 -23.5 -26.5t-30.5 -6.5
q-49 0 -104 1.5t-98 2.5q-2 -18 -3.5 -36.5t-1.5 -36.5q0 -16 1.5 -32t2.5 -31q3 -28 -22 -45t-62 -17q-32 0 -32 28q0 17 9 51q5 23 8 39.5t3 26.5q0 28 -17 38q-14 8 -14 21q0 12 5.5 29t14.5 31.5t17 20.5q7 4 17 7t25 4q39 112 87.5 193.5t103.5 126t112 44.5
q35 0 51 -23.5t16 -78.5v-45q0 -101 15 -186t37 -138q22 -56 61 -92q12 -10 16 -17.5t4 -15.5q0 -15 -11.5 -30t-29.5 -25t-37 -10zM168 292q49 2 86 3.5t62 1.5h70q-2 28 -3.5 59t-1.5 65v58q0 29 -6.5 38.5t-24.5 9.5q-49 0 -98 -64t-84 -171z" />
    <glyph glyph-name="Acircumflex" unicode="&#xc2;" horiz-adv-x="599" 
d="M245 699q-9 0 -15 6.5t-6 16.5q0 14 10 31q11 18 30.5 40.5t39.5 42.5t30 29q26 21 47 21q13 0 25 -6.5t19 -14.5q10 -10 27 -29.5t34 -42t26 -42.5q7 -14 7 -26q0 -10 -7 -17.5t-18 -7.5q-3 0 -8 1t-11 5q-9 5 -27 18.5t-38 30t-35 29.5q-19 -14 -41 -30t-40.5 -29
t-28.5 -19q-13 -7 -20 -7zM514 -11q-31 0 -52.5 26.5t-41.5 87.5q-10 30 -16.5 58.5t-9.5 55.5q-13 -20 -23.5 -26.5t-30.5 -6.5q-49 0 -104 1.5t-98 2.5q-2 -18 -3.5 -36.5t-1.5 -36.5q0 -16 1.5 -32t2.5 -31q3 -28 -22 -45t-62 -17q-32 0 -32 28q0 17 9 51q5 23 8 39.5
t3 26.5q0 28 -17 38q-14 8 -14 21q0 12 5.5 29t14.5 31.5t17 20.5q7 4 17 7t25 4q39 112 87.5 193.5t103.5 126t112 44.5q35 0 51 -23.5t16 -78.5v-45q0 -101 15 -186t37 -138q22 -56 61 -92q12 -10 16 -17.5t4 -15.5q0 -15 -11.5 -30t-29.5 -25t-37 -10zM168 292
q49 2 86 3.5t62 1.5h70q-2 28 -3.5 59t-1.5 65v58q0 29 -6.5 38.5t-24.5 9.5q-49 0 -98 -64t-84 -171z" />
    <glyph glyph-name="Atilde" unicode="&#xc3;" horiz-adv-x="599" 
d="M242 716q-14 0 -22.5 14.5t-8.5 32.5q0 31 24.5 57t67.5 26q36 0 78 -20q16 -8 33 -15t32 -7q17 0 23 8.5t9 18.5q2 8 6 14t11 6q14 0 23.5 -14.5t9.5 -34.5q0 -32 -26 -59t-67 -27q-18 0 -37 5.5t-38 14.5q-19 11 -36 17.5t-31 6.5q-16 0 -22.5 -8t-9.5 -17
q-2 -7 -6 -13t-13 -6zM514 -11q-31 0 -52.5 26.5t-41.5 87.5q-10 30 -16.5 58.5t-9.5 55.5q-13 -20 -23.5 -26.5t-30.5 -6.5q-49 0 -104 1.5t-98 2.5q-2 -18 -3.5 -36.5t-1.5 -36.5q0 -16 1.5 -32t2.5 -31q3 -28 -22 -45t-62 -17q-32 0 -32 28q0 17 9 51q5 23 8 39.5t3 26.5
q0 28 -17 38q-14 8 -14 21q0 12 5.5 29t14.5 31.5t17 20.5q7 4 17 7t25 4q39 112 87.5 193.5t103.5 126t112 44.5q35 0 51 -23.5t16 -78.5v-45q0 -101 15 -186t37 -138q22 -56 61 -92q12 -10 16 -17.5t4 -15.5q0 -15 -11.5 -30t-29.5 -25t-37 -10zM168 292q49 2 86 3.5
t62 1.5h70q-2 28 -3.5 59t-1.5 65v58q0 29 -6.5 38.5t-24.5 9.5q-49 0 -98 -64t-84 -171z" />
    <glyph glyph-name="Adieresis" unicode="&#xc4;" horiz-adv-x="599" 
d="M267 720q-27 0 -42.5 15t-15.5 43q0 29 18.5 47.5t47.5 18.5q26 0 41 -15t15 -43t-17.5 -47t-46.5 -19zM466 720q-27 0 -42.5 15t-15.5 43q0 29 18.5 47.5t46.5 18.5q57 0 57 -58q0 -28 -17.5 -47t-46.5 -19zM514 -11q-31 0 -52.5 26.5t-41.5 87.5q-10 30 -16.5 58.5
t-9.5 55.5q-13 -20 -23.5 -26.5t-30.5 -6.5q-49 0 -104 1.5t-98 2.5q-2 -18 -3.5 -36.5t-1.5 -36.5q0 -16 1.5 -32t2.5 -31q3 -28 -22 -45t-62 -17q-32 0 -32 28q0 17 9 51q5 23 8 39.5t3 26.5q0 28 -17 38q-14 8 -14 21q0 12 5.5 29t14.5 31.5t17 20.5q7 4 17 7t25 4
q39 112 87.5 193.5t103.5 126t112 44.5q35 0 51 -23.5t16 -78.5v-45q0 -101 15 -186t37 -138q22 -56 61 -92q12 -10 16 -17.5t4 -15.5q0 -15 -11.5 -30t-29.5 -25t-37 -10zM168 292q49 2 86 3.5t62 1.5h70q-2 28 -3.5 59t-1.5 65v58q0 29 -6.5 38.5t-24.5 9.5q-49 0 -98 -64
t-84 -171z" />
    <glyph glyph-name="Aring" unicode="&#xc5;" horiz-adv-x="599" 
d="M364 696q-49 0 -78.5 27.5t-29.5 76.5q0 54 33.5 87t88.5 33q49 0 77.5 -27.5t28.5 -75.5q0 -53 -32 -87t-88 -34zM377 767q20 0 33 10.5t13 26.5q0 19 -16 32t-43 13q-21 0 -34 -11t-13 -28q0 -19 16 -31t44 -12zM514 -11q-31 0 -52.5 26.5t-41.5 87.5
q-10 30 -16.5 58.5t-9.5 55.5q-13 -20 -23.5 -26.5t-30.5 -6.5q-49 0 -104 1.5t-98 2.5q-2 -18 -3.5 -36.5t-1.5 -36.5q0 -16 1.5 -32t2.5 -31q3 -28 -22 -45t-62 -17q-32 0 -32 28q0 17 9 51q5 23 8 39.5t3 26.5q0 28 -17 38q-14 8 -14 21q0 12 5.5 29t14.5 31.5t17 20.5
q7 4 17 7t25 4q39 112 87.5 193.5t103.5 126t112 44.5q35 0 51 -23.5t16 -78.5v-45q0 -101 15 -186t37 -138q22 -56 61 -92q12 -10 16 -17.5t4 -15.5q0 -15 -11.5 -30t-29.5 -25t-37 -10zM168 292q49 2 86 3.5t62 1.5h70q-2 28 -3.5 59t-1.5 65v58q0 29 -6.5 38.5t-24.5 9.5
q-49 0 -98 -64t-84 -171z" />
    <glyph glyph-name="AE" unicode="&#xc6;" horiz-adv-x="822" 
d="M561 -13q-101 0 -144 33t-43 112q0 11 2 32.5t6 49.5q-19 -31 -40 -31q-100 0 -204 3q-4 -13 -5 -33t-1 -45v-56q-1 -28 -25 -45t-62 -17q-31 0 -31 27q0 18 12 52q13 45 13 66q0 29 -16 38q-13 7 -13 21q0 10 7 27t16.5 32.5t17.5 21.5q15 8 41 11q66 173 149 268.5
t166 95.5q34 0 51 -23q15 4 50 7.5t75.5 6t69.5 2.5q98 0 109 -4q26 -4 26 -28q0 -28 -21 -55q-12 -16 -23.5 -22t-29.5 -5q-21 2 -53 3t-76 1q-51 0 -95 -3q2 -9 2 -17.5v-18.5q0 -13 -1 -35t-2.5 -45.5t-4.5 -42.5q68 6 179 6q39 0 50 -4q12 -3 12 -22q0 -31 -19.5 -56
t-47.5 -24q-34 2 -81.5 3t-108.5 1q-3 -28 -5 -48.5t-2 -28.5q0 -54 28 -76.5t92 -22.5q75 0 150 33q15 8 21 8q11 0 21 -15.5t10 -35.5q0 -37 -34 -59t-84 -33q-25 -5 -51 -7.5t-53 -2.5zM171 292q60 3 113 4t111 1q6 44 6 106q0 68 -6 92q-8 32 -33 32q-51 0 -102 -62.5
t-89 -172.5z" />
    <glyph glyph-name="Ccedilla" unicode="&#xc7;" horiz-adv-x="567" 
d="M249 -246q-25 0 -43 11t-18 31q0 15 15 15q33 0 54 12t21 36q0 26 -26 36q-9 5 -16.5 11t-7.5 13t10 20q17 19 30 48q-102 5 -162.5 75t-60.5 188q0 77 25 148t72 127t113 89t149 33q62 0 102 -19t40 -56q0 -18 -9.5 -35.5t-24.5 -29.5t-31 -12q-10 0 -16 5
q-27 18 -53 26.5t-60 8.5q-71 0 -120 -32.5t-74.5 -85.5t-25.5 -115q0 -60 23 -106t64 -72t96 -26q44 0 85.5 17.5t73.5 48.5q14 13 28 13q12 0 17 -10t5 -20q0 -17 -10 -38.5t-31 -42.5q-53 -52 -134 -72q-8 -11 -18 -22t-21 -22q61 -12 64 -71q2 -34 -16.5 -62.5
t-47.5 -45.5t-61 -17z" />
    <glyph glyph-name="Egrave" unicode="&#xc8;" horiz-adv-x="505" 
d="M244 -13q-95 0 -140.5 30.5t-45.5 114.5q0 17 2.5 41t7.5 58q8 49 12 87.5t4 84.5q0 30 -1.5 58t-5.5 53q-15 -3 -20 -3q-8 0 -11 3.5t-3 13.5q0 21 5 41.5t14 33.5q17 24 52 28q27 3 66.5 6t81 4.5t74.5 1.5q92 0 109 -4q26 -4 26 -28q0 -30 -21 -55q-11 -15 -22 -21.5
t-31 -5.5q-44 3 -77 4t-46 1q-23 0 -47.5 -1t-49.5 -3q0 -35 -3 -75t-8 -84q46 3 104 4.5t103 1.5q20 0 27.5 -4t7.5 -21q0 -16 -8.5 -35.5t-22.5 -33.5q-6 -6 -13 -9.5t-19 -2.5q-43 2 -97.5 3t-95.5 0q-4 -23 -6 -42t-2 -34q0 -55 28 -77t92 -22q39 0 75.5 7t74.5 26
q14 8 21 8q11 0 21.5 -15.5t10.5 -33.5q0 -22 -16.5 -41.5t-43.5 -33.5q-31 -14 -74 -21.5t-89 -7.5z" />
    <glyph glyph-name="Eacute" unicode="&#xc9;" horiz-adv-x="505" 
d="M255 694q-10 0 -16.5 6t-6.5 16q0 12 8 22q20 33 42.5 65.5t45.5 55.5t46 23q17 0 34 -15t17 -36q0 -9 -4.5 -20t-15.5 -22q-25 -25 -59.5 -47t-70.5 -42q-10 -6 -20 -6zM244 -13q-95 0 -140.5 30.5t-45.5 114.5q0 17 2.5 41t7.5 58q8 49 12 87.5t4 84.5q0 30 -1.5 58
t-5.5 53q-15 -3 -20 -3q-8 0 -11 3.5t-3 13.5q0 21 5 41.5t14 33.5q17 24 52 28q27 3 66.5 6t81 4.5t74.5 1.5q92 0 109 -4q26 -4 26 -28q0 -30 -21 -55q-11 -15 -22 -21.5t-31 -5.5q-44 3 -77 4t-46 1q-23 0 -47.5 -1t-49.5 -3q0 -35 -3 -75t-8 -84q46 3 104 4.5t103 1.5
q20 0 27.5 -4t7.5 -21q0 -16 -8.5 -35.5t-22.5 -33.5q-6 -6 -13 -9.5t-19 -2.5q-43 2 -97.5 3t-95.5 0q-4 -23 -6 -42t-2 -34q0 -55 28 -77t92 -22q39 0 75.5 7t74.5 26q14 8 21 8q11 0 21.5 -15.5t10.5 -33.5q0 -22 -16.5 -41.5t-43.5 -33.5q-31 -14 -74 -21.5t-89 -7.5z
" />
    <glyph glyph-name="Ecircumflex" unicode="&#xca;" horiz-adv-x="505" 
d="M244 -13q-95 0 -140.5 30.5t-45.5 114.5q0 17 2.5 41t7.5 58q8 49 12 87.5t4 84.5q0 30 -1.5 58t-5.5 53q-15 -3 -20 -3q-8 0 -11 3.5t-3 13.5q0 21 5 41.5t14 33.5q17 24 52 28q27 3 66.5 6t81 4.5t74.5 1.5q92 0 109 -4q26 -4 26 -28q0 -30 -21 -55q-11 -15 -22 -21.5
t-31 -5.5q-44 3 -77 4t-46 1q-23 0 -47.5 -1t-49.5 -3q0 -35 -3 -75t-8 -84q46 3 104 4.5t103 1.5q20 0 27.5 -4t7.5 -21q0 -16 -8.5 -35.5t-22.5 -33.5q-6 -6 -13 -9.5t-19 -2.5q-43 2 -97.5 3t-95.5 0q-4 -23 -6 -42t-2 -34q0 -55 28 -77t92 -22q39 0 75.5 7t74.5 26
q14 8 21 8q11 0 21.5 -15.5t10.5 -33.5q0 -22 -16.5 -41.5t-43.5 -33.5q-31 -14 -74 -21.5t-89 -7.5z" />
    <glyph glyph-name="Edieresis" unicode="&#xcb;" horiz-adv-x="505" 
d="M244 -13q-95 0 -140.5 30.5t-45.5 114.5q0 17 2.5 41t7.5 58q8 49 12 87.5t4 84.5q0 30 -1.5 58t-5.5 53q-15 -3 -20 -3q-8 0 -11 3.5t-3 13.5q0 21 5 41.5t14 33.5q17 24 52 28q27 3 66.5 6t81 4.5t74.5 1.5q92 0 109 -4q26 -4 26 -28q0 -30 -21 -55q-11 -15 -22 -21.5
t-31 -5.5q-44 3 -77 4t-46 1q-23 0 -47.5 -1t-49.5 -3q0 -35 -3 -75t-8 -84q46 3 104 4.5t103 1.5q20 0 27.5 -4t7.5 -21q0 -16 -8.5 -35.5t-22.5 -33.5q-6 -6 -13 -9.5t-19 -2.5q-43 2 -97.5 3t-95.5 0q-4 -23 -6 -42t-2 -34q0 -55 28 -77t92 -22q39 0 75.5 7t74.5 26
q14 8 21 8q11 0 21.5 -15.5t10.5 -33.5q0 -22 -16.5 -41.5t-43.5 -33.5q-31 -14 -74 -21.5t-89 -7.5z" />
    <glyph glyph-name="Igrave" unicode="&#xcc;" horiz-adv-x="257" 
d="M167 688q-8 0 -16 6q-33 20 -63.5 42t-53.5 47q-20 22 -20 43q0 20 14 35t35 15q10 0 22 -4.5t26 -22.5q17 -21 35.5 -52t34.5 -65q7 -10 7 -22q0 -22 -21 -22zM118 -10q-24 0 -39 13t-15 53q0 20 4 52l8 64q11 71 16 123t5 106q0 50 -5.5 93t-27.5 74q-8 13 -8 20
q0 12 13.5 25.5t33 22.5t36.5 9q31 0 41.5 -27.5t10.5 -68.5q0 -25 -3 -62t-6.5 -71.5t-6.5 -53.5q-7 -53 -11 -99t-4 -78q0 -38 7.5 -64t26.5 -43q13 -12 13 -27q0 -24 -24.5 -42.5t-64.5 -18.5z" />
    <glyph glyph-name="Iacute" unicode="&#xcd;" horiz-adv-x="257" 
d="M103 694q-23 0 -23 22q0 12 7 22q20 33 42.5 65.5t46.5 55.5q22 23 46 23q16 0 33.5 -15t17.5 -36t-21 -42q-25 -25 -59.5 -47t-70.5 -42q-10 -6 -19 -6zM118 -10q-24 0 -39 13t-15 53q0 20 4 52l8 64q11 71 16 123t5 106q0 50 -5.5 93t-27.5 74q-8 13 -8 20
q0 12 13.5 25.5t33 22.5t36.5 9q31 0 41.5 -27.5t10.5 -68.5q0 -25 -3 -62t-6.5 -71.5t-6.5 -53.5q-7 -53 -11 -99t-4 -78q0 -38 7.5 -64t26.5 -43q13 -12 13 -27q0 -24 -24.5 -42.5t-64.5 -18.5z" />
    <glyph glyph-name="Icircumflex" unicode="&#xce;" horiz-adv-x="257" 
d="M29 696q-7 0 -12 7t-5 16q0 15 8 31q9 18 24.5 40t30.5 41.5t22 27.5q13 14 24.5 19t20.5 5q24 0 44 -23q8 -9 20.5 -28t25.5 -41.5t20 -42.5q7 -14 7 -26q0 -10 -6 -17.5t-15 -7.5q-3 0 -7 1t-9 5q-8 5 -23 18t-31.5 28.5t-29.5 27.5q-24 -22 -51.5 -44t-40.5 -30
q-11 -7 -17 -7zM118 -10q-24 0 -39 13t-15 53q0 20 4 52l8 64q11 71 16 123t5 106q0 50 -5.5 93t-27.5 74q-8 13 -8 20q0 12 13.5 25.5t33 22.5t36.5 9q31 0 41.5 -27.5t10.5 -68.5q0 -25 -3 -62t-6.5 -71.5t-6.5 -53.5q-7 -53 -11 -99t-4 -78q0 -38 7.5 -64t26.5 -43
q13 -12 13 -27q0 -24 -24.5 -42.5t-64.5 -18.5z" />
    <glyph glyph-name="Idieresis" unicode="&#xcf;" horiz-adv-x="257" 
d="M53 718q-27 0 -42.5 15t-15.5 43q0 29 18.5 47.5t46.5 18.5q57 0 57 -58q0 -28 -17.5 -47t-46.5 -19zM207 718q-26 0 -41.5 15t-15.5 43q0 29 18.5 47.5t46.5 18.5q57 0 57 -58q0 -28 -17.5 -47t-47.5 -19zM118 -10q-24 0 -39 13t-15 53q0 20 4 52l8 64q11 71 16 123
t5 106q0 50 -5.5 93t-27.5 74q-8 13 -8 20q0 12 13.5 25.5t33 22.5t36.5 9q31 0 41.5 -27.5t10.5 -68.5q0 -25 -3 -62t-6.5 -71.5t-6.5 -53.5q-7 -53 -11 -99t-4 -78q0 -38 7.5 -64t26.5 -43q13 -12 13 -27q0 -24 -24.5 -42.5t-64.5 -18.5z" />
    <glyph glyph-name="Eth" unicode="&#xd0;" horiz-adv-x="605" 
d="M204 -13q-40 0 -69.5 7.5t-49.5 25.5q-14 14 -19.5 31t-5.5 39q0 29 6 68q6 37 10 68.5t6 57.5h-26q-20 0 -30 4t-10 15q0 20 12 34t23 13l36 -2q2 16 2.5 35t0.5 32q0 21 -2 41t-5 39q-18 -8 -25 -8q-15 0 -15 29q0 54 58 86q35 20 89 32.5t106 12.5q126 0 197 -74
t71 -208q0 -104 -42.5 -190t-124.5 -138q-82 -50 -193 -50zM236 99q65 1 122.5 26t93.5 78q36 51 36 128q0 99 -56.5 151t-142.5 52q-47 0 -106 -15q-1 -63 -15 -171q44 2 80 3.5t65 1.5q21 0 29 -6t8 -20q0 -20 -11 -33t-23 -13l-156 5q-6 -63 -6 -106q0 -47 19.5 -64
t62.5 -17z" />
    <glyph glyph-name="Ntilde" unicode="&#xd1;" horiz-adv-x="648" 
d="M206 716q-14 0 -22 14.5t-8 32.5q0 31 24 57t68 26q36 0 78 -20q16 -8 33 -15t32 -7q16 0 22.5 8.5t9.5 18.5q2 8 5.5 14t11.5 6q13 0 22.5 -14.5t9.5 -34.5q0 -32 -26 -59t-67 -27q-18 0 -37 5.5t-38 14.5q-19 11 -36 17.5t-31 6.5q-16 0 -22.5 -8t-8.5 -17
q-2 -7 -6 -13t-14 -6zM99 -10q-22 0 -37.5 11.5t-15.5 54.5q0 22 4.5 53.5t9.5 65.5q8 48 16 105.5t8 114.5q0 60 -4 92t-9 52q-2 11 -3.5 20t-1.5 20q0 32 20.5 48.5t45.5 16.5t42 -12.5t30 -26.5q86 -97 155 -203.5t115 -218.5q5 -8 9 -8q6 0 8 8q18 117 18 212
q0 57 -4.5 90.5t-11 52t-12.5 29.5q-3 7 -5 12.5t-2 10.5q0 12 12.5 24.5t30.5 20.5t35 8q24 0 35 -16t14.5 -39.5t3.5 -47.5q0 -27 -5 -70t-11.5 -92.5t-11 -97.5t-4.5 -85q0 -21 1.5 -41t3.5 -39q3 -25 3 -44q0 -37 -18.5 -58.5t-50.5 -21.5q-22 0 -43.5 13t-32.5 42
q-43 110 -105.5 214.5t-130.5 180.5q-11 10 -18 10q-10 0 -13 -22q-5 -38 -10 -83t-8 -87.5t-3 -72.5q0 -34 6 -58.5t18 -47.5q11 -20 11 -36q0 -19 -22 -36.5t-62 -17.5z" />
    <glyph glyph-name="Ograve" unicode="&#xd2;" horiz-adv-x="636" 
d="M362 694q-10 0 -19 6q-36 20 -70 42t-60 47q-21 21 -21 42t17.5 36t33.5 15q11 0 23 -5.5t23 -17.5q24 -23 46 -55.5t43 -65.5q7 -10 7 -22q0 -10 -6.5 -16t-16.5 -6zM275 -13q-103 0 -164.5 60.5t-61.5 178.5q0 53 14.5 110t48.5 113q-19 -17 -36 -17q-29 0 -29 46
q0 33 14 53t27 32q22 19 56 38.5t80 32.5t103 13q134 0 201.5 -75.5t67.5 -209.5q0 -79 -23 -147t-65.5 -119t-101.5 -80t-131 -29zM310 99q50 0 98.5 23t80 73.5t31.5 131.5q0 76 -29 121.5t-73.5 66t-93.5 20.5q-37 0 -66.5 -9.5t-52.5 -20.5q-26 -40 -49 -97.5
t-23 -121.5t25 -105.5t65.5 -61.5t86.5 -20z" />
    <glyph glyph-name="Oacute" unicode="&#xd3;" horiz-adv-x="636" 
d="M329 694q-10 0 -16.5 6t-6.5 16q0 12 8 22q20 33 42.5 65.5t45.5 55.5t46 23q16 0 33.5 -15t17.5 -36q0 -20 -20 -42q-26 -25 -60.5 -47t-70.5 -42q-9 -6 -19 -6zM275 -13q-103 0 -164.5 60.5t-61.5 178.5q0 53 14.5 110t48.5 113q-19 -17 -36 -17q-29 0 -29 46
q0 33 14 53t27 32q22 19 56 38.5t80 32.5t103 13q134 0 201.5 -75.5t67.5 -209.5q0 -79 -23 -147t-65.5 -119t-101.5 -80t-131 -29zM310 99q50 0 98.5 23t80 73.5t31.5 131.5q0 76 -29 121.5t-73.5 66t-93.5 20.5q-37 0 -66.5 -9.5t-52.5 -20.5q-26 -40 -49 -97.5
t-23 -121.5t25 -105.5t65.5 -61.5t86.5 -20z" />
    <glyph glyph-name="Ocircumflex" unicode="&#xd4;" horiz-adv-x="636" 
d="M219 699q-9 0 -15 6.5t-6 16.5q0 14 10 31q11 18 30.5 40.5t39.5 42.5t30 29q26 21 47 21q13 0 25 -6.5t19 -14.5q11 -10 28 -29.5t33.5 -42t25.5 -42.5q5 -7 6 -14t1 -12q0 -10 -7 -17.5t-18 -7.5q-3 0 -8 1t-11 5q-9 5 -27 18.5t-38 30t-35 29.5q-19 -14 -41 -30
t-40.5 -29t-28.5 -19q-13 -7 -20 -7zM275 -13q-103 0 -164.5 60.5t-61.5 178.5q0 53 14.5 110t48.5 113q-19 -17 -36 -17q-29 0 -29 46q0 33 14 53t27 32q22 19 56 38.5t80 32.5t103 13q134 0 201.5 -75.5t67.5 -209.5q0 -79 -23 -147t-65.5 -119t-101.5 -80t-131 -29z
M310 99q50 0 98.5 23t80 73.5t31.5 131.5q0 76 -29 121.5t-73.5 66t-93.5 20.5q-37 0 -66.5 -9.5t-52.5 -20.5q-26 -40 -49 -97.5t-23 -121.5t25 -105.5t65.5 -61.5t86.5 -20z" />
    <glyph glyph-name="Otilde" unicode="&#xd5;" horiz-adv-x="636" 
d="M216 716q-14 0 -22.5 14.5t-8.5 32.5q0 31 24.5 57t67.5 26q36 0 78 -20q16 -8 33 -15t32 -7q17 0 23 8.5t9 18.5q2 8 6 14t11 6q14 0 23.5 -14.5t9.5 -34.5q0 -32 -26 -59t-67 -27q-18 0 -37 5.5t-38 14.5q-19 11 -36 17.5t-31 6.5q-16 0 -22.5 -8t-9.5 -17
q-2 -7 -6 -13t-13 -6zM275 -13q-103 0 -164.5 60.5t-61.5 178.5q0 53 14.5 110t48.5 113q-19 -17 -36 -17q-29 0 -29 46q0 33 14 53t27 32q22 19 56 38.5t80 32.5t103 13q134 0 201.5 -75.5t67.5 -209.5q0 -79 -23 -147t-65.5 -119t-101.5 -80t-131 -29zM310 99
q50 0 98.5 23t80 73.5t31.5 131.5q0 76 -29 121.5t-73.5 66t-93.5 20.5q-37 0 -66.5 -9.5t-52.5 -20.5q-26 -40 -49 -97.5t-23 -121.5t25 -105.5t65.5 -61.5t86.5 -20z" />
    <glyph glyph-name="Odieresis" unicode="&#xd6;" horiz-adv-x="636" 
d="M241 720q-27 0 -42.5 15t-15.5 43q0 29 18.5 47.5t47.5 18.5q26 0 41 -15t15 -43t-17.5 -47t-46.5 -19zM440 720q-27 0 -42.5 15t-15.5 43q0 29 18.5 47.5t46.5 18.5q57 0 57 -58q0 -28 -17.5 -47t-46.5 -19zM275 -13q-103 0 -164.5 60.5t-61.5 178.5q0 53 14.5 110
t48.5 113q-19 -17 -36 -17q-29 0 -29 46q0 33 14 53t27 32q22 19 56 38.5t80 32.5t103 13q134 0 201.5 -75.5t67.5 -209.5q0 -79 -23 -147t-65.5 -119t-101.5 -80t-131 -29zM310 99q50 0 98.5 23t80 73.5t31.5 131.5q0 76 -29 121.5t-73.5 66t-93.5 20.5q-37 0 -66.5 -9.5
t-52.5 -20.5q-26 -40 -49 -97.5t-23 -121.5t25 -105.5t65.5 -61.5t86.5 -20z" />
    <glyph glyph-name="multiply" unicode="&#xd7;" horiz-adv-x="499" 
d="M363 66q-10 0 -19 11l-96 106l-99 -110q-6 -6 -16 -6q-9 0 -22.5 6.5t-24 16.5t-10.5 20q0 9 9 19l109 106l-110 109q-10 10 -10 19q0 10 11 20.5t25.5 17.5t25.5 7q9 0 16 -7l98 -110l100 109q8 9 19 9q20 0 39 -14.5t19 -28.5q0 -9 -10 -19l-113 -109l112 -107
q9 -10 9 -20q0 -15 -21 -30t-41 -15z" />
    <glyph glyph-name="Oslash" unicode="&#xd8;" horiz-adv-x="636" 
d="M122 -68q-20 0 -37 12.5t-17 29.5q0 15 12.5 37.5t25.5 40.5q-57 62 -57 174q0 118 63 223q-19 -17 -36 -17q-29 0 -29 46q0 29 11.5 49t29.5 36q40 35 100.5 59.5t138.5 24.5q38 0 72.5 -7t65.5 -21q11 41 20.5 57.5t37.5 16.5q20 0 34.5 -8.5t14.5 -25.5q0 -14 -9 -35
l-12.5 -25t-17.5 -33q63 -73 63 -204q0 -104 -40.5 -190t-113.5 -136q-73 -49 -167 -49q-28 0 -52.5 4t-45.5 13q-7 -22 -13 -36.5t-9 -21.5q-9 -14 -33 -14zM176 156q29 44 69 105.5t83 129t81 128.5q-38 16 -85 16q-60 0 -119 -30q-31 -46 -51.5 -103t-20.5 -116
q0 -79 43 -130zM310 99q54 0 102 24t79 76q15 26 22 58t7 70q0 95 -47 146q-55 -79 -114 -170t-120 -192q32 -12 71 -12z" />
    <glyph glyph-name="Ugrave" unicode="&#xd9;" horiz-adv-x="622" 
d="M276 -13q-105 0 -157 55.5t-52 174.5q0 20 1.5 42t3.5 43q2 20 3 40t1 36q0 60 -5 104t-30 84q-8 13 -8 21q0 13 14.5 25.5t34.5 21.5t38 9q24 0 34.5 -16t13.5 -39.5t3 -47.5q0 -25 -2.5 -55t-7.5 -65q-4 -38 -7.5 -79.5t-3.5 -83.5q0 -58 20.5 -92.5t56 -50t79.5 -15.5
q77 0 116 39.5t54 103.5q7 29 11 66.5t4 76.5q0 49 -6.5 94t-25.5 79l-7 14t-3 13q0 14 12 27.5t30 22t37 8.5q32 0 43 -27t11 -63q0 -22 -3.5 -64t-9.5 -90t-12 -90.5t-11 -65.5q-25 -119 -88 -187.5t-182 -68.5zM339 694q-8 0 -19 6q-36 20 -70 42t-60 47
q-10 10 -15.5 21.5t-5.5 20.5q0 21 17.5 36t33.5 15q23 0 46 -23q24 -24 46.5 -56t43.5 -65q2 -5 4 -11t2 -11q0 -22 -23 -22z" />
    <glyph glyph-name="Uacute" unicode="&#xda;" horiz-adv-x="622" 
d="M276 -13q-105 0 -157 55.5t-52 174.5q0 20 1.5 42t3.5 43q2 20 3 40t1 36q0 60 -5 104t-30 84q-8 13 -8 21q0 13 14.5 25.5t34.5 21.5t38 9q24 0 34.5 -16t13.5 -39.5t3 -47.5q0 -25 -2.5 -55t-7.5 -65q-4 -38 -7.5 -79.5t-3.5 -83.5q0 -58 20.5 -92.5t56 -50t79.5 -15.5
q77 0 116 39.5t54 103.5q7 29 11 66.5t4 76.5q0 49 -6.5 94t-25.5 79l-7 14t-3 13q0 14 12 27.5t30 22t37 8.5q32 0 43 -27t11 -63q0 -22 -3.5 -64t-9.5 -90t-12 -90.5t-11 -65.5q-25 -119 -88 -187.5t-182 -68.5zM307 694q-23 0 -23 22q0 12 7 22q20 33 42.5 65t46.5 56
q23 23 46 23q16 0 33.5 -15t17.5 -36q0 -9 -5 -20.5t-16 -21.5q-25 -25 -59.5 -47t-70.5 -42q-10 -6 -19 -6z" />
    <glyph glyph-name="Ucircumflex" unicode="&#xdb;" horiz-adv-x="622" 
d="M276 -13q-105 0 -157 55.5t-52 174.5q0 20 1.5 42t3.5 43q2 20 3 40t1 36q0 60 -5 104t-30 84q-8 13 -8 21q0 13 14.5 25.5t34.5 21.5t38 9q24 0 34.5 -16t13.5 -39.5t3 -47.5q0 -25 -2.5 -55t-7.5 -65q-4 -38 -7.5 -79.5t-3.5 -83.5q0 -58 20.5 -92.5t56 -50t79.5 -15.5
q77 0 116 39.5t54 103.5q7 29 11 66.5t4 76.5q0 49 -6.5 94t-25.5 79l-7 14t-3 13q0 14 12 27.5t30 22t37 8.5q32 0 43 -27t11 -63q0 -22 -3.5 -64t-9.5 -90t-12 -90.5t-11 -65.5q-25 -119 -88 -187.5t-182 -68.5zM196 699q-8 0 -14.5 6.5t-6.5 16.5q0 6 2.5 14t8.5 17
q11 18 30 40.5t39 42.5t30 29q27 21 48 21q13 0 24.5 -6.5t19.5 -14.5q10 -10 27 -29.5t33.5 -42t25.5 -42.5q5 -7 6.5 -14t1.5 -12q0 -10 -7.5 -17.5t-17.5 -7.5q-4 0 -9 1t-10 5q-10 5 -28 18.5t-37.5 30t-34.5 29.5q-30 -22 -62.5 -46t-48.5 -32q-11 -7 -20 -7z" />
    <glyph glyph-name="Udieresis" unicode="&#xdc;" horiz-adv-x="622" 
d="M276 -13q-105 0 -157 55.5t-52 174.5q0 20 1.5 42t3.5 43q2 20 3 40t1 36q0 60 -5 104t-30 84q-8 13 -8 21q0 13 14.5 25.5t34.5 21.5t38 9q24 0 34.5 -16t13.5 -39.5t3 -47.5q0 -25 -2.5 -55t-7.5 -65q-4 -38 -7.5 -79.5t-3.5 -83.5q0 -58 20.5 -92.5t56 -50t79.5 -15.5
q77 0 116 39.5t54 103.5q7 29 11 66.5t4 76.5q0 49 -6.5 94t-25.5 79l-7 14t-3 13q0 14 12 27.5t30 22t37 8.5q32 0 43 -27t11 -63q0 -22 -3.5 -64t-9.5 -90t-12 -90.5t-11 -65.5q-25 -119 -88 -187.5t-182 -68.5zM218 720q-26 0 -41.5 15t-15.5 43q0 29 18.5 47.5
t46.5 18.5q26 0 41.5 -15t15.5 -43t-17.5 -47t-47.5 -19zM417 720q-27 0 -42.5 15t-15.5 43q0 29 18.5 47.5t47.5 18.5q26 0 41 -15t15 -43t-17.5 -47t-46.5 -19z" />
    <glyph glyph-name="Yacute" unicode="&#xdd;" horiz-adv-x="545" 
d="M268 694q-23 0 -23 22q0 12 7 22q20 33 42.5 65.5t46.5 55.5q22 23 46 23q16 0 33.5 -15t17.5 -36q0 -20 -20 -42q-26 -25 -60.5 -47t-70.5 -42q-10 -6 -19 -6zM243 -4q-31 0 -47 13.5t-16 47.5q0 26 8.5 72.5t24.5 103.5q-8 40 -19.5 83.5t-26.5 82.5q-19 53 -46 89
t-64 36q-7 0 -13.5 -1t-11.5 -3q-10 -2 -20.5 14t-10.5 38q0 28 19.5 49.5t53.5 21.5q42 0 77.5 -27.5t63 -92.5t44.5 -177q18 46 43.5 97.5t57.5 97t69 74t78 28.5q27 0 41.5 -13t14.5 -36q0 -16 -6.5 -34t-17.5 -31t-23 -13q-4 0 -8.5 0.5t-9.5 2.5q-10 5 -23 5
q-32 0 -70 -44t-75 -136q-38 -97 -38 -188q0 -21 5.5 -41.5t20.5 -37.5q10 -15 10 -28q0 -22 -24 -37.5t-61 -15.5z" />
    <glyph glyph-name="Thorn" unicode="&#xde;" horiz-adv-x="471" 
d="M111 -10q-23 0 -38 13t-15 56q0 17 2.5 45t8.5 68q10 70 15.5 123t5.5 106q0 61 -6 101t-26 66q-9 14 -9 20q0 12 13.5 25.5t33 22.5t36.5 9q52 0 52 -93q0 -21 -3 -44q17 4 35 5.5t36 1.5q91 0 144 -46t53 -123q0 -61 -32.5 -111t-82.5 -79q-50 -28 -99 -28
q-34 0 -46.5 13.5t-12.5 38.5q0 24 5 37q5 11 18 7q24 -8 55 -8q52 0 82 27.5t30 70.5q0 45 -33.5 70.5t-91.5 25.5q-16 0 -33 -2t-35 -6q-10 -76 -14.5 -130.5t-4.5 -86.5q0 -38 7 -64t26 -43q14 -14 14 -30q0 -23 -26 -40.5t-64 -17.5z" />
    <glyph glyph-name="germandbls" unicode="&#xdf;" horiz-adv-x="528" 
d="M97 -141q-31 0 -47 17t-16 62q0 57 4.5 128t11.5 143.5t16 136t18 104.5q21 103 69 166.5t130 63.5q65 0 102.5 -37.5t37.5 -96.5q0 -44 -22 -86.5t-48 -81.5q-8 -13 -8 -24t15 -19q42 -21 72 -40.5t46 -44.5t16 -63q0 -51 -29 -95.5t-78 -72t-111 -27.5q-55 0 -73 20.5
t-18 44.5q0 27 15 52t34 25q12 0 19 -7q11 -9 29.5 -19t53.5 -10q34 0 55 13t21 37q0 14 -7.5 24.5t-18.5 18.5q-19 14 -54 30.5t-67 30.5q-17 8 -23.5 18.5t-6.5 24.5q0 15 6 26t13 22q25 34 47.5 77t22.5 83q0 31 -17 52t-54 21q-40 0 -58 -28t-29 -66q-13 -48 -19.5 -108
t-9 -122.5t-2.5 -119.5t1.5 -91t5.5 -51.5t9 -25.5q9 -15 21 -19t12 -17q0 -8 -8 -25t-26.5 -30.5t-52.5 -13.5z" />
    <glyph glyph-name="agrave" unicode="&#xe0;" horiz-adv-x="504" 
d="M309 456q-8 0 -19 6q-36 20 -70 42t-60 47q-10 10 -15.5 21.5t-5.5 20.5q0 21 17.5 36t33.5 15q23 0 46 -23q24 -24 46.5 -56t42.5 -65q7 -12 7 -22q0 -22 -23 -22zM162 -13q-60 0 -96.5 37.5t-36.5 107.5q0 50 19.5 99.5t56.5 89.5t89 64t117 24q60 0 102.5 -20.5
t42.5 -55.5q0 -9 -2 -23.5t-5 -23.5q-3 -8 -8.5 -14.5t-14.5 -6.5q-4 0 -15 3q-4 -21 -6 -41t-2 -40q0 -38 11.5 -67.5t45.5 -36.5q9 -2 14.5 -6t5.5 -17q0 -11 -5.5 -28t-21 -30.5t-44.5 -13.5q-39 0 -60 28.5t-21 81.5q-27 -49 -68.5 -80t-97.5 -31zM194 91q40 0 70.5 25
t47.5 63q11 24 17 52.5t8 56.5q-17 8 -39 13t-46 5q-61 0 -100.5 -36t-39.5 -90q0 -40 22 -64.5t60 -24.5z" />
    <glyph glyph-name="aacute" unicode="&#xe1;" horiz-adv-x="504" 
d="M276 456q-10 0 -16.5 6t-6.5 16q0 11 8 22q20 33 42.5 65t45.5 56q25 23 47 23q16 0 33 -15t17 -36q0 -9 -4.5 -20.5t-15.5 -21.5q-25 -25 -59.5 -47t-70.5 -42q-10 -6 -20 -6zM162 -13q-60 0 -96.5 37.5t-36.5 107.5q0 50 19.5 99.5t56.5 89.5t89 64t117 24
q60 0 102.5 -20.5t42.5 -55.5q0 -9 -2 -23.5t-5 -23.5q-3 -8 -8.5 -14.5t-14.5 -6.5q-4 0 -15 3q-4 -21 -6 -41t-2 -40q0 -38 11.5 -67.5t45.5 -36.5q9 -2 14.5 -6t5.5 -17q0 -11 -5.5 -28t-21 -30.5t-44.5 -13.5q-39 0 -60 28.5t-21 81.5q-27 -49 -68.5 -80t-97.5 -31z
M194 91q40 0 70.5 25t47.5 63q11 24 17 52.5t8 56.5q-17 8 -39 13t-46 5q-61 0 -100.5 -36t-39.5 -90q0 -40 22 -64.5t60 -24.5z" />
    <glyph glyph-name="acircumflex" unicode="&#xe2;" horiz-adv-x="504" 
d="M166 461q-8 0 -14.5 6.5t-6.5 16.5q0 6 2.5 14t8.5 17q11 18 30 40.5t39 42.5t30 29q27 21 47 21q14 0 25.5 -6.5t19.5 -14.5q10 -10 27 -29.5t33.5 -42t25.5 -42.5q5 -7 6.5 -14t1.5 -12q0 -10 -7.5 -17.5t-17.5 -7.5q-4 0 -9 1t-11 5q-9 5 -27 18.5t-37.5 30
t-34.5 29.5q-30 -22 -63 -46t-48 -32q-11 -7 -20 -7zM162 -13q-60 0 -96.5 37.5t-36.5 107.5q0 50 19.5 99.5t56.5 89.5t89 64t117 24q60 0 102.5 -20.5t42.5 -55.5q0 -9 -2 -23.5t-5 -23.5q-3 -8 -8.5 -14.5t-14.5 -6.5q-4 0 -15 3q-4 -21 -6 -41t-2 -40q0 -38 11.5 -67.5
t45.5 -36.5q9 -2 14.5 -6t5.5 -17q0 -11 -5.5 -28t-21 -30.5t-44.5 -13.5q-39 0 -60 28.5t-21 81.5q-27 -49 -68.5 -80t-97.5 -31zM194 91q40 0 70.5 25t47.5 63q11 24 17 52.5t8 56.5q-17 8 -39 13t-46 5q-61 0 -100.5 -36t-39.5 -90q0 -40 22 -64.5t60 -24.5z" />
    <glyph glyph-name="atilde" unicode="&#xe3;" horiz-adv-x="504" 
d="M163 478q-14 0 -22.5 14.5t-8.5 32.5q0 30 24.5 56.5t68.5 26.5q37 0 77 -20q17 -8 34 -15.5t32 -7.5q16 0 22.5 9t8.5 19q2 8 6 13.5t12 5.5q13 0 22.5 -14.5t9.5 -33.5q0 -32 -26 -59t-67 -27q-18 0 -37 5.5t-38 14.5q-19 11 -36 17.5t-31 6.5q-16 0 -22.5 -8t-9.5 -17
q-1 -7 -5 -13t-14 -6zM162 -13q-60 0 -96.5 37.5t-36.5 107.5q0 50 19.5 99.5t56.5 89.5t89 64t117 24q60 0 102.5 -20.5t42.5 -55.5q0 -9 -2 -23.5t-5 -23.5q-3 -8 -8.5 -14.5t-14.5 -6.5q-4 0 -15 3q-4 -21 -6 -41t-2 -40q0 -38 11.5 -67.5t45.5 -36.5q9 -2 14.5 -6
t5.5 -17q0 -11 -5.5 -28t-21 -30.5t-44.5 -13.5q-39 0 -60 28.5t-21 81.5q-27 -49 -68.5 -80t-97.5 -31zM194 91q40 0 70.5 25t47.5 63q11 24 17 52.5t8 56.5q-17 8 -39 13t-46 5q-61 0 -100.5 -36t-39.5 -90q0 -40 22 -64.5t60 -24.5z" />
    <glyph glyph-name="adieresis" unicode="&#xe4;" horiz-adv-x="504" 
d="M188 482q-26 0 -41.5 15t-15.5 43q0 29 18 47.5t47 18.5q26 0 41 -15t15 -43t-17 -47t-47 -19zM387 482q-27 0 -42.5 15t-15.5 43q0 29 18.5 47.5t47.5 18.5q26 0 41 -15t15 -43t-17.5 -47t-46.5 -19zM162 -13q-60 0 -96.5 37.5t-36.5 107.5q0 50 19.5 99.5t56.5 89.5
t89 64t117 24q60 0 102.5 -20.5t42.5 -55.5q0 -9 -2 -23.5t-5 -23.5q-3 -8 -8.5 -14.5t-14.5 -6.5q-4 0 -15 3q-4 -21 -6 -41t-2 -40q0 -38 11.5 -67.5t45.5 -36.5q9 -2 14.5 -6t5.5 -17q0 -11 -5.5 -28t-21 -30.5t-44.5 -13.5q-39 0 -60 28.5t-21 81.5q-27 -49 -68.5 -80
t-97.5 -31zM194 91q40 0 70.5 25t47.5 63q11 24 17 52.5t8 56.5q-17 8 -39 13t-46 5q-61 0 -100.5 -36t-39.5 -90q0 -40 22 -64.5t60 -24.5z" />
    <glyph glyph-name="aring" unicode="&#xe5;" horiz-adv-x="504" 
d="M285 458q-49 0 -78 27.5t-29 76.5q0 54 33.5 87t88.5 33q48 0 76.5 -27.5t28.5 -75.5q0 -53 -32 -87t-88 -34zM299 529q20 0 33 10.5t13 26.5q0 19 -16 32t-44 13q-21 0 -34 -11t-13 -28q0 -19 16.5 -31t44.5 -12zM162 -13q-60 0 -96.5 37.5t-36.5 107.5q0 50 19.5 99.5
t56.5 89.5t89 64t117 24q60 0 102.5 -20.5t42.5 -55.5q0 -9 -2 -23.5t-5 -23.5q-3 -8 -8.5 -14.5t-14.5 -6.5q-4 0 -15 3q-4 -21 -6 -41t-2 -40q0 -38 11.5 -67.5t45.5 -36.5q9 -2 14.5 -6t5.5 -17q0 -11 -5.5 -28t-21 -30.5t-44.5 -13.5q-39 0 -60 28.5t-21 81.5
q-27 -49 -68.5 -80t-97.5 -31zM194 91q40 0 70.5 25t47.5 63q11 24 17 52.5t8 56.5q-17 8 -39 13t-46 5q-61 0 -100.5 -36t-39.5 -90q0 -40 22 -64.5t60 -24.5z" />
    <glyph glyph-name="ae" unicode="&#xe6;" horiz-adv-x="678" 
d="M142 -13q-61 0 -97 37.5t-36 107.5q0 50 19.5 99.5t56.5 89.5t89 64t117 24q41 0 74 -9.5t52 -27.5q49 36 111 36q56 0 93.5 -28t37.5 -80q0 -42 -25.5 -74.5t-66 -51t-85.5 -18.5q-29 0 -54.5 7.5t-42.5 18.5q1 -44 31 -72.5t79 -28.5q29 0 59 10.5t52 28.5
q6 5 12.5 8.5t13.5 3.5q9 0 16 -6.5t7 -16.5q0 -12 -10.5 -27t-27.5 -31q-34 -33 -74.5 -48.5t-84.5 -15.5q-62 0 -100.5 28.5t-50.5 80.5q-27 -48 -68 -78.5t-97 -30.5zM473 222q35 0 59.5 14.5t24.5 38.5q0 18 -15 29t-44 11q-37 0 -64.5 -20t-39.5 -55q14 -8 36 -13
t43 -5zM174 91q40 0 70.5 25t47.5 63q11 24 17 52.5t8 56.5q-17 8 -39 13t-46 5q-61 0 -100.5 -36t-39.5 -90q0 -40 22 -64.5t60 -24.5z" />
    <glyph glyph-name="ccedilla" unicode="&#xe7;" horiz-adv-x="409" 
d="M143 -250q-25 0 -42.5 11t-17.5 31q0 15 14 15q33 0 54.5 12t21.5 36q0 25 -26 37q-10 4 -17 10t-7 14q0 4 2.5 8.5t6.5 10.5q19 21 32 53q-61 5 -96 47t-35 113q0 75 32 134t88 93t127 34q48 0 76 -16t28 -44q0 -25 -24 -49q-9 -9 -23.5 -16.5t-22.5 -7.5q-9 0 -15 7
q-10 11 -26 21t-45 10q-49 0 -80 -33.5t-31 -87.5q0 -49 28 -79t74 -30q24 0 52.5 8.5t50.5 24.5q11 10 23 10q20 0 20 -25q0 -33 -33 -63q-16 -14 -38 -25t-47 -19q-9 -12 -19.5 -24.5t-23.5 -24.5q62 -11 65 -71q2 -34 -16.5 -62.5t-48 -45.5t-61.5 -17z" />
    <glyph glyph-name="egrave" unicode="&#xe8;" horiz-adv-x="434" 
d="M272 456q-9 0 -20 6q-36 20 -70 42t-59 47q-11 10 -16 21.5t-5 20.5q0 21 17.5 36t33.5 15q21 0 46 -23q23 -24 45.5 -56t43.5 -65q7 -12 7 -22t-6.5 -16t-16.5 -6zM194 -13q-76 0 -118.5 43.5t-42.5 121.5q0 71 31 129t83.5 92.5t115.5 34.5q60 0 96 -29.5t36 -78.5
q0 -39 -24 -72t-64 -52.5t-89 -19.5q-60 0 -98 27q1 -46 31.5 -74t78.5 -28q29 0 59.5 10.5t52.5 28.5q14 12 26 12q10 0 16.5 -6.5t6.5 -16.5q0 -22 -38 -58q-67 -64 -159 -64zM209 222q36 0 60 15t24 38q0 19 -16 29.5t-44 10.5q-37 0 -64.5 -19.5t-39.5 -54.5
q14 -9 36 -14t44 -5z" />
    <glyph glyph-name="eacute" unicode="&#xe9;" horiz-adv-x="434" 
d="M239 456q-10 0 -16.5 6t-6.5 16q0 11 8 22q20 33 42 65t46 56q23 23 46 23q16 0 33.5 -15t17.5 -36q0 -9 -5 -20.5t-15 -21.5q-26 -25 -60.5 -47t-70.5 -42q-9 -6 -19 -6zM194 -13q-76 0 -118.5 43.5t-42.5 121.5q0 71 31 129t83.5 92.5t115.5 34.5q60 0 96 -29.5
t36 -78.5q0 -39 -24 -72t-64 -52.5t-89 -19.5q-60 0 -98 27q1 -46 31.5 -74t78.5 -28q29 0 59.5 10.5t52.5 28.5q14 12 26 12q10 0 16.5 -6.5t6.5 -16.5q0 -22 -38 -58q-67 -64 -159 -64zM209 222q36 0 60 15t24 38q0 19 -16 29.5t-44 10.5q-37 0 -64.5 -19.5t-39.5 -54.5
q14 -9 36 -14t44 -5z" />
    <glyph glyph-name="ecircumflex" unicode="&#xea;" horiz-adv-x="434" 
d="M129 461q-9 0 -15 6.5t-6 16.5q0 6 2 14t8 17q11 18 30.5 40.5t39.5 42.5t30 29q26 21 47 21q13 0 25 -6.5t19 -14.5q10 -10 27 -29.5t34 -42t26 -42.5q4 -7 5.5 -14t1.5 -12q0 -10 -7 -17.5t-18 -7.5q-4 0 -8.5 1t-10.5 5q-9 5 -27 18.5t-38 30t-35 29.5
q-19 -15 -41 -31t-40.5 -28.5t-28.5 -18.5q-13 -7 -20 -7zM194 -13q-76 0 -118.5 43.5t-42.5 121.5q0 71 31 129t83.5 92.5t115.5 34.5q60 0 96 -29.5t36 -78.5q0 -39 -24 -72t-64 -52.5t-89 -19.5q-60 0 -98 27q1 -46 31.5 -74t78.5 -28q29 0 59.5 10.5t52.5 28.5
q14 12 26 12q10 0 16.5 -6.5t6.5 -16.5q0 -22 -38 -58q-67 -64 -159 -64zM209 222q36 0 60 15t24 38q0 19 -16 29.5t-44 10.5q-37 0 -64.5 -19.5t-39.5 -54.5q14 -9 36 -14t44 -5z" />
    <glyph glyph-name="edieresis" unicode="&#xeb;" horiz-adv-x="434" 
d="M151 482q-27 0 -42.5 15t-15.5 43q0 29 18.5 47.5t46.5 18.5q57 0 57 -58q0 -28 -17.5 -47t-46.5 -19zM349 482q-26 0 -41.5 15t-15.5 43q0 29 18.5 47.5t46.5 18.5q57 0 57 -58q0 -28 -17.5 -47t-47.5 -19zM194 -13q-76 0 -118.5 43.5t-42.5 121.5q0 71 31 129
t83.5 92.5t115.5 34.5q60 0 96 -29.5t36 -78.5q0 -39 -24 -72t-64 -52.5t-89 -19.5q-60 0 -98 27q1 -46 31.5 -74t78.5 -28q29 0 59.5 10.5t52.5 28.5q14 12 26 12q10 0 16.5 -6.5t6.5 -16.5q0 -22 -38 -58q-67 -64 -159 -64zM209 222q36 0 60 15t24 38q0 19 -16 29.5
t-44 10.5q-37 0 -64.5 -19.5t-39.5 -54.5q14 -9 36 -14t44 -5z" />
    <glyph glyph-name="igrave" unicode="&#xec;" horiz-adv-x="248" 
d="M164 456q-7 0 -16 6q-33 20 -63.5 42t-53.5 47q-10 10 -14.5 21.5t-4.5 20.5q0 21 13.5 36t34.5 15q10 0 22 -5t26 -23q18 -21 36 -52t35 -64q2 -5 4 -11t2 -11q0 -22 -21 -22zM123 -10q-30 0 -47 16.5t-17 56.5q0 23 4.5 45t10.5 43q7 22 11.5 45t4.5 49q0 18 -5 34.5
t-22 24.5q-13 7 -22.5 14.5t-9.5 19.5q0 14 13 30t34.5 27.5t44.5 11.5q25 0 36.5 -13t15.5 -33t4 -41q0 -32 -5 -62.5t-10 -56.5q-4 -19 -6 -35t-2 -30q0 -25 12 -37.5t34 -23.5q9 -5 9 -15q0 -8 -8 -25t-27.5 -31t-52.5 -14z" />
    <glyph glyph-name="iacute" unicode="&#xed;" horiz-adv-x="248" 
d="M85 456q-10 0 -16.5 6t-6.5 16q0 11 8 22q20 33 42.5 65t45.5 56q25 23 46 23q17 0 34 -15t17 -36q0 -9 -4.5 -20.5t-15.5 -21.5q-25 -25 -59.5 -47t-70.5 -42q-10 -6 -20 -6zM123 -10q-30 0 -47 16.5t-17 56.5q0 23 4.5 45t10.5 43q7 22 11.5 45t4.5 49q0 18 -5 34.5
t-22 24.5q-13 7 -22.5 14.5t-9.5 19.5q0 14 13 30t34.5 27.5t44.5 11.5q25 0 36.5 -13t15.5 -33t4 -41q0 -32 -5 -62.5t-10 -56.5q-4 -19 -6 -35t-2 -30q0 -25 12 -37.5t34 -23.5q9 -5 9 -15q0 -8 -8 -25t-27.5 -31t-52.5 -14z" />
    <glyph glyph-name="icircumflex" unicode="&#xee;" horiz-adv-x="248" 
d="M14 461q-7 0 -12 6.5t-5 16.5q0 13 9 31t24.5 40t30.5 41.5t22 27.5q13 14 24 19t21 5q22 0 44 -23q8 -9 20.5 -28t25.5 -41.5t20 -42.5q4 -7 5.5 -14t1.5 -12q0 -10 -6.5 -17.5t-14.5 -7.5q-3 0 -7.5 1t-9.5 5q-7 5 -22 17.5t-31.5 28t-29.5 27.5q-25 -21 -52 -43
t-40 -30q-11 -7 -18 -7zM123 -10q-30 0 -47 16.5t-17 56.5q0 23 4.5 45t10.5 43q7 22 11.5 45t4.5 49q0 18 -5 34.5t-22 24.5q-13 7 -22.5 14.5t-9.5 19.5q0 14 13 30t34.5 27.5t44.5 11.5q25 0 36.5 -13t15.5 -33t4 -41q0 -32 -5 -62.5t-10 -56.5q-4 -19 -6 -35t-2 -30
q0 -25 12 -37.5t34 -23.5q9 -5 9 -15q0 -8 -8 -25t-27.5 -31t-52.5 -14z" />
    <glyph glyph-name="idieresis" unicode="&#xef;" horiz-adv-x="257" 
d="M53 482q-27 0 -42.5 15t-15.5 43q0 29 18.5 47.5t46.5 18.5q57 0 57 -58q0 -28 -17.5 -47t-46.5 -19zM207 482q-26 0 -41.5 15t-15.5 43q0 29 18.5 47.5t46.5 18.5q57 0 57 -58q0 -28 -17.5 -47t-47.5 -19zM132 -10q-30 0 -47 16.5t-17 56.5q0 23 5 45t11 43q6 22 11 45
t5 49q0 18 -5 34.5t-22 24.5q-13 7 -23 14.5t-10 19.5q0 14 13 30t34.5 27.5t44.5 11.5q25 0 36.5 -13t15.5 -33t4 -41q0 -32 -4.5 -62.5t-9.5 -56.5q-4 -19 -6.5 -35t-2.5 -30q0 -25 12 -37.5t34 -23.5q10 -5 10 -15q0 -8 -8.5 -25t-27.5 -31t-53 -14z" />
    <glyph glyph-name="eth" unicode="&#xf0;" horiz-adv-x="445" 
d="M187 -13q-39 0 -74 16.5t-57 54.5t-22 100q0 64 25 119t69 88.5t101 33.5q30 0 54.5 -8.5t43.5 -22.5q-3 44 -15 76.5t-29 56.5q-22 -11 -50 -26.5t-45 -25.5q-27 -15 -40 -15t-17 12.5t-4 22.5q0 13 4.5 20t13.5 12q8 5 36.5 19t55.5 29q-15 11 -29.5 19t-27.5 14
q-36 14 -36 32q0 7 4.5 22.5t18 29.5t40.5 14q32 0 61 -22t54 -60l32 18q20 11 32 11q14 0 20 -11.5t6 -25.5q0 -25 -20 -35q-6 -4 -16 -8.5t-23 -9.5q21 -49 32.5 -106.5t11.5 -117.5q0 -33 -4.5 -75.5t-17.5 -86.5t-36.5 -81t-60.5 -60t-91 -23zM198 91q37 0 63 22.5
t42 60.5t22 82q-51 40 -107 40q-53 0 -82 -33t-29 -77q0 -43 26 -69t65 -26z" />
    <glyph glyph-name="ntilde" unicode="&#xf1;" horiz-adv-x="536" 
d="M149 478q-14 0 -22.5 14.5t-8.5 32.5q0 30 24.5 56.5t67.5 26.5q36 0 78 -20q16 -8 33 -15.5t32 -7.5q16 0 22.5 9t9.5 19q2 8 6 13.5t11 5.5q14 0 23.5 -14.5t9.5 -33.5q0 -32 -26 -59t-67 -27q-18 0 -37 5.5t-38 14.5q-19 11 -36 17.5t-31 6.5q-16 0 -22.5 -8t-9.5 -17
q-2 -7 -6 -13t-13 -6zM94 -11q-36 0 -32 24q11 43 18.5 87.5t7.5 85.5q0 53 -6.5 77.5t-17.5 34t-27 14.5q-7 3 -12.5 8t-5.5 14q0 14 11 31t31.5 29.5t46.5 12.5q34 0 47 -23.5t13 -61.5q0 -25 -5 -56t-10 -56l3 -1q20 53 48.5 98.5t66.5 73.5t88 28q53 0 81 -32t28 -80
q0 -20 -4.5 -38t-9.5 -35q-5 -16 -8.5 -33t-3.5 -34q0 -57 54 -77q14 -6 14 -18q0 -9 -6 -26t-22 -31.5t-47 -14.5q-40 0 -62 28.5t-22 72.5q0 25 5.5 50.5t11.5 47.5q4 17 7.5 33.5t3.5 29.5q0 46 -48 46q-41 0 -72 -30.5t-53 -76.5t-36 -93v-24q0 -37 -20.5 -61t-55.5 -24
z" />
    <glyph glyph-name="ograve" unicode="&#xf2;" horiz-adv-x="453" 
d="M255 456q-8 0 -19 6q-36 20 -70 42t-59 47q-11 10 -16.5 21.5t-5.5 20.5q0 21 17.5 36t33.5 15q23 0 46 -23q24 -24 46.5 -56t43.5 -65q6 -10 6 -22q0 -22 -23 -22zM195 -13q-69 0 -110.5 37.5t-41.5 110.5q0 34 9.5 66t25.5 60q-16 -10 -24 -10q-12 0 -16.5 13.5
t-4.5 26.5q0 23 9.5 36.5t18.5 20.5q21 18 66 39.5t108 21.5q86 0 133.5 -48t47.5 -134q0 -67 -28 -121.5t-77.5 -86.5t-115.5 -32zM226 89q50 0 84.5 31.5t34.5 83.5q0 54 -35 77t-81 23q-21 0 -38 -4t-32 -10q-14 -20 -25 -45t-11 -55q0 -50 30 -75.5t73 -25.5z" />
    <glyph glyph-name="oacute" unicode="&#xf3;" horiz-adv-x="453" 
d="M223 456q-23 0 -23 22q0 10 7 22q20 33 42.5 65t46.5 56q23 23 46 23q16 0 33.5 -15t17.5 -36q0 -9 -5 -20.5t-16 -21.5q-25 -25 -59.5 -47t-70.5 -42q-10 -6 -19 -6zM195 -13q-69 0 -110.5 37.5t-41.5 110.5q0 34 9.5 66t25.5 60q-16 -10 -24 -10q-12 0 -16.5 13.5
t-4.5 26.5q0 23 9.5 36.5t18.5 20.5q21 18 66 39.5t108 21.5q86 0 133.5 -48t47.5 -134q0 -67 -28 -121.5t-77.5 -86.5t-115.5 -32zM226 89q50 0 84.5 31.5t34.5 83.5q0 54 -35 77t-81 23q-21 0 -38 -4t-32 -10q-14 -20 -25 -45t-11 -55q0 -50 30 -75.5t73 -25.5z" />
    <glyph glyph-name="ocircumflex" unicode="&#xf4;" horiz-adv-x="453" 
d="M112 461q-8 0 -14.5 6.5t-6.5 16.5q0 6 2.5 14t8.5 17q11 18 30.5 40.5t39 42.5t30.5 29q26 21 47 21q13 0 24.5 -6.5t19.5 -14.5q10 -10 27 -29.5t33.5 -42t25.5 -42.5q5 -7 6.5 -14t1.5 -12q0 -10 -7.5 -17.5t-17.5 -7.5q-4 0 -9 1t-10 5q-9 5 -27 18.5t-38 30
t-35 29.5q-29 -22 -62 -46t-49 -32q-11 -7 -20 -7zM195 -13q-69 0 -110.5 37.5t-41.5 110.5q0 34 9.5 66t25.5 60q-16 -10 -24 -10q-12 0 -16.5 13.5t-4.5 26.5q0 23 9.5 36.5t18.5 20.5q21 18 66 39.5t108 21.5q86 0 133.5 -48t47.5 -134q0 -67 -28 -121.5t-77.5 -86.5
t-115.5 -32zM226 89q50 0 84.5 31.5t34.5 83.5q0 54 -35 77t-81 23q-21 0 -38 -4t-32 -10q-14 -20 -25 -45t-11 -55q0 -50 30 -75.5t73 -25.5z" />
    <glyph glyph-name="otilde" unicode="&#xf5;" horiz-adv-x="453" 
d="M109 478q-14 0 -22 14.5t-8 32.5q0 30 24 56.5t68 26.5q36 0 78 -20q16 -8 33 -15.5t32 -7.5q16 0 22.5 9t9.5 19q2 8 5.5 13.5t11.5 5.5q13 0 23 -14.5t10 -33.5q0 -32 -26.5 -59t-67.5 -27q-18 0 -37 5.5t-37 14.5q-19 11 -36 17.5t-32 6.5q-16 0 -22.5 -8t-8.5 -17
q-2 -7 -6 -13t-14 -6zM195 -13q-69 0 -110.5 37.5t-41.5 110.5q0 34 9.5 66t25.5 60q-16 -10 -24 -10q-12 0 -16.5 13.5t-4.5 26.5q0 23 9.5 36.5t18.5 20.5q21 18 66 39.5t108 21.5q86 0 133.5 -48t47.5 -134q0 -67 -28 -121.5t-77.5 -86.5t-115.5 -32zM226 89
q50 0 84.5 31.5t34.5 83.5q0 54 -35 77t-81 23q-21 0 -38 -4t-32 -10q-14 -20 -25 -45t-11 -55q0 -50 30 -75.5t73 -25.5z" />
    <glyph glyph-name="odieresis" unicode="&#xf6;" horiz-adv-x="453" 
d="M134 482q-26 0 -41.5 15t-15.5 43q0 29 18.5 47.5t46.5 18.5q57 0 57 -58q0 -28 -17.5 -47t-47.5 -19zM333 482q-26 0 -41.5 15t-15.5 43q0 29 18 47.5t47 18.5q26 0 41 -15t15 -43t-17.5 -47t-46.5 -19zM195 -13q-69 0 -110.5 37.5t-41.5 110.5q0 34 9.5 66t25.5 60
q-16 -10 -24 -10q-12 0 -16.5 13.5t-4.5 26.5q0 23 9.5 36.5t18.5 20.5q21 18 66 39.5t108 21.5q86 0 133.5 -48t47.5 -134q0 -67 -28 -121.5t-77.5 -86.5t-115.5 -32zM226 89q50 0 84.5 31.5t34.5 83.5q0 54 -35 77t-81 23q-21 0 -38 -4t-32 -10q-14 -20 -25 -45t-11 -55
q0 -50 30 -75.5t73 -25.5z" />
    <glyph glyph-name="divide" unicode="&#xf7;" horiz-adv-x="499" 
d="M251 338q-29 0 -46 16t-17 44q0 32 20 51t51 19q29 0 45.5 -15.5t16.5 -44.5q0 -30 -19 -50t-51 -20zM81 209q-15 0 -20.5 5.5t-5.5 18.5q0 10 3 24t10.5 25.5t22.5 11.5h329q15 0 19.5 -5.5t4.5 -17.5q0 -9 -3 -24t-10 -26.5t-18 -11.5h-332zM241 34q-28 0 -45 16
t-17 44q0 31 19.5 50.5t51.5 19.5q29 0 45 -15.5t16 -44.5q0 -31 -19 -50.5t-51 -19.5z" />
    <glyph glyph-name="oslash" unicode="&#xf8;" horiz-adv-x="463" 
d="M84 -60q-17 0 -36 13t-19 29q0 13 14 31.5t27 33.5q-23 35 -23 88q0 34 9.5 66t25.5 60q-16 -10 -24 -10q-12 0 -17 13.5t-5 26.5q0 23 10 36.5t19 20.5q21 18 66 39.5t108 21.5q56 0 98 -22q8 14 12 24.5t8 20.5q3 9 7 11.5t16 2.5q17 0 35.5 -9t18.5 -26
q0 -14 -12.5 -37t-28.5 -39q13 -22 20 -49t7 -59q0 -67 -28 -121.5t-77.5 -86.5t-115.5 -32q-43 0 -73 13q-13 -22 -18 -39q-4 -12 -8 -16.5t-16 -4.5zM142 132q29 35 65.5 81.5t67.5 86.5q-10 2 -20.5 3t-21.5 1q-22 0 -39 -4t-31 -10q-14 -20 -25 -45t-11 -55
q0 -35 15 -58zM229 89q51 0 85 31.5t34 83.5q0 38 -16 58q-16 -19 -40 -48.5t-49 -61.5t-46 -59q13 -4 32 -4z" />
    <glyph glyph-name="ugrave" unicode="&#xf9;" horiz-adv-x="517" 
d="M284 456q-8 0 -19 6q-36 20 -70 42t-60 47q-10 10 -15.5 21.5t-5.5 20.5q0 21 17.5 36t33.5 15q23 0 46 -23q24 -24 46.5 -56t42.5 -65q7 -12 7 -22q0 -22 -23 -22zM163 -13q-50 0 -77.5 29t-27.5 84q0 39 11 80q5 17 8 34t3 34q0 44 -27 57q-26 14 -26 30t13.5 32
t33.5 26.5t40 10.5q57 0 57 -93q0 -30 -4.5 -55.5t-10.5 -48.5q-4 -16 -6.5 -32t-2.5 -28q0 -50 49 -50q46 0 86 49t66 137l-1 19q-2 50 17.5 76t57.5 26q33 0 33 -21q0 -7 -2.5 -18t-7.5 -26q-10 -37 -17 -78.5t-7 -76.5q0 -39 12 -64.5t45 -34.5q9 -1 14.5 -5.5t5.5 -18.5
q0 -24 -20 -47t-58 -23q-73 0 -73 103q0 18 3 54l-2 1q-63 -162 -185 -162z" />
    <glyph glyph-name="uacute" unicode="&#xfa;" horiz-adv-x="517" 
d="M252 456q-24 0 -24 22q0 11 8 22q20 33 42.5 65t45.5 56q25 23 47 23q16 0 33 -15t17 -36q0 -9 -4.5 -20.5t-15.5 -21.5q-25 -25 -59.5 -47t-70.5 -42q-10 -6 -19 -6zM163 -13q-50 0 -77.5 29t-27.5 84q0 39 11 80q5 17 8 34t3 34q0 44 -27 57q-26 14 -26 30t13.5 32
t33.5 26.5t40 10.5q57 0 57 -93q0 -30 -4.5 -55.5t-10.5 -48.5q-4 -16 -6.5 -32t-2.5 -28q0 -50 49 -50q46 0 86 49t66 137l-1 19q-2 50 17.5 76t57.5 26q33 0 33 -21q0 -7 -2.5 -18t-7.5 -26q-10 -37 -17 -78.5t-7 -76.5q0 -39 12 -64.5t45 -34.5q9 -1 14.5 -5.5t5.5 -18.5
q0 -24 -20 -47t-58 -23q-73 0 -73 103q0 18 3 54l-2 1q-63 -162 -185 -162z" />
    <glyph glyph-name="ucircumflex" unicode="&#xfb;" horiz-adv-x="517" 
d="M141 461q-8 0 -14.5 6.5t-6.5 16.5q0 6 2.5 14t8.5 17q11 18 30 40.5t39 42.5t30 29q27 21 47 21q14 0 25.5 -6.5t19.5 -14.5q10 -10 27 -29.5t33.5 -42t25.5 -42.5q5 -7 6.5 -14t1.5 -12q0 -10 -7.5 -17.5t-17.5 -7.5q-4 0 -9 1t-10 5q-10 5 -28 18.5t-37.5 30
t-34.5 29.5q-30 -22 -63 -46t-48 -32q-11 -7 -20 -7zM163 -13q-50 0 -77.5 29t-27.5 84q0 39 11 80q5 17 8 34t3 34q0 44 -27 57q-26 14 -26 30t13.5 32t33.5 26.5t40 10.5q57 0 57 -93q0 -30 -4.5 -55.5t-10.5 -48.5q-4 -16 -6.5 -32t-2.5 -28q0 -50 49 -50q46 0 86 49
t66 137l-1 19q-2 50 17.5 76t57.5 26q33 0 33 -21q0 -7 -2.5 -18t-7.5 -26q-10 -37 -17 -78.5t-7 -76.5q0 -39 12 -64.5t45 -34.5q9 -1 14.5 -5.5t5.5 -18.5q0 -24 -20 -47t-58 -23q-73 0 -73 103q0 18 3 54l-2 1q-63 -162 -185 -162z" />
    <glyph glyph-name="udieresis" unicode="&#xfc;" horiz-adv-x="517" 
d="M163 482q-26 0 -41.5 15t-15.5 43q0 29 18 47.5t47 18.5q26 0 41.5 -15t15.5 -43t-17.5 -47t-47.5 -19zM362 482q-27 0 -42.5 15t-15.5 43q0 29 18.5 47.5t47.5 18.5q26 0 41 -15t15 -43t-17.5 -47t-46.5 -19zM163 -13q-50 0 -77.5 29t-27.5 84q0 39 11 80q5 17 8 34
t3 34q0 44 -27 57q-26 14 -26 30t13.5 32t33.5 26.5t40 10.5q57 0 57 -93q0 -30 -4.5 -55.5t-10.5 -48.5q-4 -16 -6.5 -32t-2.5 -28q0 -50 49 -50q46 0 86 49t66 137l-1 19q-2 50 17.5 76t57.5 26q33 0 33 -21q0 -7 -2.5 -18t-7.5 -26q-10 -37 -17 -78.5t-7 -76.5
q0 -39 12 -64.5t45 -34.5q9 -1 14.5 -5.5t5.5 -18.5q0 -24 -20 -47t-58 -23q-73 0 -73 103q0 18 3 54l-2 1q-63 -162 -185 -162z" />
    <glyph glyph-name="yacute" unicode="&#xfd;" horiz-adv-x="483" 
d="M232 456q-10 0 -16.5 6t-6.5 16q0 11 8 22q20 33 42.5 65t45.5 56q25 23 46 23q16 0 33.5 -15t17.5 -36q0 -9 -4.5 -20.5t-15.5 -21.5q-25 -25 -59.5 -47t-70.5 -42q-10 -6 -20 -6zM66 -276q-41 0 -70.5 22t-29.5 59q0 29 17.5 49.5t43.5 20.5q12 0 17 -4t8 -9
q8 -13 18.5 -22.5t28.5 -9.5q24 0 46.5 17t41.5 39q17 19 41 54.5t48 80.5q-22 -19 -41 -27.5t-36 -8.5q-21 0 -41 15.5t-25 58.5q-3 33 -11.5 73t-21 77.5t-30.5 63.5q-7 12 -16 18t-26 8q-12 1 -15.5 7t-3.5 19q0 36 20 58t54 22q41 0 59 -31.5t31 -76.5q5 -18 10.5 -47.5
t10 -63.5t6.5 -65q1 -22 25 -22q32 0 61 20t47.5 52t18.5 67q0 20 -5 36t-17 28q-10 12 -16 19.5t-6 17.5q0 17 16 32t38.5 25t39.5 10q30 0 40 -28.5t5 -62.5q-6 -47 -24 -111t-46.5 -134t-65 -135.5t-77.5 -114.5q-35 -43 -78 -69.5t-90 -26.5z" />
    <glyph glyph-name="thorn" unicode="&#xfe;" horiz-adv-x="494" 
d="M76 -276q-28 0 -44.5 16.5t-16.5 59.5q0 23 3.5 53t8.5 64q7 47 15 97.5t15 97.5q7 51 14.5 117.5t7.5 126.5q0 67 -5.5 126.5t-30.5 114.5q-9 20 -9 27q0 15 11.5 27.5t28 20.5t32.5 8q27 0 40 -23.5t17 -64t4 -92.5q0 -66 -5 -118t-12 -93q29 52 74 86t101 34
q61 0 95.5 -40.5t34.5 -109.5q0 -51 -16 -99.5t-45 -87.5t-69.5 -62t-90.5 -23q-36 0 -63 12.5t-47 32.5q-4 -26 -7.5 -63.5t-3.5 -72.5q0 -27 4.5 -42.5t14.5 -27.5q11 -13 22.5 -15.5t11.5 -16.5q0 -7 -8 -24t-27.5 -31.5t-54.5 -14.5zM257 95q57 0 88 36t31 83
q0 41 -22 63.5t-59 22.5q-38 0 -67 -22.5t-49.5 -58.5t-33.5 -77q50 -47 112 -47z" />
    <glyph glyph-name="ydieresis" unicode="&#xff;" horiz-adv-x="483" 
d="M144 482q-27 0 -42.5 15t-15.5 43q0 29 18.5 47.5t47.5 18.5q26 0 41 -15t15 -43t-17.5 -47t-46.5 -19zM343 482q-27 0 -42.5 15t-15.5 43q0 29 18.5 47.5t46.5 18.5q57 0 57 -58q0 -28 -17.5 -47t-46.5 -19zM66 -276q-41 0 -70.5 22t-29.5 59q0 29 17.5 49.5t43.5 20.5
q12 0 17 -4t8 -9q8 -13 18.5 -22.5t28.5 -9.5q24 0 46.5 17t41.5 39q17 19 41 54.5t48 80.5q-22 -19 -41 -27.5t-36 -8.5q-21 0 -41 15.5t-25 58.5q-3 33 -11.5 73t-21 77.5t-30.5 63.5q-7 12 -16 18t-26 8q-12 1 -15.5 7t-3.5 19q0 36 20 58t54 22q41 0 59 -31.5t31 -76.5
q5 -18 10.5 -47.5t10 -63.5t6.5 -65q1 -22 25 -22q32 0 61 20t47.5 52t18.5 67q0 20 -5 36t-17 28q-10 12 -16 19.5t-6 17.5q0 17 16 32t38.5 25t39.5 10q30 0 40 -28.5t5 -62.5q-6 -47 -24 -111t-46.5 -134t-65 -135.5t-77.5 -114.5q-35 -43 -78 -69.5t-90 -26.5z" />
    <glyph glyph-name="Amacron" unicode="&#x100;" horiz-adv-x="599" 
d="M248 732q-9 -1 -15 9t-6 26q0 14 4 27t18 18q9 3 35.5 5.5t61 4t67 2.5t53.5 1q22 0 34.5 -5.5t12.5 -25.5t-7 -41.5t-21 -20.5q-21 1 -53.5 2.5t-67.5 0.5q-28 0 -62.5 -1t-53.5 -2zM514 -11q-31 0 -52.5 26.5t-41.5 87.5q-10 30 -16.5 58.5t-9.5 55.5
q-13 -20 -23.5 -26.5t-30.5 -6.5q-49 0 -104 1.5t-98 2.5q-2 -18 -3.5 -36.5t-1.5 -36.5q0 -16 1.5 -32t2.5 -31q3 -28 -22 -45t-62 -17q-32 0 -32 28q0 17 9 51q5 23 8 39.5t3 26.5q0 28 -17 38q-14 8 -14 21q0 12 5.5 29t14.5 31.5t17 20.5q7 4 17 7t25 4
q39 112 87.5 193.5t103.5 126t112 44.5q35 0 51 -23.5t16 -78.5v-45q0 -101 15 -186t37 -138q22 -56 61 -92q12 -10 16 -17.5t4 -15.5q0 -15 -11.5 -30t-29.5 -25t-37 -10zM168 292q49 2 86 3.5t62 1.5h70q-2 28 -3.5 59t-1.5 65v58q0 29 -6.5 38.5t-24.5 9.5q-49 0 -98 -64
t-84 -171z" />
    <glyph glyph-name="amacron" unicode="&#x101;" horiz-adv-x="504" 
d="M169 493q-9 0 -15 10t-6 26q0 14 4.5 27t17.5 18q9 3 35.5 5.5t61 4t67 2.5t53.5 1q23 0 35 -5.5t12 -25.5t-7 -41.5t-21 -21.5q-21 0 -53.5 2.5t-67.5 1.5q-27 0 -62 -2t-54 -2zM162 -13q-60 0 -96.5 37.5t-36.5 107.5q0 50 19.5 99.5t56.5 89.5t89 64t117 24
q60 0 102.5 -20.5t42.5 -55.5q0 -9 -2 -23.5t-5 -23.5q-3 -8 -8.5 -14.5t-14.5 -6.5q-4 0 -15 3q-4 -21 -6 -41t-2 -40q0 -38 11.5 -67.5t45.5 -36.5q9 -2 14.5 -6t5.5 -17q0 -11 -5.5 -28t-21 -30.5t-44.5 -13.5q-39 0 -60 28.5t-21 81.5q-27 -49 -68.5 -80t-97.5 -31z
M194 91q40 0 70.5 25t47.5 63q11 24 17 52.5t8 56.5q-17 8 -39 13t-46 5q-61 0 -100.5 -36t-39.5 -90q0 -40 22 -64.5t60 -24.5z" />
    <glyph glyph-name="Abreve" unicode="&#x102;" horiz-adv-x="599" 
d="M361 702q-61 0 -97.5 38.5t-36.5 93.5q1 27 10 38.5t23 11.5q21 0 27 -24q10 -26 29 -43t52 -17t53.5 17t29.5 43q9 24 28 24q17 0 24 -13t7 -34q0 -37 -20 -67.5t-54 -49t-75 -18.5zM514 -11q-31 0 -52.5 26.5t-41.5 87.5q-10 30 -16.5 58.5t-9.5 55.5
q-13 -20 -23.5 -26.5t-30.5 -6.5q-49 0 -104 1.5t-98 2.5q-2 -18 -3.5 -36.5t-1.5 -36.5q0 -16 1.5 -32t2.5 -31q3 -28 -22 -45t-62 -17q-32 0 -32 28q0 17 9 51q5 23 8 39.5t3 26.5q0 28 -17 38q-14 8 -14 21q0 12 5.5 29t14.5 31.5t17 20.5q7 4 17 7t25 4
q39 112 87.5 193.5t103.5 126t112 44.5q35 0 51 -23.5t16 -78.5v-45q0 -101 15 -186t37 -138q22 -56 61 -92q12 -10 16 -17.5t4 -15.5q0 -15 -11.5 -30t-29.5 -25t-37 -10zM168 292q49 2 86 3.5t62 1.5h70q-2 28 -3.5 59t-1.5 65v58q0 29 -6.5 38.5t-24.5 9.5q-49 0 -98 -64
t-84 -171z" />
    <glyph glyph-name="abreve" unicode="&#x103;" horiz-adv-x="504" 
d="M282 464q-61 0 -97.5 38.5t-36.5 93.5q1 27 10 38.5t23 11.5q21 0 27 -24q10 -26 29 -43t52 -17t53.5 17t29.5 43q9 24 28 24q17 0 24 -13t7 -34q0 -37 -20 -67.5t-54 -49t-75 -18.5zM162 -13q-60 0 -96.5 37.5t-36.5 107.5q0 50 19.5 99.5t56.5 89.5t89 64t117 24
q60 0 102.5 -20.5t42.5 -55.5q0 -9 -2 -23.5t-5 -23.5q-3 -8 -8.5 -14.5t-14.5 -6.5q-4 0 -15 3q-4 -21 -6 -41t-2 -40q0 -38 11.5 -67.5t45.5 -36.5q9 -2 14.5 -6t5.5 -17q0 -11 -5.5 -28t-21 -30.5t-44.5 -13.5q-39 0 -60 28.5t-21 81.5q-27 -49 -68.5 -80t-97.5 -31z
M194 91q40 0 70.5 25t47.5 63q11 24 17 52.5t8 56.5q-17 8 -39 13t-46 5q-61 0 -100.5 -36t-39.5 -90q0 -40 22 -64.5t60 -24.5z" />
    <glyph glyph-name="Aogonek" unicode="&#x104;" horiz-adv-x="599" 
d="M432 -246q-50 -1 -75.5 27t-26.5 71q-1 56 36.5 97t95.5 66q-22 28 -42 88q-10 30 -16.5 58.5t-9.5 55.5q-13 -20 -23.5 -26.5t-30.5 -6.5q-49 0 -104 1.5t-98 2.5q-2 -18 -3.5 -36.5t-1.5 -36.5q0 -16 1.5 -32t2.5 -31q3 -28 -22 -45t-62 -17q-32 0 -32 28q0 17 9 51
q5 23 8 39.5t3 26.5q0 28 -17 38q-14 8 -14 21q0 12 5.5 29t14.5 31.5t17 20.5q7 4 17 7t25 4q39 112 87.5 193.5t103.5 126t112 44.5q35 0 51 -23.5t16 -78.5v-45q0 -101 15 -186t37 -138q22 -56 61 -92q12 -10 16 -17.5t4 -15.5q0 -18 -15.5 -35t-36.5 -25
q-28 -12 -54 -30.5t-43 -40t-17 -43.5q1 -19 14 -27.5t29 -7.5q8 0 21 3t26 10q4 4 13 4q13 0 17.5 -8.5t4.5 -14.5q0 -14 -12 -34q-17 -24 -46.5 -37t-60.5 -14zM168 292q49 2 86 3.5t62 1.5h70q-2 28 -3.5 59t-1.5 65v58q0 29 -6.5 38.5t-24.5 9.5q-49 0 -98 -64t-84 -171
z" />
    <glyph glyph-name="aogonek" unicode="&#x105;" horiz-adv-x="504" 
d="M328 -243q-48 0 -74 27.5t-26 71.5q0 53 35.5 93t90.5 63q-12 14 -19 36t-7 50q-27 -49 -68.5 -80t-97.5 -31q-60 0 -96.5 37.5t-36.5 107.5q0 50 19.5 99.5t56.5 89.5t89 64t117 24q60 0 102.5 -20.5t42.5 -55.5q0 -9 -2 -23.5t-5 -23.5q-3 -8 -8.5 -14.5t-14.5 -6.5
q-4 0 -15 3q-4 -21 -6 -41t-2 -40q0 -38 11.5 -67.5t45.5 -36.5q9 -2 14.5 -6t5.5 -17t-8 -35.5t-37 -33.5q-52 -19 -81.5 -46t-29.5 -58q0 -22 13.5 -31t29.5 -9q8 0 20.5 2.5t25.5 9.5q7 4 14 4q13 0 17 -8.5t4 -14.5q0 -7 -2.5 -15t-9.5 -19q-18 -24 -47 -36.5t-61 -12.5
zM194 91q40 0 70.5 25t47.5 63q11 24 17 52.5t8 56.5q-17 8 -39 13t-46 5q-61 0 -100.5 -36t-39.5 -90q0 -40 22 -64.5t60 -24.5z" />
    <glyph glyph-name="Cacute" unicode="&#x106;" horiz-adv-x="567" 
d="M341 694q-23 0 -23 22q0 12 7 22q20 33 42.5 65.5t46.5 55.5q22 23 46 23q16 0 33.5 -15t17.5 -36q0 -20 -20 -42q-26 -25 -60.5 -47t-70.5 -42q-10 -6 -19 -6zM281 -13q-71 0 -124.5 32t-82.5 91t-29 140q0 77 25 148t72 127t113 89t149 33q62 0 102 -19t40 -56
q0 -18 -9.5 -35.5t-24.5 -29.5t-31 -12q-10 0 -16 5q-27 18 -53 26.5t-60 8.5q-71 0 -120 -32.5t-74.5 -85.5t-25.5 -115q0 -60 23 -106t64 -72t96 -26q44 0 85.5 17.5t73.5 48.5q14 13 28 13q12 0 17 -10t5 -20q0 -17 -10 -38.5t-31 -42.5q-37 -37 -91 -58t-111 -21z" />
    <glyph glyph-name="cacute" unicode="&#x107;" horiz-adv-x="409" 
d="M230 456q-10 0 -16.5 6t-6.5 16q0 11 8 22q20 33 42.5 65t45.5 56q25 23 46 23q17 0 34 -15t17 -36q0 -9 -4.5 -20.5t-15.5 -21.5q-25 -25 -59.5 -47t-70.5 -42q-10 -6 -20 -6zM182 -13q-70 0 -109.5 42.5t-39.5 118.5q0 75 32 134t88 93t127 34q48 0 76 -16t28 -44
q0 -25 -24 -49q-9 -9 -23.5 -16.5t-22.5 -7.5q-9 0 -15 7q-10 11 -26 21t-45 10q-49 0 -80 -33.5t-31 -87.5q0 -49 28 -79t74 -30q24 0 52.5 8.5t50.5 24.5q11 10 23 10q20 0 20 -25q0 -33 -33 -63q-25 -23 -66.5 -37.5t-83.5 -14.5z" />
    <glyph glyph-name="Ccaron" unicode="&#x10c;" horiz-adv-x="567" 
d="M357 694q-13 0 -24.5 7t-19.5 14q-10 10 -27 29.5t-33.5 42.5t-25.5 42q-4 8 -6 15t-2 11q0 11 7.5 18t17.5 7q9 0 19 -5q10 -6 27.5 -20l37.5 -30t35 -29q29 23 62 46.5t48 32.5q14 6 20 6q9 0 15.5 -6.5t6.5 -16.5q0 -6 -2.5 -14t-8.5 -16q-10 -18 -30 -41t-39.5 -42.5
t-30.5 -29.5q-25 -21 -47 -21zM281 -13q-71 0 -124.5 32t-82.5 91t-29 140q0 77 25 148t72 127t113 89t149 33q62 0 102 -19t40 -56q0 -18 -9.5 -35.5t-24.5 -29.5t-31 -12q-10 0 -16 5q-27 18 -53 26.5t-60 8.5q-71 0 -120 -32.5t-74.5 -85.5t-25.5 -115q0 -60 23 -106
t64 -72t96 -26q44 0 85.5 17.5t73.5 48.5q14 13 28 13q12 0 17 -10t5 -20q0 -17 -10 -38.5t-31 -42.5q-37 -37 -91 -58t-111 -21z" />
    <glyph glyph-name="ccaron" unicode="&#x10d;" horiz-adv-x="409" 
d="M247 456q-13 0 -24.5 7t-19.5 14q-10 10 -27.5 29.5t-34 42.5t-25.5 42q-4 8 -6 15t-2 11q0 11 7.5 18t17.5 7q4 0 9 -1t11 -5q10 -5 27.5 -19l37.5 -30t34 -29q30 23 63 46.5t48 31.5q13 7 20 7q9 0 15 -6.5t6 -16.5q0 -14 -10 -31q-11 -17 -30.5 -40t-39 -42.5
t-30.5 -29.5q-27 -21 -47 -21zM182 -13q-70 0 -109.5 42.5t-39.5 118.5q0 75 32 134t88 93t127 34q48 0 76 -16t28 -44q0 -25 -24 -49q-9 -9 -23.5 -16.5t-22.5 -7.5q-9 0 -15 7q-10 11 -26 21t-45 10q-49 0 -80 -33.5t-31 -87.5q0 -49 28 -79t74 -30q24 0 52.5 8.5
t50.5 24.5q11 10 23 10q20 0 20 -25q0 -33 -33 -63q-25 -23 -66.5 -37.5t-83.5 -14.5z" />
    <glyph glyph-name="Dcaron" unicode="&#x10e;" horiz-adv-x="605" 
d="M296 694q-13 0 -24.5 7t-19.5 14q-10 10 -27.5 29.5t-34 42.5t-25.5 42q-4 8 -6 15t-2 11q0 11 7.5 18t17.5 7q4 0 9 -1t11 -4q10 -6 27.5 -20l37.5 -30t34 -29q30 23 63 46.5t48 32.5q12 6 20 6q9 0 15 -6.5t6 -16.5q0 -14 -10 -30q-11 -18 -30.5 -41t-39 -42.5
t-30.5 -29.5q-27 -21 -47 -21zM204 -13q-37 0 -68 7t-51 26q-15 14 -20 31.5t-5 38.5q0 34 6 68q9 59 16 127t7 126q0 18 -1.5 41t-4.5 43q-7 -3 -13.5 -5.5t-11.5 -2.5q-9 0 -12 9t-3 20q0 29 13.5 49.5t44.5 36.5q33 18 86.5 31.5t108.5 13.5q125 0 196.5 -73.5
t71.5 -208.5q0 -77 -23.5 -145.5t-69.5 -121t-113 -82t-154 -29.5zM236 99q45 0 90 14t81.5 42t58.5 71.5t22 104.5q0 69 -27 114t-72 67t-100 22q-30 0 -59.5 -5t-46.5 -10q-1 -46 -5.5 -89.5t-10.5 -84.5q-6 -43 -9.5 -84t-3.5 -81q0 -50 20.5 -65.5t61.5 -15.5z" />
    <glyph glyph-name="dcaron" unicode="&#x10f;" horiz-adv-x="511" 
d="M162 -13q-60 0 -94.5 40t-34.5 109q0 51 16.5 100t46.5 88t70 62t87 23q30 0 53.5 -9t41.5 -23q-1 68 -7 122t-29 100q-4 8 -6.5 14.5t-2.5 12.5q0 14 11.5 26t28.5 20t32 8q27 0 40.5 -23.5t17.5 -64t4 -92.5q0 -76 -7 -137t-13 -107q-4 -30 -7 -52t-3 -36q0 -71 61 -84
q16 -3 16 -21q0 -11 -6.5 -28t-23.5 -30.5t-49 -13.5q-43 0 -58 29t-15 88q-28 -51 -71 -86t-99 -35zM511 447q-23 0 -23 21q0 9 5 24q9 23 9 52q0 24 -5.5 38t-11 25t-5.5 24q0 23 16.5 36t34.5 13q27 0 38.5 -26.5t11.5 -55.5q0 -32 -11 -68t-25 -58q-15 -25 -34 -25z
M193 94q28 0 56 18t50 49q13 19 23.5 43.5t19.5 49.5q-51 46 -113 46q-54 0 -86 -32.5t-32 -80.5q0 -41 24 -67t58 -26z" />
    <glyph glyph-name="Dcroat" unicode="&#x110;" horiz-adv-x="605" 
d="M204 -13q-40 0 -69.5 7.5t-49.5 25.5q-14 14 -19.5 31t-5.5 39q0 29 6 68q6 37 10 68.5t6 57.5h-26q-20 0 -30 4t-10 15q0 20 12 34t23 13l36 -2q2 16 2.5 35t0.5 32q0 21 -2 41t-5 39q-18 -8 -25 -8q-15 0 -15 29q0 54 58 86q35 20 89 32.5t106 12.5q126 0 197 -74
t71 -208q0 -104 -42.5 -190t-124.5 -138q-82 -50 -193 -50zM236 99q65 1 122.5 26t93.5 78q36 51 36 128q0 99 -56.5 151t-142.5 52q-47 0 -106 -15q-1 -63 -15 -171q44 2 80 3.5t65 1.5q21 0 29 -6t8 -20q0 -20 -11 -33t-23 -13l-156 5q-6 -63 -6 -106q0 -47 19.5 -64
t62.5 -17z" />
    <glyph glyph-name="dcroat" unicode="&#x111;" horiz-adv-x="509" 
d="M162 -13q-60 0 -94.5 40t-34.5 109q0 51 16.5 100t46.5 88t70 62t87 23q30 0 53.5 -9t41.5 -23q0 30 -1.5 56.5t-3.5 51.5h-27q-29 0 -45.5 -0.5t-27.5 -1t-23 -0.5q-21 0 -30.5 3.5t-9.5 15.5q0 23 12.5 35t22.5 12t32.5 -1.5t48.5 -1.5h35q-4 14 -8 27.5t-11 25.5
q-4 8 -6.5 14.5t-2.5 12.5q0 14 11.5 26t28.5 20t32 8q34 0 46.5 -35.5t14.5 -94.5q7 1 17 1.5t18 0.5q23 0 30.5 -6.5t7.5 -19.5q0 -23 -12 -34.5t-23 -11.5q-7 0 -16.5 0.5t-20.5 0.5q-1 -70 -7.5 -126t-12.5 -99q-4 -30 -7 -52t-3 -36q0 -71 61 -84q16 -3 16 -21
q0 -11 -6.5 -28t-23.5 -30.5t-49 -13.5q-43 0 -58 29t-15 88q-28 -51 -71 -86t-99 -35zM193 94q28 0 56 18t50 49q13 19 23.5 43.5t19.5 49.5q-51 46 -113 46q-54 0 -86 -32.5t-32 -80.5q0 -41 24 -67t58 -26z" />
    <glyph glyph-name="Emacron" unicode="&#x112;" horiz-adv-x="505" 
d="M244 -13q-95 0 -140.5 30.5t-45.5 114.5q0 17 2.5 41t7.5 58q8 49 12 87.5t4 84.5q0 30 -1.5 58t-5.5 53q-15 -3 -20 -3q-8 0 -11 3.5t-3 13.5q0 21 5 41.5t14 33.5q17 24 52 28q27 3 66.5 6t81 4.5t74.5 1.5q92 0 109 -4q26 -4 26 -28q0 -30 -21 -55q-11 -15 -22 -21.5
t-31 -5.5q-44 3 -77 4t-46 1q-23 0 -47.5 -1t-49.5 -3q0 -35 -3 -75t-8 -84q46 3 104 4.5t103 1.5q20 0 27.5 -4t7.5 -21q0 -16 -8.5 -35.5t-22.5 -33.5q-6 -6 -13 -9.5t-19 -2.5q-43 2 -97.5 3t-95.5 0q-4 -23 -6 -42t-2 -34q0 -55 28 -77t92 -22q39 0 75.5 7t74.5 26
q14 8 21 8q11 0 21.5 -15.5t10.5 -33.5q0 -22 -16.5 -41.5t-43.5 -33.5q-31 -14 -74 -21.5t-89 -7.5z" />
    <glyph glyph-name="emacron" unicode="&#x113;" horiz-adv-x="434" 
d="M132 493q-9 0 -15.5 10t-6.5 26q0 14 4.5 27t17.5 18q9 3 36 5.5t61 4t66.5 2.5t53.5 1q23 0 35 -5.5t12 -25.5t-6.5 -41.5t-20.5 -21.5q-21 0 -53.5 2.5t-67.5 1.5q-28 0 -63 -2t-53 -2zM194 -13q-76 0 -118.5 43.5t-42.5 121.5q0 71 31 129t83.5 92.5t115.5 34.5
q60 0 96 -29.5t36 -78.5q0 -39 -24 -72t-64 -52.5t-89 -19.5q-60 0 -98 27q1 -46 31.5 -74t78.5 -28q29 0 59.5 10.5t52.5 28.5q14 12 26 12q10 0 16.5 -6.5t6.5 -16.5q0 -22 -38 -58q-67 -64 -159 -64zM209 222q36 0 60 15t24 38q0 19 -16 29.5t-44 10.5q-37 0 -64.5 -19.5
t-39.5 -54.5q14 -9 36 -14t44 -5z" />
    <glyph glyph-name="Edotaccent" unicode="&#x116;" horiz-adv-x="505" 
d="M244 -13q-95 0 -140.5 30.5t-45.5 114.5q0 17 2.5 41t7.5 58q8 49 12 87.5t4 84.5q0 30 -1.5 58t-5.5 53q-15 -3 -20 -3q-8 0 -11 3.5t-3 13.5q0 21 5 41.5t14 33.5q17 24 52 28q27 3 66.5 6t81 4.5t74.5 1.5q92 0 109 -4q26 -4 26 -28q0 -30 -21 -55q-11 -15 -22 -21.5
t-31 -5.5q-44 3 -77 4t-46 1q-23 0 -47.5 -1t-49.5 -3q0 -35 -3 -75t-8 -84q46 3 104 4.5t103 1.5q20 0 27.5 -4t7.5 -21q0 -16 -8.5 -35.5t-22.5 -33.5q-6 -6 -13 -9.5t-19 -2.5q-43 2 -97.5 3t-95.5 0q-4 -23 -6 -42t-2 -34q0 -55 28 -77t92 -22q39 0 75.5 7t74.5 26
q14 8 21 8q11 0 21.5 -15.5t10.5 -33.5q0 -22 -16.5 -41.5t-43.5 -33.5q-31 -14 -74 -21.5t-89 -7.5z" />
    <glyph glyph-name="edotaccent" unicode="&#x117;" horiz-adv-x="434" 
d="M250 478q-29 0 -46 16t-17 45q0 31 20 50.5t51 19.5q29 0 45.5 -16t16.5 -45q0 -30 -19 -50t-51 -20zM194 -13q-76 0 -118.5 43.5t-42.5 121.5q0 71 31 129t83.5 92.5t115.5 34.5q60 0 96 -29.5t36 -78.5q0 -39 -24 -72t-64 -52.5t-89 -19.5q-60 0 -98 27q1 -46 31.5 -74
t78.5 -28q29 0 59.5 10.5t52.5 28.5q14 12 26 12q10 0 16.5 -6.5t6.5 -16.5q0 -22 -38 -58q-67 -64 -159 -64zM209 222q36 0 60 15t24 38q0 19 -16 29.5t-44 10.5q-37 0 -64.5 -19.5t-39.5 -54.5q14 -9 36 -14t44 -5z" />
    <glyph glyph-name="Eogonek" unicode="&#x118;" horiz-adv-x="505" 
d="M300 -229q-46 0 -71.5 26t-25.5 66q0 42 21 72t61 52q-76 0 -126.5 9t-75.5 40t-25 96q0 17 2.5 41t7.5 58q8 49 12 87.5t4 84.5q0 30 -1.5 58t-5.5 53q-15 -3 -20 -3q-8 0 -11 3.5t-3 13.5q0 21 5 41.5t14 33.5q17 24 52 28q27 3 66.5 6t81 4.5t74.5 1.5q92 0 109 -4
q26 -4 26 -28q0 -30 -21 -55q-11 -15 -22 -21.5t-31 -5.5q-44 3 -77 4t-46 1q-23 0 -47.5 -1t-49.5 -3q0 -35 -3 -75t-8 -84q46 3 104 4.5t103 1.5q20 0 27.5 -4t7.5 -21q0 -16 -8.5 -35.5t-22.5 -33.5q-6 -6 -13 -9.5t-19 -2.5q-43 2 -97.5 3t-95.5 0q-4 -23 -6 -42t-2 -34
q0 -55 28 -77t92 -22q39 0 75.5 7t74.5 26q14 8 21 8q11 0 21.5 -15.5t10.5 -33.5q0 -22 -16.5 -41.5t-43.5 -33.5q-49 -24 -72 -48q-17 -16 -27 -36t-10 -37q0 -19 14.5 -25t30.5 -6q8 0 20.5 3.5t24.5 10.5q8 5 16 5q12 0 16 -7.5t4 -13.5q0 -7 -1.5 -15.5t-7.5 -19.5
q-18 -27 -50 -41.5t-65 -14.5z" />
    <glyph glyph-name="eogonek" unicode="&#x119;" horiz-adv-x="434" 
d="M228 -234q-46 0 -71 28.5t-25 69.5q0 69 62 123q-76 0 -118.5 43.5t-42.5 121.5q0 71 31 129t83.5 92.5t115.5 34.5q60 0 96 -29.5t36 -78.5q0 -39 -24 -72t-64 -52.5t-89 -19.5q-60 0 -98 27q1 -46 31.5 -74t78.5 -28q29 0 59.5 10.5t52.5 28.5q14 12 26 12
q10 0 16.5 -6.5t6.5 -16.5q0 -22 -38 -58q-7 -7 -14.5 -13t-18.5 -14q-37 -25 -66.5 -58.5t-29.5 -66.5q0 -21 12 -29t25 -8q16 0 31.5 7.5t24.5 14.5t18 7q11 0 15.5 -9.5t4.5 -17.5q0 -13 -7 -27q-15 -32 -49 -51.5t-71 -19.5zM209 222q36 0 60 15t24 38q0 19 -16 29.5
t-44 10.5q-37 0 -64.5 -19.5t-39.5 -54.5q14 -9 36 -14t44 -5z" />
    <glyph glyph-name="Ecaron" unicode="&#x11a;" horiz-adv-x="505" 
d="M272 694q-13 0 -24.5 7t-19.5 14q-10 10 -27.5 29.5t-34 42.5t-25.5 42q-4 8 -6 15t-2 11q0 11 7.5 18t17.5 7q4 0 9 -1t11 -4q10 -6 27.5 -20l37.5 -30t34 -29q30 23 63 46.5t48 32.5q12 6 20 6q9 0 15 -6.5t6 -16.5q0 -14 -10 -30q-11 -18 -30.5 -41t-39 -42.5
t-30.5 -29.5q-27 -21 -47 -21zM244 -13q-95 0 -140.5 30.5t-45.5 114.5q0 17 2.5 41t7.5 58q8 49 12 87.5t4 84.5q0 30 -1.5 58t-5.5 53q-15 -3 -20 -3q-8 0 -11 3.5t-3 13.5q0 21 5 41.5t14 33.5q17 24 52 28q27 3 66.5 6t81 4.5t74.5 1.5q92 0 109 -4q26 -4 26 -28
q0 -30 -21 -55q-11 -15 -22 -21.5t-31 -5.5q-44 3 -77 4t-46 1q-23 0 -47.5 -1t-49.5 -3q0 -35 -3 -75t-8 -84q46 3 104 4.5t103 1.5q20 0 27.5 -4t7.5 -21q0 -16 -8.5 -35.5t-22.5 -33.5q-6 -6 -13 -9.5t-19 -2.5q-43 2 -97.5 3t-95.5 0q-4 -23 -6 -42t-2 -34q0 -55 28 -77
t92 -22q39 0 75.5 7t74.5 26q14 8 21 8q11 0 21.5 -15.5t10.5 -33.5q0 -22 -16.5 -41.5t-43.5 -33.5q-31 -14 -74 -21.5t-89 -7.5z" />
    <glyph glyph-name="ecaron" unicode="&#x11b;" horiz-adv-x="434" 
d="M255 456q-13 0 -24.5 7t-19.5 14q-10 10 -27 29.5t-33.5 42.5t-25.5 42q-4 8 -6 15t-2 11q0 11 7.5 18t17.5 7q4 0 9 -1t10 -5q10 -5 27.5 -19l37.5 -30t35 -29q29 23 62 46.5t49 31.5q11 7 20 7q8 0 14.5 -6.5t6.5 -16.5q0 -6 -2.5 -14t-8.5 -17q-10 -17 -30 -40
t-39.5 -42.5t-30.5 -29.5q-25 -21 -47 -21zM194 -13q-76 0 -118.5 43.5t-42.5 121.5q0 71 31 129t83.5 92.5t115.5 34.5q60 0 96 -29.5t36 -78.5q0 -39 -24 -72t-64 -52.5t-89 -19.5q-60 0 -98 27q1 -46 31.5 -74t78.5 -28q29 0 59.5 10.5t52.5 28.5q14 12 26 12
q10 0 16.5 -6.5t6.5 -16.5q0 -22 -38 -58q-67 -64 -159 -64zM209 222q36 0 60 15t24 38q0 19 -16 29.5t-44 10.5q-37 0 -64.5 -19.5t-39.5 -54.5q14 -9 36 -14t44 -5z" />
    <glyph glyph-name="Gbreve" unicode="&#x11e;" horiz-adv-x="641" 
d="M347 702q-61 0 -98 38.5t-37 93.5q1 27 10.5 38.5t23.5 11.5q21 0 27 -24q9 -26 28 -43t52 -17t53.5 17t30.5 43q9 24 28 24q17 0 23.5 -13t6.5 -34q0 -37 -20 -67.5t-53.5 -49t-74.5 -18.5zM288 -13q-69 0 -124 31t-87 90t-32 143q0 76 25.5 146.5t72.5 127t114 89.5
t149 33q60 0 100 -19t40 -56q0 -18 -9.5 -35.5t-24.5 -29.5t-31 -12q-10 0 -16 5q-52 35 -118 35q-70 0 -118 -32.5t-72.5 -85.5t-24.5 -115q0 -93 52.5 -148t140.5 -55q38 0 71 11t54 32t21 51t-18 46t-47 23.5t-63 9.5q-24 2 -35.5 6t-11.5 24q0 24 15 40t37 18
q30 3 72 4.5t87.5 2t85.5 0.5q13 0 20 -4.5t7 -18.5q0 -17 -7.5 -37t-20.5 -34t-30 -14h-16q3 -10 5.5 -22.5t2.5 -28.5q0 -44 -21 -83.5t-58 -70.5t-85 -49t-102 -18z" />
    <glyph glyph-name="gbreve" unicode="&#x11f;" horiz-adv-x="445" 
d="M243 464q-61 0 -98 38.5t-37 93.5q1 27 10.5 38.5t23.5 11.5q21 0 27 -24q9 -26 28 -43t53 -17q33 0 53.5 17t29.5 43q9 24 28 24q17 0 24 -13t7 -34q0 -37 -20.5 -67.5t-54 -49t-74.5 -18.5zM168 -276q-75 0 -119 31t-44 80q0 36 22.5 64t59.5 28q21 0 21 -12
q0 -7 -2.5 -16t-2.5 -18q0 -28 32 -41.5t77 -13.5q28 0 57 6t48.5 18.5t19.5 33.5q0 23 -23 34t-58 16.5t-71.5 10t-62.5 14.5q-33 11 -49 27t-16 41q0 47 57 75q-33 17 -49.5 48t-16.5 69q0 49 25.5 92t76 70.5t126.5 27.5q34 0 69 -6.5t58.5 -24t23.5 -50.5
q0 -12 -5 -26.5t-19 -14.5q-6 0 -16 2.5l-18 4.5q2 -10 3.5 -22t1.5 -25q0 -59 -40 -106.5t-117 -56.5q-28 -2 -41.5 -6.5t-13.5 -15.5q0 -10 12 -14.5t31 -6.5q61 -5 108 -17t73.5 -38.5t26.5 -75.5q0 -57 -33.5 -98.5t-89.5 -64.5t-122 -23zM206 171q46 0 72 25t26 65
q0 11 -2 22.5t-4 19.5q-16 5 -31 6.5t-29 1.5q-53 0 -83 -20t-30 -55q0 -31 22 -48t59 -17z" />
    <glyph glyph-name="uni0122" unicode="&#x122;" horiz-adv-x="641" 
d="M288 -13q-69 0 -124 31t-87 90t-32 143q0 76 25.5 146.5t72.5 127t114 89.5t149 33q60 0 100 -19t40 -56q0 -18 -9.5 -35.5t-24.5 -29.5t-31 -12q-10 0 -16 5q-52 35 -118 35q-70 0 -118 -32.5t-72.5 -85.5t-24.5 -115q0 -93 52.5 -148t140.5 -55q38 0 71 11t54 32t21 51
t-18 46t-47 23.5t-63 9.5q-24 2 -35.5 6t-11.5 24q0 24 15 40t37 18q30 3 72 4.5t87.5 2t85.5 0.5q13 0 20 -4.5t7 -18.5q0 -17 -7.5 -37t-20.5 -34t-30 -14h-16q3 -10 5.5 -22.5t2.5 -28.5q0 -44 -21 -83.5t-58 -70.5t-85 -49t-102 -18zM252 -321q-23 0 -23 19q0 14 23 31
q18 16 30.5 36t12.5 42q0 6 -4 10t-15 10q-14 8 -20 21.5t-6 26.5q0 25 18 44.5t51 19.5q28 0 47 -18t19 -58q0 -52 -27 -94.5t-58 -68.5q-15 -13 -27 -17t-21 -4z" />
    <glyph glyph-name="uni0123" unicode="&#x123;" horiz-adv-x="445" 
d="M251 457q-28 0 -47.5 18t-19.5 58q0 53 27.5 95t58.5 68q14 12 26 16t22 4q22 0 22 -18q0 -9 -5.5 -16t-16.5 -16q-19 -16 -31 -35.5t-12 -42.5q0 -5 3.5 -9t15.5 -11q14 -7 20 -20.5t6 -27.5q0 -24 -18 -43.5t-51 -19.5zM168 -276q-75 0 -119 31t-44 80q0 36 22.5 64
t59.5 28q21 0 21 -12q0 -7 -2.5 -16t-2.5 -18q0 -28 32 -41.5t77 -13.5q28 0 57 6t48.5 18.5t19.5 33.5q0 23 -23 34t-58 16.5t-71.5 10t-62.5 14.5q-33 11 -49 27t-16 41q0 47 57 75q-33 17 -49.5 48t-16.5 69q0 49 25.5 92t76 70.5t126.5 27.5q34 0 69 -6.5t58.5 -24
t23.5 -50.5q0 -12 -5 -26.5t-19 -14.5q-6 0 -16 2.5l-18 4.5q2 -10 3.5 -22t1.5 -25q0 -59 -40 -106.5t-117 -56.5q-28 -2 -41.5 -6.5t-13.5 -15.5q0 -10 12 -14.5t31 -6.5q61 -5 108 -17t73.5 -38.5t26.5 -75.5q0 -57 -33.5 -98.5t-89.5 -64.5t-122 -23zM206 171
q46 0 72 25t26 65q0 11 -2 22.5t-4 19.5q-16 5 -31 6.5t-29 1.5q-53 0 -83 -20t-30 -55q0 -31 22 -48t59 -17z" />
    <glyph glyph-name="Imacron" unicode="&#x12a;" horiz-adv-x="257" 
d="M41 732q-8 0 -14.5 9.5t-6.5 25.5t4.5 28t17.5 17q12 5 39.5 7.5t60 4t60.5 1.5q22 0 34.5 -5t12.5 -24q0 -22 -7 -43.5t-21 -20.5q-21 2 -42.5 3t-49.5 1q-20 0 -44.5 -1t-43.5 -3zM118 -10q-24 0 -39 13t-15 53q0 20 4 52l8 64q11 71 16 123t5 106q0 50 -5.5 93
t-27.5 74q-8 13 -8 20q0 12 13.5 25.5t33 22.5t36.5 9q31 0 41.5 -27.5t10.5 -68.5q0 -25 -3 -62t-6.5 -71.5t-6.5 -53.5q-7 -53 -11 -99t-4 -78q0 -38 7.5 -64t26.5 -43q13 -12 13 -27q0 -24 -24.5 -42.5t-64.5 -18.5z" />
    <glyph glyph-name="imacron" unicode="&#x12b;" horiz-adv-x="248" 
d="M26 491q-21 0 -21 34q0 14 4.5 27.5t17.5 17.5q12 5 39.5 7.5t60 4t59.5 1.5q23 0 35 -5.5t12 -25.5q0 -22 -6.5 -41.5t-21.5 -19.5q-20 0 -41.5 1.5t-50.5 1.5q-20 0 -44 -1.5t-43 -1.5zM123 -10q-30 0 -47 16.5t-17 56.5q0 23 4.5 45t10.5 43q7 22 11.5 45t4.5 49
q0 18 -5 34.5t-22 24.5q-13 7 -22.5 14.5t-9.5 19.5q0 14 13 30t34.5 27.5t44.5 11.5q25 0 36.5 -13t15.5 -33t4 -41q0 -32 -5 -62.5t-10 -56.5q-4 -19 -6 -35t-2 -30q0 -25 12 -37.5t34 -23.5q9 -5 9 -15q0 -8 -8 -25t-27.5 -31t-52.5 -14z" />
    <glyph glyph-name="Iogonek" unicode="&#x12e;" horiz-adv-x="257" 
d="M84 -251q-46 0 -70.5 31.5t-24.5 74.5q0 44 25.5 81.5t65.5 65.5q-7 8 -11.5 20.5t-4.5 33.5q0 20 4 52l8 64q11 71 16 123t5 106q0 50 -5.5 93t-27.5 74q-8 13 -8 20q0 12 13.5 25.5t33 22.5t36.5 9q31 0 41.5 -27.5t10.5 -68.5q0 -25 -3 -62t-6.5 -71.5t-6.5 -53.5
q-7 -53 -11 -99t-4 -78q0 -38 7.5 -64t26.5 -43q13 -12 13 -27q0 -16 -9.5 -28t-23.5 -20q-37 -18 -64.5 -51t-27.5 -67q0 -22 12 -31t27 -9q16 0 30 7.5t23 14.5q5 3 9.5 4t8.5 1q13 0 17 -9.5t4 -17.5q0 -11 -8 -26q-16 -32 -50.5 -51t-70.5 -19z" />
    <glyph glyph-name="iogonek" unicode="&#x12f;" horiz-adv-x="248" 
d="M115 478q-28 0 -45 16t-17 45q0 31 20 50.5t51 19.5q29 0 45 -16t16 -45q0 -30 -19 -50t-51 -20zM95 -219q-44 0 -68 25t-24 65q0 41 22 73t59 56q-25 16 -25 63q0 23 4.5 45t10.5 43q7 22 11.5 45t4.5 49q0 18 -5 34.5t-22 24.5q-13 7 -22.5 14.5t-9.5 19.5q0 14 13 30
t34.5 27.5t44.5 11.5q25 0 36.5 -13t15.5 -33t4 -41q0 -32 -5 -62.5t-10 -56.5q-4 -19 -6 -35t-2 -30q0 -25 12 -37.5t34 -23.5q9 -5 9 -15t-10 -29.5t-36 -31.5q-39 -19 -55 -43t-16 -47q0 -22 11.5 -30.5t26.5 -8.5q8 0 22.5 3t25.5 12q6 6 16 6q9 0 13.5 -6.5t4.5 -16.5
q0 -4 -1.5 -13t-8.5 -20q-16 -25 -46.5 -39.5t-62.5 -14.5z" />
    <glyph glyph-name="Idotaccent" unicode="&#x130;" horiz-adv-x="257" 
d="M131 716q-29 0 -46 16t-17 45q0 31 20 50.5t51 19.5q29 0 45.5 -16t16.5 -45q0 -30 -19 -50t-51 -20zM118 -10q-24 0 -39 13t-15 53q0 20 4 52l8 64q11 71 16 123t5 106q0 50 -5.5 93t-27.5 74q-8 13 -8 20q0 12 13.5 25.5t33 22.5t36.5 9q31 0 41.5 -27.5t10.5 -68.5
q0 -25 -3 -62t-6.5 -71.5t-6.5 -53.5q-7 -53 -11 -99t-4 -78q0 -38 7.5 -64t26.5 -43q13 -12 13 -27q0 -24 -24.5 -42.5t-64.5 -18.5z" />
    <glyph glyph-name="dotlessi" unicode="&#x131;" horiz-adv-x="248" 
d="M123 -10q-30 0 -47 16.5t-17 56.5q0 23 4.5 45t10.5 43q7 22 11.5 45t4.5 49q0 18 -5 34.5t-22 24.5q-13 7 -22.5 14.5t-9.5 19.5q0 14 13 30t34.5 27.5t44.5 11.5q25 0 36.5 -13t15.5 -33t4 -41q0 -32 -5 -62.5t-10 -56.5q-4 -19 -6 -35t-2 -30q0 -25 12 -37.5t34 -23.5
q9 -5 9 -15q0 -8 -8 -25t-27.5 -31t-52.5 -14z" />
    <glyph glyph-name="uni0136" unicode="&#x136;" horiz-adv-x="575" 
d="M92 -11q-27 0 -34 12t-3 34q15 74 26 161t11 175q0 60 -4.5 107t-29.5 88q-4 6 -6.5 11.5t-2.5 9.5q0 13 14.5 25.5t34.5 21.5t38 9q24 0 34.5 -16t12.5 -39.5t2 -47.5t-2.5 -53.5t-5.5 -64.5q-5 -46 -10 -100.5t-5 -113.5q0 -67 5 -109.5t7 -55.5q3 -17 -10 -29
t-33 -18.5t-39 -6.5zM473 -9q-40 0 -76.5 20t-68.5 52t-57.5 70t-44 75t-27.5 65q-9 27 -9 47q0 22 16 53q13 24 38 58t57.5 71t68 69t71.5 52t67 20q28 0 40.5 -16.5t12.5 -37.5q0 -17 -7 -36t-19 -32t-28 -13q-11 0 -17 2q-12 3 -23 3q-13 0 -30.5 -5t-38.5 -19
q-17 -12 -42 -35.5t-51 -53.5t-48 -64q14 -34 38 -68.5t50 -64.5q47 -54 90.5 -79t106.5 -25q13 0 17.5 -6t4.5 -19q0 -29 -21.5 -56t-69.5 -27zM209 -311q-22 0 -22 18q0 9 6 16t16 16q19 16 31 36t12 42q0 5 -3.5 9t-15.5 11q-13 7 -19.5 21t-6.5 27q0 24 18 43.5t51 19.5
q29 0 48 -18t19 -58q0 -52 -27 -94.5t-59 -68.5q-14 -12 -26 -16t-22 -4z" />
    <glyph glyph-name="uni0137" unicode="&#x137;" horiz-adv-x="500" 
d="M76 -11q-11 0 -21 6.5t-8 17.5q15 80 25.5 162.5t10.5 166.5q0 74 -5 134t-32 115q-5 11 -8 19t-3 15q0 19 22 37t47 18q36 0 49 -44t13 -130q0 -103 -12 -179.5t-21 -116.5l4 -2q20 49 51 94.5t71.5 75.5t88.5 30q47 0 72.5 -28t25.5 -67q0 -46 -33 -82t-86 -60
q13 -34 37 -53.5t61 -19.5q12 0 20 2q13 3 13 -25q0 -16 -6 -36t-23.5 -34.5t-52.5 -14.5q-47 0 -76.5 27.5t-46 68t-25.5 80.5q-8 37 25 39q35 4 59 21t24 45q0 32 -31 32q-20 0 -40.5 -14.5t-38 -34.5t-28.5 -39q-15 -26 -26 -51t-18 -50v-40q0 -37 -21.5 -61t-56.5 -24z
M169 -321q-22 0 -22 19q0 14 22 31q19 16 31 36t12 42q0 6 -4 10t-15 10q-13 8 -19.5 21.5t-6.5 26.5q0 25 18 44.5t51 19.5q29 0 47.5 -18t18.5 -58q0 -52 -27 -94.5t-58 -68.5q-14 -13 -26.5 -17t-21.5 -4z" />
    <glyph glyph-name="Lacute" unicode="&#x139;" horiz-adv-x="466" 
d="M102 694q-23 0 -23 22q0 12 7 22q20 33 42.5 65.5t46.5 55.5q22 23 46 23q16 0 33.5 -15t17.5 -36q0 -20 -20 -42q-26 -25 -60.5 -47t-70.5 -42q-10 -6 -19 -6zM232 -13q-68 0 -105 15t-51 42t-14 64q0 18 3 40.5t7 51.5q18 110 18 195q0 56 -4.5 95.5t-26.5 75.5
q-4 6 -7 12.5t-3 10.5q0 12 14 25t34 22t38 9q34 0 42.5 -27t8.5 -77q0 -19 -4 -60.5t-12 -105.5q-8 -62 -12 -107t-4 -72q0 -40 9.5 -60.5t31.5 -28.5t62 -8q43 0 82 7.5t76 23.5q5 2 9 3t7 1q9 0 17 -11t8 -31q0 -44 -48 -69q-64 -36 -176 -36z" />
    <glyph glyph-name="lacute" unicode="&#x13a;" horiz-adv-x="228" 
d="M51 723q-23 0 -23 22q0 11 8 22q20 33 42 65t46 56q23 23 46 23q16 0 33.5 -15t17.5 -36q0 -9 -5 -20.5t-15 -21.5q-26 -25 -60.5 -47t-70.5 -42q-10 -6 -19 -6zM112 -10q-29 0 -43 16t-14 56q0 19 3 49t7 65q6 43 10.5 90t4.5 90q0 61 -5.5 126.5t-30.5 114.5
q-9 20 -9 29q0 13 11.5 25t28.5 20.5t33 8.5q26 0 39 -23.5t17 -64t4 -92.5q0 -79 -6.5 -137t-12.5 -102q-4 -29 -7.5 -55t-3.5 -47q0 -35 11.5 -50.5t37.5 -30.5q7 -4 10.5 -7.5t3.5 -10.5q0 -8 -8 -25t-27.5 -31t-53.5 -14z" />
    <glyph glyph-name="uni013B" unicode="&#x13b;" horiz-adv-x="466" 
d="M232 -13q-68 0 -105 15t-51 42t-14 64q0 18 3 40.5t7 51.5q18 110 18 195q0 56 -4.5 95.5t-26.5 75.5q-4 6 -7 12.5t-3 10.5q0 12 14 25t34 22t38 9q34 0 42.5 -27t8.5 -77q0 -19 -4 -60.5t-12 -105.5q-8 -62 -12 -107t-4 -72q0 -40 9.5 -60.5t31.5 -28.5t62 -8
q43 0 82 7.5t76 23.5q5 2 9 3t7 1q9 0 17 -11t8 -31q0 -44 -48 -69q-64 -36 -176 -36zM171 -321q-22 0 -22 19q0 15 22 31q19 16 31 36t12 42q0 6 -4 10t-15 10q-13 8 -19.5 21.5t-6.5 26.5q0 25 18 44.5t51 19.5q29 0 47.5 -18t18.5 -58q0 -52 -27 -94.5t-58 -68.5
q-14 -13 -26.5 -17t-21.5 -4z" />
    <glyph glyph-name="uni013C" unicode="&#x13c;" horiz-adv-x="228" 
d="M112 -10q-29 0 -43 16t-14 56q0 19 3 49t7 65q6 43 10.5 90t4.5 90q0 61 -5.5 126.5t-30.5 114.5q-9 20 -9 29q0 13 11.5 25t28.5 20.5t33 8.5q26 0 39 -23.5t17 -64t4 -92.5q0 -79 -6.5 -137t-12.5 -102q-4 -29 -7.5 -55t-3.5 -47q0 -35 11.5 -50.5t37.5 -30.5
q7 -4 10.5 -7.5t3.5 -10.5q0 -8 -8 -25t-27.5 -31t-53.5 -14zM47 -321q-22 0 -22 19q0 14 22 31q19 16 31 36t12 42q0 6 -4 10t-15 10q-13 8 -19.5 21.5t-6.5 26.5q0 25 18 44.5t51 19.5q29 0 47.5 -18t18.5 -58q0 -52 -27 -94.5t-58 -68.5q-14 -13 -26 -17t-22 -4z" />
    <glyph glyph-name="Lcaron" unicode="&#x13d;" horiz-adv-x="466" 
d="M277 447q-10 0 -16.5 5.5t-6.5 15.5q0 11 6 24q9 23 9 52q0 24 -5.5 38t-11 25t-5.5 24q0 23 16.5 36t34.5 13q27 0 38.5 -26.5t11.5 -55.5q0 -32 -11 -68t-25 -58q-17 -25 -35 -25zM232 -13q-68 0 -105 15t-51 42t-14 64q0 18 3 40.5t7 51.5q18 110 18 195
q0 56 -4.5 95.5t-26.5 75.5q-4 6 -7 12.5t-3 10.5q0 12 14 25t34 22t38 9q34 0 42.5 -27t8.5 -77q0 -19 -4 -60.5t-12 -105.5q-8 -62 -12 -107t-4 -72q0 -40 9.5 -60.5t31.5 -28.5t62 -8q43 0 82 7.5t76 23.5q5 2 9 3t7 1q9 0 17 -11t8 -31q0 -44 -48 -69q-64 -36 -176 -36z
" />
    <glyph glyph-name="lcaron" unicode="&#x13e;" horiz-adv-x="228" 
d="M112 -10q-29 0 -43 16t-14 56q0 19 3 49t7 65q6 43 10.5 90t4.5 90q0 61 -5.5 126.5t-30.5 114.5q-9 20 -9 29q0 13 11.5 25t28.5 20.5t33 8.5q26 0 39 -23.5t17 -64t4 -92.5q0 -79 -6.5 -137t-12.5 -102q-4 -29 -7.5 -55t-3.5 -47q0 -35 11.5 -50.5t37.5 -30.5
q7 -4 10.5 -7.5t3.5 -10.5q0 -8 -8 -25t-27.5 -31t-53.5 -14zM239 447q-10 0 -16.5 5.5t-6.5 15.5q0 11 6 24q5 11 6.5 25t1.5 27q0 24 -5.5 38t-11 25t-5.5 24q0 23 16.5 36t34.5 13q28 0 39 -26.5t11 -55.5q0 -32 -10.5 -68t-24.5 -58q-17 -25 -35 -25z" />
    <glyph glyph-name="Ldot" unicode="&#x13f;" horiz-adv-x="475" 
d="M232 -13q-68 0 -105 15t-51 42t-14 64q0 18 3 40.5t7 51.5q18 110 18 195q0 56 -4.5 95.5t-26.5 75.5q-4 6 -7 12.5t-3 10.5q0 12 14 25t34 22t38 9q34 0 42.5 -27t8.5 -77q0 -19 -4 -60.5t-12 -105.5q-8 -62 -12 -107t-4 -72q0 -40 9.5 -60.5t31.5 -28.5t62 -8
q43 0 82 7.5t76 23.5q5 2 9 3t7 1q9 0 17 -11t8 -31q0 -44 -48 -69q-64 -36 -176 -36zM358 291q-30 0 -47 16.5t-17 46.5q0 33 20.5 53.5t53.5 20.5q30 0 47 -16.5t17 -46.5q0 -31 -20 -52.5t-54 -21.5z" />
    <glyph glyph-name="ldot" unicode="&#x140;" horiz-adv-x="350" 
d="M112 -10q-29 0 -43 16t-14 56q0 19 3 49t7 65q6 43 10.5 90t4.5 90q0 61 -5.5 126.5t-30.5 114.5q-9 20 -9 29q0 13 11.5 25t28.5 20.5t33 8.5q26 0 39 -23.5t17 -64t4 -92.5q0 -79 -6.5 -137t-12.5 -102q-4 -29 -7.5 -55t-3.5 -47q0 -35 11.5 -50.5t37.5 -30.5
q7 -4 10.5 -7.5t3.5 -10.5q0 -8 -8 -25t-27.5 -31t-53.5 -14zM285 228q-28 0 -43.5 15.5t-15.5 43.5q0 31 19 50t50 19q28 0 43.5 -15t15.5 -43q0 -30 -18.5 -50t-50.5 -20z" />
    <glyph glyph-name="Lslash" unicode="&#x141;" horiz-adv-x="464" 
d="M232 -13q-68 0 -105 15t-51 42t-14 64q0 18 3 40.5t7 51.5l6 38q-17 -10 -28 -16t-19 -6q-13 0 -17 13t-4 23q0 21 16 31q17 12 61 38q3 39 3 74q0 56 -4.5 95.5t-26.5 75.5q-4 6 -7 12.5t-3 10.5q0 12 14 25t34 22t38 9q34 0 42.5 -27t8.5 -77q0 -19 -4 -60.5
t-12 -105.5q16 12 33 23.5t31 21.5q11 6 19.5 9.5t15.5 3.5q14 0 19.5 -12.5t5.5 -25.5q0 -11 -3.5 -19.5t-14.5 -14.5q-13 -9 -48 -29t-68 -40q-6 -61 -6 -96q0 -40 9.5 -60.5t31.5 -28.5t62 -8q43 0 82 7.5t76 23.5q5 2 9 3t7 1q9 0 17 -11t8 -31q0 -44 -48 -69
q-64 -36 -176 -36z" />
    <glyph glyph-name="lslash" unicode="&#x142;" horiz-adv-x="252" 
d="M127 -10q-30 0 -44 16t-14 56t11 114q3 26 6 54t5 55q-19 -13 -32 -21t-22 -8q-14 0 -18.5 15.5t-4.5 24.5q0 17 16 28q5 4 23.5 16t40.5 26q0 59 -6 122t-29 109q-4 10 -7 16.5t-3 12.5q0 13 11.5 25t28.5 20.5t33 8.5q27 0 39.5 -23.5t16.5 -64t4 -92.5q0 -19 -0.5 -38
t-1.5 -37q12 10 23.5 18.5t22.5 16.5q9 6 17.5 10t15.5 4q14 0 20.5 -13t6.5 -27q0 -20 -16 -32q-13 -7 -40 -24t-56 -35q-2 -23 -5 -43.5t-6 -38.5q-4 -29 -7 -55t-3 -47q0 -35 11 -50.5t38 -30.5q6 -4 9.5 -7.5t3.5 -10.5q0 -8 -8 -25t-27 -31t-53 -14z" />
    <glyph glyph-name="Nacute" unicode="&#x143;" horiz-adv-x="648" 
d="M320 694q-23 0 -23 22q0 12 7 22q20 33 42.5 65.5t46.5 55.5q22 23 46 23q16 0 33.5 -15t17.5 -36t-21 -42q-25 -25 -59.5 -47t-70.5 -42q-10 -6 -19 -6zM99 -10q-22 0 -37.5 11.5t-15.5 54.5q0 22 4.5 53.5t9.5 65.5q8 48 16 105.5t8 114.5q0 60 -4 92t-9 52
q-2 11 -3.5 20t-1.5 20q0 32 20.5 48.5t45.5 16.5t42 -12.5t30 -26.5q86 -97 155 -203.5t115 -218.5q5 -8 9 -8q6 0 8 8q18 117 18 212q0 57 -4.5 90.5t-11 52t-12.5 29.5q-3 7 -5 12.5t-2 10.5q0 12 12.5 24.5t30.5 20.5t35 8q24 0 35 -16t14.5 -39.5t3.5 -47.5
q0 -27 -5 -70t-11.5 -92.5t-11 -97.5t-4.5 -85q0 -21 1.5 -41t3.5 -39q3 -25 3 -44q0 -37 -18.5 -58.5t-50.5 -21.5q-22 0 -43.5 13t-32.5 42q-43 110 -105.5 214.5t-130.5 180.5q-11 10 -18 10q-10 0 -13 -22q-5 -38 -10 -83t-8 -87.5t-3 -72.5q0 -34 6 -58.5t18 -47.5
q11 -20 11 -36q0 -19 -22 -36.5t-62 -17.5z" />
    <glyph glyph-name="nacute" unicode="&#x144;" horiz-adv-x="536" 
d="M262 456q-10 0 -16.5 6t-6.5 16q0 11 8 22q20 33 42 65t46 56q23 23 46 23q16 0 33.5 -15t17.5 -36q0 -9 -5 -20.5t-15 -21.5q-26 -25 -60.5 -47t-70.5 -42q-9 -6 -19 -6zM94 -11q-36 0 -32 24q11 43 18.5 87.5t7.5 85.5q0 53 -6.5 77.5t-17.5 34t-27 14.5q-7 3 -12.5 8
t-5.5 14q0 14 11 31t31.5 29.5t46.5 12.5q34 0 47 -23.5t13 -61.5q0 -25 -5 -56t-10 -56l3 -1q20 53 48.5 98.5t66.5 73.5t88 28q53 0 81 -32t28 -80q0 -20 -4.5 -38t-9.5 -35q-5 -16 -8.5 -33t-3.5 -34q0 -57 54 -77q14 -6 14 -18q0 -9 -6 -26t-22 -31.5t-47 -14.5
q-40 0 -62 28.5t-22 72.5q0 25 5.5 50.5t11.5 47.5q4 17 7.5 33.5t3.5 29.5q0 46 -48 46q-41 0 -72 -30.5t-53 -76.5t-36 -93v-24q0 -37 -20.5 -61t-55.5 -24z" />
    <glyph glyph-name="uni0145" unicode="&#x145;" horiz-adv-x="648" 
d="M99 -10q-22 0 -37.5 11.5t-15.5 54.5q0 22 4.5 53.5t9.5 65.5q8 48 16 105.5t8 114.5q0 60 -4 92t-9 52q-2 11 -3.5 20t-1.5 20q0 32 20.5 48.5t45.5 16.5t42 -12.5t30 -26.5q86 -97 155 -203.5t115 -218.5q5 -8 9 -8q6 0 8 8q18 117 18 212q0 57 -4.5 90.5t-11 52
t-12.5 29.5q-3 7 -5 12.5t-2 10.5q0 12 12.5 24.5t30.5 20.5t35 8q24 0 35 -16t14.5 -39.5t3.5 -47.5q0 -27 -5 -70t-11.5 -92.5t-11 -97.5t-4.5 -85q0 -21 1.5 -41t3.5 -39q3 -25 3 -44q0 -37 -18.5 -58.5t-50.5 -21.5q-22 0 -43.5 13t-32.5 42q-43 110 -105.5 214.5
t-130.5 180.5q-11 10 -18 10q-10 0 -13 -22q-5 -38 -10 -83t-8 -87.5t-3 -72.5q0 -34 6 -58.5t18 -47.5q11 -20 11 -36q0 -19 -22 -36.5t-62 -17.5zM252 -321q-23 0 -23 19q0 14 23 31q18 16 30.5 36t12.5 42q0 6 -4 10t-15 10q-14 8 -20 21.5t-6 26.5q0 25 18 44.5t51 19.5
q28 0 47 -18t19 -58q0 -52 -27 -94.5t-58 -68.5q-15 -13 -27 -17t-21 -4z" />
    <glyph glyph-name="uni0146" unicode="&#x146;" horiz-adv-x="536" 
d="M94 -11q-36 0 -32 24q11 43 18.5 87.5t7.5 85.5q0 53 -6.5 77.5t-17.5 34t-27 14.5q-7 3 -12.5 8t-5.5 14q0 14 11 31t31.5 29.5t46.5 12.5q34 0 47 -23.5t13 -61.5q0 -25 -5 -56t-10 -56l3 -1q20 53 48.5 98.5t66.5 73.5t88 28q53 0 81 -32t28 -80q0 -20 -4.5 -38
t-9.5 -35q-5 -16 -8.5 -33t-3.5 -34q0 -57 54 -77q14 -6 14 -18q0 -9 -6 -26t-22 -31.5t-47 -14.5q-40 0 -62 28.5t-22 72.5q0 25 5.5 50.5t11.5 47.5q4 17 7.5 33.5t3.5 29.5q0 46 -48 46q-41 0 -72 -30.5t-53 -76.5t-36 -93v-24q0 -37 -20.5 -61t-55.5 -24zM194 -321
q-22 0 -22 19q0 14 22 31q19 16 31 36t12 42q0 6 -4 10t-15 10q-13 8 -19.5 21.5t-6.5 26.5q0 25 18 44.5t51 19.5q29 0 47.5 -18t18.5 -58q0 -52 -27 -94.5t-58 -68.5q-14 -13 -26.5 -17t-21.5 -4z" />
    <glyph glyph-name="Ncaron" unicode="&#x147;" horiz-adv-x="648" 
d="M336 694q-13 0 -24.5 7t-19.5 14q-10 10 -27 29.5t-33.5 42.5t-26.5 42q-4 8 -5.5 15t-1.5 11q0 11 7.5 18t17.5 7q9 0 19 -5q10 -6 27.5 -20l37.5 -30t35 -29q29 23 62 46.5t48 32.5q14 6 20 6q9 0 15 -6.5t6 -16.5q0 -6 -2 -14t-8 -16q-10 -18 -30 -41t-39.5 -42.5
t-30.5 -29.5q-25 -21 -47 -21zM99 -10q-22 0 -37.5 11.5t-15.5 54.5q0 22 4.5 53.5t9.5 65.5q8 48 16 105.5t8 114.5q0 60 -4 92t-9 52q-2 11 -3.5 20t-1.5 20q0 32 20.5 48.5t45.5 16.5t42 -12.5t30 -26.5q86 -97 155 -203.5t115 -218.5q5 -8 9 -8q6 0 8 8q18 117 18 212
q0 57 -4.5 90.5t-11 52t-12.5 29.5q-3 7 -5 12.5t-2 10.5q0 12 12.5 24.5t30.5 20.5t35 8q24 0 35 -16t14.5 -39.5t3.5 -47.5q0 -27 -5 -70t-11.5 -92.5t-11 -97.5t-4.5 -85q0 -21 1.5 -41t3.5 -39q3 -25 3 -44q0 -37 -18.5 -58.5t-50.5 -21.5q-22 0 -43.5 13t-32.5 42
q-43 110 -105.5 214.5t-130.5 180.5q-11 10 -18 10q-10 0 -13 -22q-5 -38 -10 -83t-8 -87.5t-3 -72.5q0 -34 6 -58.5t18 -47.5q11 -20 11 -36q0 -19 -22 -36.5t-62 -17.5z" />
    <glyph glyph-name="ncaron" unicode="&#x148;" horiz-adv-x="536" 
d="M278 456q-13 0 -24.5 7t-19.5 14q-10 10 -27 29.5t-33.5 42.5t-25.5 42q-4 8 -6 15t-2 11q0 11 7.5 18t17.5 7q4 0 9 -1t10 -5q10 -5 28 -19t37.5 -30t34.5 -29q30 23 62.5 46.5t48.5 31.5q11 7 20 7q8 0 14.5 -6.5t6.5 -16.5q0 -6 -2.5 -14t-8.5 -17q-10 -17 -30 -40
t-39.5 -42.5t-30.5 -29.5q-25 -21 -47 -21zM94 -11q-36 0 -32 24q11 43 18.5 87.5t7.5 85.5q0 53 -6.5 77.5t-17.5 34t-27 14.5q-7 3 -12.5 8t-5.5 14q0 14 11 31t31.5 29.5t46.5 12.5q34 0 47 -23.5t13 -61.5q0 -25 -5 -56t-10 -56l3 -1q20 53 48.5 98.5t66.5 73.5t88 28
q53 0 81 -32t28 -80q0 -20 -4.5 -38t-9.5 -35q-5 -16 -8.5 -33t-3.5 -34q0 -57 54 -77q14 -6 14 -18q0 -9 -6 -26t-22 -31.5t-47 -14.5q-40 0 -62 28.5t-22 72.5q0 25 5.5 50.5t11.5 47.5q4 17 7.5 33.5t3.5 29.5q0 46 -48 46q-41 0 -72 -30.5t-53 -76.5t-36 -93v-24
q0 -37 -20.5 -61t-55.5 -24z" />
    <glyph glyph-name="Omacron" unicode="&#x14c;" horiz-adv-x="636" 
d="M222 732q-21 0 -21 35q0 14 4 27t18 18q9 3 35.5 5.5t61 4t67 2.5t53.5 1q22 0 34.5 -5.5t12.5 -25.5t-7 -41t-21 -21q-21 0 -53.5 2t-67.5 1q-28 0 -62.5 -1.5t-53.5 -1.5zM275 -13q-103 0 -164.5 60.5t-61.5 178.5q0 53 14.5 110t48.5 113q-19 -17 -36 -17
q-29 0 -29 46q0 33 14 53t27 32q22 19 56 38.5t80 32.5t103 13q134 0 201.5 -75.5t67.5 -209.5q0 -79 -23 -147t-65.5 -119t-101.5 -80t-131 -29zM310 99q50 0 98.5 23t80 73.5t31.5 131.5q0 76 -29 121.5t-73.5 66t-93.5 20.5q-37 0 -66.5 -9.5t-52.5 -20.5
q-26 -40 -49 -97.5t-23 -121.5t25 -105.5t65.5 -61.5t86.5 -20z" />
    <glyph glyph-name="omacron" unicode="&#x14d;" horiz-adv-x="453" 
d="M115 493q-8 0 -14.5 10t-6.5 26q0 14 4.5 27t17.5 18q9 3 35.5 5.5t61 4t67 2.5t53.5 1q23 0 35 -5.5t12 -25.5t-6.5 -41.5t-21.5 -21.5q-21 0 -53.5 2.5t-67.5 1.5q-27 0 -62 -2t-54 -2zM195 -13q-69 0 -110.5 37.5t-41.5 110.5q0 34 9.5 66t25.5 60q-16 -10 -24 -10
q-12 0 -16.5 13.5t-4.5 26.5q0 23 9.5 36.5t18.5 20.5q21 18 66 39.5t108 21.5q86 0 133.5 -48t47.5 -134q0 -67 -28 -121.5t-77.5 -86.5t-115.5 -32zM226 89q50 0 84.5 31.5t34.5 83.5q0 54 -35 77t-81 23q-21 0 -38 -4t-32 -10q-14 -20 -25 -45t-11 -55q0 -50 30 -75.5
t73 -25.5z" />
    <glyph glyph-name="Ohungarumlaut" unicode="&#x150;" horiz-adv-x="636" 
d="M230 695q-18 0 -20 19q0 12 6 21q17 35 38 68.5t43 58.5q21 29 43 29q14 0 31 -11.5t17 -28.5q0 -9 -3.5 -21.5t-12.5 -24.5q-25 -28 -56.5 -53.5t-64.5 -48.5q-13 -8 -21 -8zM386 700q-19 0 -19 20q0 5 2.5 10.5t4.5 10.5q21 32 44 64t47 55q24 24 46 24
q14 0 29.5 -12.5t15.5 -30.5q0 -9 -5 -21t-16 -23q-26 -25 -60 -48t-69 -43q-6 -4 -10.5 -5t-9.5 -1zM275 -13q-103 0 -164.5 60.5t-61.5 178.5q0 53 14.5 110t48.5 113q-19 -17 -36 -17q-29 0 -29 46q0 33 14 53t27 32q22 19 56 38.5t80 32.5t103 13q134 0 201.5 -75.5
t67.5 -209.5q0 -79 -23 -147t-65.5 -119t-101.5 -80t-131 -29zM310 99q50 0 98.5 23t80 73.5t31.5 131.5q0 76 -29 121.5t-73.5 66t-93.5 20.5q-37 0 -66.5 -9.5t-52.5 -20.5q-26 -40 -49 -97.5t-23 -121.5t25 -105.5t65.5 -61.5t86.5 -20z" />
    <glyph glyph-name="ohungarumlaut" unicode="&#x151;" horiz-adv-x="453" 
d="M124 457q-18 0 -20 19q-1 5 1 11t4 10q17 35 38 68.5t43 58.5q23 29 43 29q15 0 31.5 -11.5t16.5 -29.5q0 -8 -3.5 -20.5t-12.5 -24.5q-25 -28 -56.5 -53.5t-64.5 -48.5q-13 -8 -20 -8zM279 462q-19 0 -19 20q0 5 2.5 10.5t5.5 10.5q21 32 43.5 64t46.5 55q24 24 46 24
q14 0 29.5 -12.5t15.5 -30.5q0 -9 -5 -21t-16 -23q-25 -25 -59 -48t-69 -43q-6 -4 -11 -5t-10 -1zM195 -13q-69 0 -110.5 37.5t-41.5 110.5q0 34 9.5 66t25.5 60q-16 -10 -24 -10q-12 0 -16.5 13.5t-4.5 26.5q0 23 9.5 36.5t18.5 20.5q21 18 66 39.5t108 21.5
q86 0 133.5 -48t47.5 -134q0 -67 -28 -121.5t-77.5 -86.5t-115.5 -32zM226 89q50 0 84.5 31.5t34.5 83.5q0 54 -35 77t-81 23q-21 0 -38 -4t-32 -10q-14 -20 -25 -45t-11 -55q0 -50 30 -75.5t73 -25.5z" />
    <glyph glyph-name="OE" unicode="&#x152;" horiz-adv-x="954" 
d="M275 -13q-103 0 -164.5 60.5t-61.5 178.5q0 53 14.5 110t48.5 113q-19 -17 -36 -17q-29 0 -29 46q0 33 14 53t27 32q22 19 56 38.5t80 32.5t103 13q73 0 126 -23t87 -65q2 28 15.5 47.5t50.5 24.5q107 12 178 12q91 0 110 -4q26 -4 26 -28q0 -28 -21 -55
q-12 -16 -23.5 -22t-29.5 -5q-23 2 -52.5 3t-66.5 1q-55 0 -102 -3v-26q0 -25 -3 -58.5t-8 -74.5q39 2 92.5 3.5t121.5 1.5q15 0 21.5 -4.5t6.5 -18.5q0 -17 -8.5 -36.5t-22 -32.5t-27.5 -13q-34 2 -73.5 3t-85.5 1h-39q-4 -24 -6 -43t-2 -34q0 -55 28 -77t92 -22
q31 0 53.5 3t43.5 10t47 18q24 10 27 10q12 0 22 -15.5t10 -33.5q0 -22 -16.5 -41.5t-43.5 -33.5q-31 -14 -73.5 -21.5t-89.5 -7.5q-84 0 -129 23t-54 87q-43 -51 -102 -80.5t-132 -29.5zM310 99q50 0 98.5 23t80 73.5t31.5 131.5q0 76 -29 121.5t-73.5 66t-93.5 20.5
q-37 0 -66.5 -9.5t-52.5 -20.5q-26 -40 -49 -97.5t-23 -121.5t25 -105.5t65.5 -61.5t86.5 -20z" />
    <glyph glyph-name="oe" unicode="&#x153;" horiz-adv-x="701" 
d="M177 -13q-69 0 -110.5 37.5t-41.5 110.5q0 70 35 126q-16 -10 -24 -10q-12 0 -17 13.5t-5 26.5q0 23 10 36.5t19 20.5q21 18 66 39.5t108 21.5q62 0 104 -25t61 -72q29 43 71.5 69.5t97.5 26.5q56 0 93.5 -28t37.5 -80q0 -42 -25.5 -74.5t-66 -51t-85.5 -18.5
q-29 0 -54.5 7.5t-42.5 18.5q1 -44 31 -72.5t79 -28.5q29 0 59 10.5t52 28.5q6 5 12.5 8.5t13.5 3.5q9 0 16 -6.5t7 -16.5q0 -12 -10.5 -27t-27.5 -31q-34 -33 -74.5 -48.5t-84.5 -15.5q-103 0 -139 75q-29 -35 -71 -55t-94 -20zM496 222q35 0 59.5 14.5t24.5 38.5
q0 18 -15 29t-44 11q-37 0 -64.5 -20t-39.5 -55q14 -8 36.5 -13t42.5 -5zM207 89q51 0 85 31.5t34 83.5q0 54 -34.5 77t-80.5 23q-22 0 -39 -4t-31 -10q-14 -20 -25 -45t-11 -55q0 -50 30 -75.5t72 -25.5z" />
    <glyph glyph-name="Racute" unicode="&#x154;" horiz-adv-x="558" 
d="M263 694q-10 0 -16.5 6t-6.5 16q0 12 8 22q20 33 42 65.5t46 55.5q11 12 23.5 17.5t22.5 5.5q16 0 33.5 -15t17.5 -36q0 -20 -20 -42q-26 -25 -60.5 -47t-70.5 -42q-9 -6 -19 -6zM112 -10q-12 0 -24.5 4t-20.5 19t-8 46q0 20 3.5 51.5t7.5 61.5q8 50 14.5 110t6.5 119
q0 21 -1 44t-4 44q-6 -3 -13.5 -5.5t-12.5 -2.5q-10 0 -13.5 10.5t-3.5 24.5q0 32 15.5 51.5t46.5 35.5q41 23 87.5 33.5t88.5 10.5q62 0 110 -22t75 -62t27 -96q0 -58 -27.5 -103t-70 -73.5t-86.5 -37.5q16 -25 34.5 -50t37.5 -45q57 -59 116 -59q16 0 28 2q6 1 10.5 -4.5
t4.5 -21.5q0 -19 -8 -38.5t-27 -32.5t-52 -13q-39 0 -74.5 26t-65.5 66.5t-53.5 85.5t-39.5 83q-4 11 -7 21.5t-3 20.5q0 17 11 28q8 8 22.5 11t42.5 3q53 0 86 29t33 75q0 50 -37.5 73t-91.5 23q-44 0 -92 -14q-3 -65 -14 -149q-6 -50 -10.5 -99t-4.5 -89q0 -35 6.5 -61.5
t26.5 -45.5q14 -14 14 -30q0 -22 -25 -40t-65 -18z" />
    <glyph glyph-name="racute" unicode="&#x155;" horiz-adv-x="349" 
d="M171 456q-23 0 -23 22q0 11 8 22q20 33 42 65t46 56q23 23 46 23q16 0 33.5 -15t17.5 -36q0 -9 -5 -20.5t-15 -21.5q-26 -25 -60.5 -47t-70.5 -42q-10 -6 -19 -6zM98 -11q-16 0 -25.5 5.5t-6.5 18.5q11 43 18.5 87.5t7.5 85.5q0 53 -6.5 77.5t-17.5 34t-27 14.5
q-7 3 -12.5 8t-5.5 14q0 14 11 31t31 29.5t46 12.5q34 0 47.5 -23.5t13.5 -61.5q18 40 44.5 63.5t66.5 23.5q27 0 45 -12t18 -39t-17.5 -50.5t-35.5 -23.5q-3 0 -7 1t-7 5q-13 16 -32 16q-29 0 -51 -38t-24 -105q1 -25 1.5 -51t0.5 -38q0 -37 -20.5 -61t-55.5 -24z" />
    <glyph glyph-name="uni0156" unicode="&#x156;" horiz-adv-x="558" 
d="M112 -10q-12 0 -24.5 4t-20.5 19t-8 46q0 20 3.5 51.5t7.5 61.5q8 50 14.5 110t6.5 119q0 21 -1 44t-4 44q-6 -3 -13.5 -5.5t-12.5 -2.5q-10 0 -13.5 10.5t-3.5 24.5q0 32 15.5 51.5t46.5 35.5q41 23 87.5 33.5t88.5 10.5q62 0 110 -22t75 -62t27 -96q0 -58 -27.5 -103
t-70 -73.5t-86.5 -37.5q16 -25 34.5 -50t37.5 -45q57 -59 116 -59q16 0 28 2q6 1 10.5 -4.5t4.5 -21.5q0 -19 -8 -38.5t-27 -32.5t-52 -13q-39 0 -74.5 26t-65.5 66.5t-53.5 85.5t-39.5 83q-4 11 -7 21.5t-3 20.5q0 17 11 28q8 8 22.5 11t42.5 3q53 0 86 29t33 75
q0 50 -37.5 73t-91.5 23q-44 0 -92 -14q-3 -65 -14 -149q-6 -50 -10.5 -99t-4.5 -89q0 -35 6.5 -61.5t26.5 -45.5q14 -14 14 -30q0 -22 -25 -40t-65 -18zM211 -321q-22 0 -22 19q0 14 22 31q19 16 31 36t12 42q0 6 -3.5 10t-15.5 10q-13 8 -19.5 21.5t-6.5 26.5
q0 25 18 44.5t51 19.5q29 0 48 -18t19 -58q0 -52 -27.5 -94.5t-58.5 -68.5q-14 -13 -26 -17t-22 -4z" />
    <glyph glyph-name="uni0157" unicode="&#x157;" horiz-adv-x="349" 
d="M98 -11q-16 0 -25.5 5.5t-6.5 18.5q11 43 18.5 87.5t7.5 85.5q0 53 -6.5 77.5t-17.5 34t-27 14.5q-7 3 -12.5 8t-5.5 14q0 14 11 31t31 29.5t46 12.5q34 0 47.5 -23.5t13.5 -61.5q18 40 44.5 63.5t66.5 23.5q27 0 45 -12t18 -39t-17.5 -50.5t-35.5 -23.5q-3 0 -7 1t-7 5
q-13 16 -32 16q-29 0 -51 -38t-24 -105q1 -25 1.5 -51t0.5 -38q0 -37 -20.5 -61t-55.5 -24zM44 -321q-22 0 -22 19q0 14 22 31q19 16 31 36t12 42q0 6 -3.5 10t-15.5 10q-13 8 -19.5 21.5t-6.5 26.5q0 25 18 44.5t51 19.5q29 0 48 -18t19 -58q0 -52 -27.5 -94.5t-58.5 -68.5
q-14 -13 -26 -17t-22 -4z" />
    <glyph glyph-name="Rcaron" unicode="&#x158;" horiz-adv-x="558" 
d="M279 694q-13 0 -24.5 7t-19.5 14q-10 10 -27 29.5t-33.5 42.5t-25.5 42q-4 8 -6 15t-2 11q0 11 7.5 18t17.5 7q4 0 9 -1t10 -4q10 -6 27.5 -20l37.5 -30t35 -29q29 23 62 46.5t49 32.5q12 6 20 6t14.5 -6.5t6.5 -16.5q0 -6 -2.5 -14t-8.5 -16q-10 -18 -30 -41
t-39.5 -42.5t-30.5 -29.5q-25 -21 -47 -21zM112 -10q-12 0 -24.5 4t-20.5 19t-8 46q0 20 3.5 51.5t7.5 61.5q8 50 14.5 110t6.5 119q0 21 -1 44t-4 44q-6 -3 -13.5 -5.5t-12.5 -2.5q-10 0 -13.5 10.5t-3.5 24.5q0 32 15.5 51.5t46.5 35.5q41 23 87.5 33.5t88.5 10.5
q62 0 110 -22t75 -62t27 -96q0 -58 -27.5 -103t-70 -73.5t-86.5 -37.5q16 -25 34.5 -50t37.5 -45q57 -59 116 -59q16 0 28 2q6 1 10.5 -4.5t4.5 -21.5q0 -19 -8 -38.5t-27 -32.5t-52 -13q-39 0 -74.5 26t-65.5 66.5t-53.5 85.5t-39.5 83q-4 11 -7 21.5t-3 20.5q0 17 11 28
q8 8 22.5 11t42.5 3q53 0 86 29t33 75q0 50 -37.5 73t-91.5 23q-44 0 -92 -14q-3 -65 -14 -149q-6 -50 -10.5 -99t-4.5 -89q0 -35 6.5 -61.5t26.5 -45.5q14 -14 14 -30q0 -22 -25 -40t-65 -18z" />
    <glyph glyph-name="rcaron" unicode="&#x159;" horiz-adv-x="349" 
d="M187 456q-13 0 -24.5 7t-19.5 14q-10 10 -27 29.5t-33.5 42.5t-25.5 42q-4 8 -6 15t-2 11q0 11 7.5 18t17.5 7q4 0 8.5 -1t10.5 -5q10 -5 27.5 -19l37.5 -30t35 -29q20 15 41.5 31t40 29t28.5 18q13 7 21 7t14.5 -6.5t6.5 -16.5q0 -6 -2.5 -14t-8.5 -17q-10 -17 -30 -40
t-39.5 -42.5t-30.5 -29.5q-25 -21 -47 -21zM98 -11q-16 0 -25.5 5.5t-6.5 18.5q11 43 18.5 87.5t7.5 85.5q0 53 -6.5 77.5t-17.5 34t-27 14.5q-7 3 -12.5 8t-5.5 14q0 14 11 31t31 29.5t46 12.5q34 0 47.5 -23.5t13.5 -61.5q18 40 44.5 63.5t66.5 23.5q27 0 45 -12t18 -39
t-17.5 -50.5t-35.5 -23.5q-3 0 -7 1t-7 5q-13 16 -32 16q-29 0 -51 -38t-24 -105q1 -25 1.5 -51t0.5 -38q0 -37 -20.5 -61t-55.5 -24z" />
    <glyph glyph-name="Sacute" unicode="&#x15a;" horiz-adv-x="494" 
d="M245 694q-23 0 -23 22q0 12 7 22q20 33 42.5 65.5t46.5 55.5q22 23 46 23q16 0 33.5 -15t17.5 -36q0 -20 -20 -42q-26 -25 -60.5 -47t-70.5 -42q-10 -6 -19 -6zM196 -13q-49 0 -90.5 14.5t-66.5 40.5t-25 61q0 23 11 40.5t30 17.5q12 0 25 -9q25 -22 64.5 -38.5
t84.5 -16.5q59 0 96.5 23.5t37.5 63.5q0 38 -35 55t-97 32q-46 11 -88.5 28t-70 47.5t-27.5 81.5q0 39 17 77.5t50 70.5t80 51.5t106 19.5q44 0 80.5 -10t58 -28t21.5 -44q0 -20 -11 -35t-26 -23.5t-26 -8.5q-10 0 -27 9q-28 15 -62.5 23.5t-60.5 8.5q-49 0 -79.5 -21.5
t-30.5 -50.5q0 -32 38.5 -53.5t138.5 -45.5q68 -18 106 -49.5t38 -99.5q0 -61 -32.5 -114t-91 -85.5t-136.5 -32.5z" />
    <glyph glyph-name="sacute" unicode="&#x15b;" horiz-adv-x="398" 
d="M208 456q-10 0 -16.5 6t-6.5 16q0 11 8 22q20 33 42.5 65t45.5 56q25 23 46 23q16 0 33.5 -15t17.5 -36q0 -9 -4.5 -20.5t-15.5 -21.5q-25 -25 -59.5 -47t-70.5 -42q-10 -6 -20 -6zM170 -13q-37 0 -69 11t-52 31t-20 48q0 15 7.5 28.5t24.5 13.5q9 0 19 -5
q18 -10 46 -18.5t59 -8.5q35 0 62 10t27 28q0 14 -20.5 20t-68.5 13q-33 6 -64 14t-51 27.5t-20 57.5q0 37 20.5 71.5t61.5 57.5t100 23q31 0 60 -7t48 -21t19 -35q0 -18 -12.5 -33t-29 -24.5t-27.5 -9.5q-8 0 -19 11q-17 14 -37.5 19.5t-40.5 5.5q-30 0 -48.5 -9t-18.5 -23
q0 -13 15.5 -21t38.5 -11.5t44 -6.5q58 -8 92 -27.5t34 -68.5q0 -38 -21.5 -75.5t-62 -61.5t-96.5 -24z" />
    <glyph glyph-name="Scedilla" unicode="&#x15e;" horiz-adv-x="494" 
d="M184 -247q-24 0 -42 11t-18 31q0 15 14 15q33 0 54.5 12t21.5 36q0 25 -26 36q-9 5 -16.5 11t-7.5 13t10 20q7 8 15.5 21.5t14.5 27.5h-8q-49 0 -90.5 14.5t-66.5 40.5t-25 61q0 23 11 40.5t30 17.5q12 0 25 -9q25 -22 64.5 -38.5t84.5 -16.5q59 0 96.5 23.5t37.5 63.5
q0 38 -35 55t-97 32q-46 11 -88.5 28t-70 47.5t-27.5 81.5q0 39 17 77.5t50 70.5t80 51.5t106 19.5q44 0 80.5 -10t58 -28t21.5 -44q0 -20 -11 -35t-26 -23.5t-26 -8.5q-10 0 -27 9q-28 15 -62.5 23.5t-60.5 8.5q-49 0 -79.5 -21.5t-30.5 -50.5q0 -32 38.5 -53.5
t138.5 -45.5q68 -18 106 -49.5t38 -99.5q0 -71 -44 -131.5t-121 -86.5q-10 -13 -21 -26.5t-24 -25.5q61 -12 64 -71q2 -34 -16.5 -62.5t-47.5 -45.5t-62 -17z" />
    <glyph glyph-name="scedilla" unicode="&#x15f;" horiz-adv-x="398" 
d="M124 -248q-25 0 -43 11t-18 31q0 15 15 15q33 0 54.5 12t21.5 36q0 25 -26 36q-10 5 -17 11t-7 13q0 5 2.5 9.5t6.5 10.5q8 8 16.5 22.5t15.5 28.5q-47 5 -81.5 28.5t-34.5 60.5q0 15 7.5 28.5t24.5 13.5q9 0 19 -5q18 -10 46 -18.5t59 -8.5q35 0 62 10t27 28
q0 14 -20.5 20t-68.5 13q-33 6 -64 14t-51 27.5t-20 57.5q0 37 20.5 71.5t61.5 57.5t100 23q31 0 60 -7t48 -21t19 -35q0 -18 -12.5 -33t-29 -24.5t-27.5 -9.5q-8 0 -19 11q-17 14 -37.5 19.5t-40.5 5.5q-30 0 -48.5 -9t-18.5 -23q0 -13 15.5 -21t38.5 -11.5t44 -6.5
q58 -8 92 -27.5t34 -68.5q0 -48 -32.5 -92.5t-91.5 -61.5q-9 -12 -19 -23.5t-22 -22.5q62 -12 65 -71q1 -34 -17 -62.5t-47.5 -45.5t-61.5 -17z" />
    <glyph glyph-name="Scaron" unicode="&#x160;" horiz-adv-x="494" 
d="M261 694q-13 0 -24.5 7t-19.5 14q-10 10 -27 29.5t-33.5 42.5t-25.5 42q-4 8 -6 15t-2 11q0 11 7.5 18t17.5 7q9 0 19 -5q10 -6 27.5 -20l37.5 -30t35 -29q29 23 62 46.5t48 32.5q14 6 20 6q9 0 15.5 -6.5t6.5 -16.5q0 -6 -2.5 -14t-8.5 -16q-10 -18 -30 -41t-39.5 -42.5
t-30.5 -29.5q-25 -21 -47 -21zM196 -13q-49 0 -90.5 14.5t-66.5 40.5t-25 61q0 23 11 40.5t30 17.5q12 0 25 -9q25 -22 64.5 -38.5t84.5 -16.5q59 0 96.5 23.5t37.5 63.5q0 38 -35 55t-97 32q-46 11 -88.5 28t-70 47.5t-27.5 81.5q0 39 17 77.5t50 70.5t80 51.5t106 19.5
q44 0 80.5 -10t58 -28t21.5 -44q0 -20 -11 -35t-26 -23.5t-26 -8.5q-10 0 -27 9q-28 15 -62.5 23.5t-60.5 8.5q-49 0 -79.5 -21.5t-30.5 -50.5q0 -32 38.5 -53.5t138.5 -45.5q68 -18 106 -49.5t38 -99.5q0 -61 -32.5 -114t-91 -85.5t-136.5 -32.5z" />
    <glyph glyph-name="scaron" unicode="&#x161;" horiz-adv-x="398" 
d="M225 456q-13 0 -25 7t-20 14q-10 10 -27 29.5t-33.5 42.5t-25.5 42q-4 8 -6 15t-2 11q0 11 7.5 18t17.5 7q4 0 9 -1t11 -5q10 -5 27.5 -19l37.5 -30t34 -29q30 23 63 46.5t48 31.5q11 7 20 7q8 0 14.5 -6.5t6.5 -16.5q0 -14 -10 -31q-11 -17 -30.5 -40t-39 -42.5
t-30.5 -29.5q-27 -21 -47 -21zM170 -13q-37 0 -69 11t-52 31t-20 48q0 15 7.5 28.5t24.5 13.5q9 0 19 -5q18 -10 46 -18.5t59 -8.5q35 0 62 10t27 28q0 14 -20.5 20t-68.5 13q-33 6 -64 14t-51 27.5t-20 57.5q0 37 20.5 71.5t61.5 57.5t100 23q31 0 60 -7t48 -21t19 -35
q0 -18 -12.5 -33t-29 -24.5t-27.5 -9.5q-8 0 -19 11q-17 14 -37.5 19.5t-40.5 5.5q-30 0 -48.5 -9t-18.5 -23q0 -13 15.5 -21t38.5 -11.5t44 -6.5q58 -8 92 -27.5t34 -68.5q0 -38 -21.5 -75.5t-62 -61.5t-96.5 -24z" />
    <glyph glyph-name="uni0162" unicode="&#x162;" horiz-adv-x="490" 
d="M181 -246q-24 0 -42 11t-18 31q0 15 14 15q34 0 55 12t21 36q0 26 -26 36q-9 5 -16.5 11t-7.5 13t10 20q8 10 18 25.5t15 30.5q-11 5 -18.5 19t-7.5 45q0 22 3.5 54t9.5 69q8 50 13.5 105.5t5.5 113.5q0 47 -4.5 81.5t-11.5 53.5q-38 -1 -72 -5t-69 -13q-9 -1 -15.5 -2.5
t-12.5 -1.5q-9 0 -13 3.5t-4 17.5q0 17 5 35.5t15 31.5q10 14 23.5 20.5t29.5 8.5q25 3 64 5.5t85.5 4.5t91.5 2q73 0 104.5 -1t42.5 -3q14 -2 19.5 -8.5t5.5 -20.5q0 -27 -24 -54q-10 -12 -21 -18.5t-29 -5.5q-16 2 -47 3t-69 1q-1 -35 -5.5 -81.5t-10.5 -93.5
q-6 -46 -10 -92t-4 -84q0 -35 6.5 -61.5t26.5 -45.5q14 -14 14 -30q0 -28 -32 -44q-10 -13 -21.5 -27.5t-24.5 -26.5q29 -6 46.5 -24t17.5 -47q0 -35 -18 -63.5t-46.5 -45t-61.5 -16.5z" />
    <glyph glyph-name="uni0163" unicode="&#x163;" horiz-adv-x="335" 
d="M119 -247q-25 0 -42.5 11t-17.5 31q0 15 14 15q33 0 54.5 12t21.5 36q0 25 -26 36q-10 5 -17 11t-7 13q0 5 2.5 9.5t6.5 10.5q9 9 18 24.5t16 30.5q-39 14 -55.5 50.5t-16.5 88.5q0 23 2.5 45t5.5 44t6 43t5 40q-21 -6 -42 -6q-22 0 -22 18q0 19 17 46.5t42.5 54.5
t51 45.5t43.5 18.5q22 0 22 -38q0 -10 -1.5 -20.5t-3.5 -21.5q19 4 38.5 7t37.5 3q23 0 35.5 -8t12.5 -31q0 -24 -11.5 -48t-25.5 -24q-3 0 -10 1t-17 3q-13 3 -33 6t-48 3q-7 -31 -12.5 -63.5t-5.5 -58.5q0 -58 29 -79t84 -21q17 0 24 -5.5t7 -19.5q0 -27 -23.5 -48
t-60.5 -29q-8 -10 -17 -20t-20 -20q62 -12 65 -71q2 -34 -16.5 -62.5t-48 -45.5t-61.5 -17z" />
    <glyph glyph-name="Tcaron" unicode="&#x164;" horiz-adv-x="490" 
d="M261 694q-13 0 -24.5 7t-19.5 14q-10 10 -27 29.5t-33.5 42.5t-25.5 42q-4 8 -6 15t-2 11q0 11 7.5 18t17.5 7q9 0 19 -5q10 -6 27.5 -20l37.5 -30t35 -29q29 23 62 46.5t48 32.5q14 6 20 6q9 0 15.5 -6.5t6.5 -16.5q0 -6 -2.5 -14t-8.5 -16q-10 -18 -30 -41t-39.5 -42.5
t-30.5 -29.5q-25 -21 -47 -21zM231 -10q-12 0 -24.5 4t-20.5 19t-8 46q0 22 3.5 54t9.5 69q8 50 13.5 105.5t5.5 113.5q0 47 -4.5 81.5t-11.5 53.5q-38 -1 -72 -5t-69 -13q-9 -1 -15.5 -2.5t-12.5 -1.5q-9 0 -13 3.5t-4 17.5q0 17 5 35.5t15 31.5q10 14 23.5 20.5t29.5 8.5
q25 3 64 5.5t85.5 4.5t91.5 2q73 0 104.5 -1t42.5 -3q14 -2 19.5 -8.5t5.5 -20.5q0 -27 -24 -54q-10 -12 -21 -18.5t-29 -5.5q-16 2 -47 3t-69 1q-1 -35 -5.5 -81.5t-10.5 -93.5q-6 -46 -10 -92t-4 -84q0 -35 6.5 -61.5t26.5 -45.5q14 -14 14 -30q0 -22 -25 -40t-65 -18z
" />
    <glyph glyph-name="tcaron" unicode="&#x165;" horiz-adv-x="335" 
d="M270 445q-23 0 -23 22q0 7 5 24q9 21 9 51q0 24 -5.5 38t-11 25t-5.5 24q0 23 16.5 36t34.5 13q27 0 38.5 -26t11.5 -56q0 -32 -11 -68t-25 -58q-15 -25 -34 -25zM184 -13q-61 0 -87.5 40.5t-26.5 104.5q0 23 2.5 45t5.5 44t6 43t5 40q-21 -6 -42 -6q-22 0 -22 18
q0 19 17 46.5t42.5 54.5t51 45.5t43.5 18.5q22 0 22 -38q0 -10 -1.5 -20.5t-3.5 -21.5q19 4 38.5 7t37.5 3q23 0 35.5 -8t12.5 -31q0 -24 -11.5 -48t-25.5 -24q-3 0 -10 1t-17 3q-13 3 -33 6t-48 3q-7 -31 -12.5 -63.5t-5.5 -58.5q0 -58 29 -79t84 -21q17 0 24 -5.5t7 -19.5
q0 -33 -34 -56t-83 -23z" />
    <glyph glyph-name="Umacron" unicode="&#x16a;" horiz-adv-x="622" 
d="M276 -13q-105 0 -157 55.5t-52 174.5q0 20 1.5 42t3.5 43q2 20 3 40t1 36q0 60 -5 104t-30 84q-8 13 -8 21q0 13 14.5 25.5t34.5 21.5t38 9q24 0 34.5 -16t13.5 -39.5t3 -47.5q0 -25 -2.5 -55t-7.5 -65q-4 -38 -7.5 -79.5t-3.5 -83.5q0 -58 20.5 -92.5t56 -50t79.5 -15.5
q77 0 116 39.5t54 103.5q7 29 11 66.5t4 76.5q0 49 -6.5 94t-25.5 79l-7 14t-3 13q0 14 12 27.5t30 22t37 8.5q32 0 43 -27t11 -63q0 -22 -3.5 -64t-9.5 -90t-12 -90.5t-11 -65.5q-25 -119 -88 -187.5t-182 -68.5zM199 731q-8 -1 -14.5 9.5t-6.5 26.5q0 14 4.5 27t17.5 18
q9 3 35.5 5.5t61 4t67 2.5t53.5 1q23 0 35 -5.5t12 -25.5t-7 -42t-21 -21q-21 2 -53.5 3.5t-67.5 0.5q-27 0 -62 -1t-54 -3z" />
    <glyph glyph-name="umacron" unicode="&#x16b;" horiz-adv-x="517" 
d="M144 493q-9 0 -15 10t-6 26q0 14 4.5 27t17.5 18q9 3 35.5 5.5t61 4t67 2.5t53.5 1q23 0 35 -5.5t12 -25.5t-7 -41.5t-21 -21.5q-21 0 -53.5 2.5t-67.5 1.5q-27 0 -62 -2t-54 -2zM163 -13q-50 0 -77.5 29t-27.5 84q0 39 11 80q5 17 8 34t3 34q0 44 -27 57q-26 14 -26 30
t13.5 32t33.5 26.5t40 10.5q57 0 57 -93q0 -30 -4.5 -55.5t-10.5 -48.5q-4 -16 -6.5 -32t-2.5 -28q0 -50 49 -50q46 0 86 49t66 137l-1 19q-2 50 17.5 76t57.5 26q33 0 33 -21q0 -7 -2.5 -18t-7.5 -26q-10 -37 -17 -78.5t-7 -76.5q0 -39 12 -64.5t45 -34.5q9 -1 14.5 -5.5
t5.5 -18.5q0 -24 -20 -47t-58 -23q-73 0 -73 103q0 18 3 54l-2 1q-63 -162 -185 -162z" />
    <glyph glyph-name="Uring" unicode="&#x16e;" horiz-adv-x="622" 
d="M276 -13q-105 0 -157 55.5t-52 174.5q0 20 1.5 42t3.5 43q2 20 3 40t1 36q0 60 -5 104t-30 84q-8 13 -8 21q0 13 14.5 25.5t34.5 21.5t38 9q24 0 34.5 -16t13.5 -39.5t3 -47.5q0 -25 -2.5 -55t-7.5 -65q-4 -38 -7.5 -79.5t-3.5 -83.5q0 -58 20.5 -92.5t56 -50t79.5 -15.5
q77 0 116 39.5t54 103.5q7 29 11 66.5t4 76.5q0 49 -6.5 94t-25.5 79l-7 14t-3 13q0 14 12 27.5t30 22t37 8.5q32 0 43 -27t11 -63q0 -22 -3.5 -64t-9.5 -90t-12 -90.5t-11 -65.5q-25 -119 -88 -187.5t-182 -68.5zM315 696q-49 0 -78 27.5t-29 76.5q0 54 33.5 87t88.5 33
q48 0 76.5 -27.5t28.5 -75.5q0 -53 -32 -87t-88 -34zM329 767q20 0 33 10.5t13 26.5q0 19 -16 32t-44 13q-21 0 -34 -11t-13 -28q0 -19 16.5 -31t44.5 -12z" />
    <glyph glyph-name="uring" unicode="&#x16f;" horiz-adv-x="517" 
d="M260 458q-49 0 -78 27.5t-29 76.5q0 54 33.5 87t88.5 33q48 0 76.5 -27.5t28.5 -75.5q0 -53 -32 -87t-88 -34zM274 529q20 0 33 10.5t13 26.5q0 19 -16 32t-44 13q-21 0 -34 -11t-13 -28q0 -19 16.5 -31t44.5 -12zM163 -13q-50 0 -77.5 29t-27.5 84q0 39 11 80q5 17 8 34
t3 34q0 44 -27 57q-26 14 -26 30t13.5 32t33.5 26.5t40 10.5q57 0 57 -93q0 -30 -4.5 -55.5t-10.5 -48.5q-4 -16 -6.5 -32t-2.5 -28q0 -50 49 -50q46 0 86 49t66 137l-1 19q-2 50 17.5 76t57.5 26q33 0 33 -21q0 -7 -2.5 -18t-7.5 -26q-10 -37 -17 -78.5t-7 -76.5
q0 -39 12 -64.5t45 -34.5q9 -1 14.5 -5.5t5.5 -18.5q0 -24 -20 -47t-58 -23q-73 0 -73 103q0 18 3 54l-2 1q-63 -162 -185 -162z" />
    <glyph glyph-name="Uhungarumlaut" unicode="&#x170;" horiz-adv-x="622" 
d="M276 -13q-105 0 -157 55.5t-52 174.5q0 20 1.5 42t3.5 43q2 20 3 40t1 36q0 60 -5 104t-30 84q-8 13 -8 21q0 13 14.5 25.5t34.5 21.5t38 9q24 0 34.5 -16t13.5 -39.5t3 -47.5q0 -25 -2.5 -55t-7.5 -65q-4 -38 -7.5 -79.5t-3.5 -83.5q0 -58 20.5 -92.5t56 -50t79.5 -15.5
q77 0 116 39.5t54 103.5q7 29 11 66.5t4 76.5q0 49 -6.5 94t-25.5 79l-7 14t-3 13q0 14 12 27.5t30 22t37 8.5q32 0 43 -27t11 -63q0 -22 -3.5 -64t-9.5 -90t-12 -90.5t-11 -65.5q-25 -119 -88 -187.5t-182 -68.5zM207 695q-19 0 -19 20q0 12 5 20q17 35 38 68.5t43 58.5
q10 14 21.5 21t21.5 8q15 0 31.5 -11.5t16.5 -31.5q0 -9 -4 -20.5t-12 -22.5q-25 -28 -56.5 -53.5t-64.5 -48.5q-11 -8 -21 -8zM363 700q-19 0 -19 20q0 5 2.5 10.5t5.5 10.5q21 32 43.5 64t46.5 55q24 24 46 24q14 0 29.5 -12.5t15.5 -30.5q0 -9 -5 -21t-16 -23
q-26 -25 -60 -48t-69 -43q-5 -4 -10 -5t-10 -1z" />
    <glyph glyph-name="uhungarumlaut" unicode="&#x171;" horiz-adv-x="517" 
d="M153 457q-21 0 -21 19q0 12 6 21q17 35 38 68.5t43 58.5q21 29 43 29q14 0 31 -11.5t17 -29.5q0 -8 -3.5 -20.5t-12.5 -24.5q-25 -28 -56.5 -53.5t-64.5 -48.5q-13 -8 -20 -8zM308 462q-19 0 -19 20q0 5 2.5 10.5t5.5 10.5q20 32 43 64t47 55q24 24 46 24
q14 0 29.5 -12.5t15.5 -30.5q0 -9 -5 -21t-16 -23q-26 -25 -60 -48t-69 -43q-5 -4 -10 -5t-10 -1zM163 -13q-50 0 -77.5 29t-27.5 84q0 39 11 80q5 17 8 34t3 34q0 44 -27 57q-26 14 -26 30t13.5 32t33.5 26.5t40 10.5q57 0 57 -93q0 -30 -4.5 -55.5t-10.5 -48.5
q-4 -16 -6.5 -32t-2.5 -28q0 -50 49 -50q46 0 86 49t66 137l-1 19q-2 50 17.5 76t57.5 26q33 0 33 -21q0 -7 -2.5 -18t-7.5 -26q-10 -37 -17 -78.5t-7 -76.5q0 -39 12 -64.5t45 -34.5q9 -1 14.5 -5.5t5.5 -18.5q0 -24 -20 -47t-58 -23q-73 0 -73 103q0 18 3 54l-2 1
q-63 -162 -185 -162z" />
    <glyph glyph-name="Uogonek" unicode="&#x172;" horiz-adv-x="622" 
d="M279 -238q-46 0 -72.5 28.5t-26.5 71.5q0 39 21 71t59 54q-96 4 -144.5 59.5t-48.5 170.5q0 20 1.5 42t3.5 43q2 20 3 40t1 36q0 60 -5 104t-30 84q-8 13 -8 21q0 13 14.5 25.5t34.5 21.5t38 9q24 0 34.5 -16t13.5 -39.5t3 -47.5q0 -25 -2.5 -55t-7.5 -65
q-4 -38 -7.5 -79.5t-3.5 -83.5q0 -58 20.5 -92.5t56 -50t79.5 -15.5q77 0 116 39.5t54 103.5q7 29 11 66.5t4 76.5q0 49 -6.5 94t-25.5 79l-7 14t-3 13q0 14 12 27.5t30 22t37 8.5q32 0 43 -27t11 -63q0 -22 -3.5 -64t-9.5 -90t-12 -90.5t-11 -65.5q-19 -90 -59 -151.5
t-108 -87.5q-41 -16 -72.5 -46.5t-31.5 -64.5q0 -22 14.5 -30t28.5 -8q21 0 47 14q5 2 8.5 3.5t8.5 1.5q13 0 16 -9t3 -16q0 -6 -2 -13.5t-7 -16.5q-18 -28 -49 -42.5t-64 -14.5z" />
    <glyph glyph-name="uogonek" unicode="&#x173;" horiz-adv-x="517" 
d="M336 -244q-50 0 -75.5 28.5t-25.5 71.5q0 56 37 95.5t95 63.5q-20 26 -20 79q0 18 3 54l-2 1q-63 -162 -185 -162q-50 0 -77.5 29t-27.5 84q0 39 11 80q5 17 8 34t3 34q0 44 -27 57q-26 14 -26 30t13.5 32t33.5 26.5t40 10.5q57 0 57 -93q0 -30 -4.5 -55.5t-10.5 -48.5
q-4 -16 -6.5 -32t-2.5 -28q0 -50 49 -50q46 0 86 49t66 137l-1 19q-2 50 17.5 76t57.5 26q33 0 33 -21q0 -7 -2.5 -18t-7.5 -26q-10 -37 -17 -78.5t-7 -76.5q0 -39 12 -64.5t45 -34.5q9 -1 14.5 -5.5t5.5 -18.5q0 -24 -15 -41.5t-39 -25.5q-52 -16 -82 -44t-30 -61
q0 -24 13 -33.5t29 -9.5q8 0 20.5 2.5t25.5 9.5q7 4 15 4q13 0 17 -8.5t4 -14.5q0 -14 -12 -34q-18 -24 -47.5 -36.5t-60.5 -12.5z" />
    <glyph glyph-name="Ydieresis" unicode="&#x178;" horiz-adv-x="545" 
d="M180 720q-27 0 -42.5 15t-15.5 43q0 29 18.5 47.5t46.5 18.5q57 0 57 -58q0 -28 -17.5 -47t-46.5 -19zM378 720q-26 0 -41.5 15t-15.5 43q0 29 18.5 47.5t46.5 18.5q26 0 41.5 -15t15.5 -43t-17.5 -47t-47.5 -19zM243 -4q-31 0 -47 13.5t-16 47.5q0 26 8.5 72.5
t24.5 103.5q-8 40 -19.5 83.5t-26.5 82.5q-19 53 -46 89t-64 36q-7 0 -13.5 -1t-11.5 -3q-10 -2 -20.5 14t-10.5 38q0 28 19.5 49.5t53.5 21.5q42 0 77.5 -27.5t63 -92.5t44.5 -177q18 46 43.5 97.5t57.5 97t69 74t78 28.5q27 0 41.5 -13t14.5 -36q0 -16 -6.5 -34t-17.5 -31
t-23 -13q-4 0 -8.5 0.5t-9.5 2.5q-10 5 -23 5q-32 0 -70 -44t-75 -136q-38 -97 -38 -188q0 -21 5.5 -41.5t20.5 -37.5q10 -15 10 -28q0 -22 -24 -37.5t-61 -15.5z" />
    <glyph glyph-name="Zacute" unicode="&#x179;" horiz-adv-x="552" 
d="M266 694q-23 0 -23 22q0 12 8 22q20 33 42 65.5t46 55.5q11 12 23.5 17.5t22.5 5.5q16 0 33.5 -15t17.5 -36q0 -20 -20 -42q-26 -25 -60.5 -47t-70.5 -42q-10 -6 -19 -6zM252 -10q-43 0 -86 2.5t-78 10t-56 24t-21 44.5q0 22 12.5 40t36.5 40q21 19 56.5 51.5t77.5 72.5
t82.5 79.5t73 73.5t48.5 54q11 16 11 24q0 13 -20 20q-15 5 -45.5 8t-71.5 3q-27 0 -58.5 -3t-60 -9.5t-45.5 -17.5q-9 -6 -12 -10.5t-11 -4.5q-14 0 -31.5 21t-17.5 47q0 28 22.5 45t59 25.5t80 11.5t85.5 3t86 -2t81 -10.5t59.5 -27.5t22.5 -53q0 -37 -27.5 -77.5t-70 -81
t-86.5 -79.5q-52 -45 -104.5 -92t-90.5 -82q-9 -7 -9 -15q0 -13 19 -16q18 -2 47 -4t71 -2q79 0 116.5 11.5t55.5 21.5q11 7 18 10.5t14 3.5q11 0 28 -17t17 -46q0 -32 -25.5 -51t-67 -29t-90 -13.5t-95.5 -3.5z" />
    <glyph glyph-name="zacute" unicode="&#x17a;" horiz-adv-x="434" 
d="M206 456q-10 0 -16.5 6t-6.5 16q0 11 8 22q20 33 42.5 65t45.5 56q25 23 46 23q17 0 34 -15t17 -36q0 -9 -4.5 -20.5t-15.5 -21.5q-25 -25 -59.5 -47t-70.5 -42q-10 -6 -20 -6zM203 -11q-35 0 -63 2t-49 6q-22 4 -35.5 11t-21.5 16q-6 7 -10 19t-4 22q0 32 25.5 54
t59.5 45l133 92q27 21 27 30q0 22 -60 22q-40 0 -64 -9.5t-33 -22.5q-6 -7 -10.5 -10.5t-12.5 -3.5q-15 0 -30.5 16.5t-15.5 44.5q0 33 25 51t65.5 25.5t86.5 7.5q50 0 85.5 -5.5t57.5 -19.5q17 -10 25.5 -28t8.5 -38q0 -34 -34.5 -64t-95.5 -67l-112 -68q-10 -6 -10 -14
q0 -11 14 -12q10 -1 25 -1.5t33 -0.5q81 0 126 21q17 9 24 9q11 0 21.5 -13.5t10.5 -34.5q0 -48 -53 -65t-139 -17z" />
    <glyph glyph-name="Zdotaccent" unicode="&#x17b;" horiz-adv-x="552" 
d="M276 716q-28 0 -45 16t-17 45q0 31 20 50.5t51 19.5q29 0 45.5 -16t16.5 -45q0 -30 -19.5 -50t-51.5 -20zM252 -10q-43 0 -86 2.5t-78 10t-56 24t-21 44.5q0 22 12.5 40t36.5 40q21 19 56.5 51.5t77.5 72.5t82.5 79.5t73 73.5t48.5 54q11 16 11 24q0 13 -20 20
q-15 5 -45.5 8t-71.5 3q-27 0 -58.5 -3t-60 -9.5t-45.5 -17.5q-9 -6 -12 -10.5t-11 -4.5q-14 0 -31.5 21t-17.5 47q0 28 22.5 45t59 25.5t80 11.5t85.5 3t86 -2t81 -10.5t59.5 -27.5t22.5 -53q0 -37 -27.5 -77.5t-70 -81t-86.5 -79.5q-52 -45 -104.5 -92t-90.5 -82
q-9 -7 -9 -15q0 -13 19 -16q18 -2 47 -4t71 -2q79 0 116.5 11.5t55.5 21.5q11 7 18 10.5t14 3.5q11 0 28 -17t17 -46q0 -32 -25.5 -51t-67 -29t-90 -13.5t-95.5 -3.5z" />
    <glyph glyph-name="zdotaccent" unicode="&#x17c;" horiz-adv-x="434" 
d="M217 478q-28 0 -45 16t-17 45q0 31 19.5 50.5t51.5 19.5q29 0 45 -16t16 -45q0 -30 -19 -50t-51 -20zM203 -11q-35 0 -63 2t-49 6q-22 4 -35.5 11t-21.5 16q-6 7 -10 19t-4 22q0 32 25.5 54t59.5 45l133 92q27 21 27 30q0 22 -60 22q-40 0 -64 -9.5t-33 -22.5
q-6 -7 -10.5 -10.5t-12.5 -3.5q-15 0 -30.5 16.5t-15.5 44.5q0 33 25 51t65.5 25.5t86.5 7.5q50 0 85.5 -5.5t57.5 -19.5q17 -10 25.5 -28t8.5 -38q0 -34 -34.5 -64t-95.5 -67l-112 -68q-10 -6 -10 -14q0 -11 14 -12q10 -1 25 -1.5t33 -0.5q81 0 126 21q17 9 24 9
q11 0 21.5 -13.5t10.5 -34.5q0 -48 -53 -65t-139 -17z" />
    <glyph glyph-name="Zcaron" unicode="&#x17d;" horiz-adv-x="552" 
d="M282 694q-13 0 -24.5 7t-19.5 14q-10 10 -27 29.5t-33.5 42.5t-25.5 42q-4 8 -6 15t-2 11q0 11 7.5 18t17.5 7q9 0 19 -5q10 -6 27.5 -20l37.5 -30t35 -29q29 23 62 46.5t48 32.5q14 6 21 6q8 0 14.5 -6.5t6.5 -16.5q0 -6 -2.5 -14t-8.5 -16q-10 -18 -30 -41t-39.5 -42.5
t-30.5 -29.5q-25 -21 -47 -21zM252 -10q-43 0 -86 2.5t-78 10t-56 24t-21 44.5q0 22 12.5 40t36.5 40q21 19 56.5 51.5t77.5 72.5t82.5 79.5t73 73.5t48.5 54q11 16 11 24q0 13 -20 20q-15 5 -45.5 8t-71.5 3q-27 0 -58.5 -3t-60 -9.5t-45.5 -17.5q-9 -6 -12 -10.5t-11 -4.5
q-14 0 -31.5 21t-17.5 47q0 28 22.5 45t59 25.5t80 11.5t85.5 3t86 -2t81 -10.5t59.5 -27.5t22.5 -53q0 -37 -27.5 -77.5t-70 -81t-86.5 -79.5q-52 -45 -104.5 -92t-90.5 -82q-9 -7 -9 -15q0 -13 19 -16q18 -2 47 -4t71 -2q79 0 116.5 11.5t55.5 21.5q11 7 18 10.5t14 3.5
q11 0 28 -17t17 -46q0 -32 -25.5 -51t-67 -29t-90 -13.5t-95.5 -3.5z" />
    <glyph glyph-name="zcaron" unicode="&#x17e;" horiz-adv-x="434" 
d="M223 456q-13 0 -24.5 7t-19.5 14q-10 10 -27.5 29.5t-34 42.5t-25.5 42q-4 8 -6 15t-2 11q0 11 7.5 18t17.5 7q4 0 9 -1t11 -5q10 -5 27.5 -19l37.5 -30t34 -29q30 23 63 46.5t48 31.5q13 7 20 7q9 0 15 -6.5t6 -16.5q0 -14 -10 -31q-11 -17 -30.5 -40t-39 -42.5
t-30.5 -29.5q-27 -21 -47 -21zM203 -11q-35 0 -63 2t-49 6q-22 4 -35.5 11t-21.5 16q-6 7 -10 19t-4 22q0 32 25.5 54t59.5 45l133 92q27 21 27 30q0 22 -60 22q-40 0 -64 -9.5t-33 -22.5q-6 -7 -10.5 -10.5t-12.5 -3.5q-15 0 -30.5 16.5t-15.5 44.5q0 33 25 51t65.5 25.5
t86.5 7.5q50 0 85.5 -5.5t57.5 -19.5q17 -10 25.5 -28t8.5 -38q0 -34 -34.5 -64t-95.5 -67l-112 -68q-10 -6 -10 -14q0 -11 14 -12q10 -1 25 -1.5t33 -0.5q81 0 126 21q17 9 24 9q11 0 21.5 -13.5t10.5 -34.5q0 -48 -53 -65t-139 -17z" />
    <glyph glyph-name="florin" unicode="&#x192;" horiz-adv-x="512" 
d="M73 -195q-39 0 -66 24.5t-27 62.5q0 23 10 34.5t23 11.5q7 0 14 -2.5t13 -5.5q9 -4 20 -7.5t25 -3.5q38 0 61.5 37t33.5 125q5 34 8 81t4 90q-14 0 -29.5 -1t-32.5 -3q-9 -1 -15 10t-6 30q0 17 5 27t18 14q13 5 30.5 8t37.5 5q1 54 14 107t38 97t61.5 70.5t84.5 26.5
q46 0 75 -24t29 -59q0 -16 -7.5 -30.5t-25.5 -14.5q-4 0 -10.5 1t-14.5 4q-11 4 -27 8t-36 4q-29 0 -50 -13.5t-32 -53t-10 -118.5q16 2 31.5 3t27.5 1q23 0 36 -6.5t13 -30.5q0 -13 -4.5 -30.5t-13 -30t-20.5 -12.5q-8 0 -23 3q-23 5 -51 7q-5 -62 -16.5 -129t-29.5 -127.5
t-46 -104.5q-25 -41 -55 -63t-65 -22z" />
    <glyph glyph-name="uni0218" unicode="&#x218;" horiz-adv-x="494" 
d="M196 -13q-49 0 -90.5 14.5t-66.5 40.5t-25 61q0 23 11 40.5t30 17.5q12 0 25 -9q25 -22 64.5 -38.5t84.5 -16.5q59 0 96.5 23.5t37.5 63.5q0 38 -35 55t-97 32q-46 11 -88.5 28t-70 47.5t-27.5 81.5q0 39 17 77.5t50 70.5t80 51.5t106 19.5q44 0 80.5 -10t58 -28
t21.5 -44q0 -20 -11 -35t-26 -23.5t-26 -8.5q-10 0 -27 9q-28 15 -62.5 23.5t-60.5 8.5q-49 0 -79.5 -21.5t-30.5 -50.5q0 -32 38.5 -53.5t138.5 -45.5q68 -18 106 -49.5t38 -99.5q0 -61 -32.5 -114t-91 -85.5t-136.5 -32.5zM167 -322q-22 0 -22 19q0 14 22 31q19 16 31 36
t12 42q0 6 -4 10t-15 10q-13 8 -19.5 21.5t-6.5 26.5q0 25 18 44.5t51 19.5q29 0 47.5 -18t18.5 -58q0 -52 -27 -94.5t-58 -68.5q-14 -13 -26 -17t-22 -4z" />
    <glyph glyph-name="uni0219" unicode="&#x219;" horiz-adv-x="398" 
d="M170 -13q-37 0 -69 11t-52 31t-20 48q0 15 7.5 28.5t24.5 13.5q9 0 19 -5q18 -10 46 -18.5t59 -8.5q35 0 62 10t27 28q0 14 -20.5 20t-68.5 13q-33 6 -64 14t-51 27.5t-20 57.5q0 37 20.5 71.5t61.5 57.5t100 23q31 0 60 -7t48 -21t19 -35q0 -18 -12.5 -33t-29 -24.5
t-27.5 -9.5q-8 0 -19 11q-17 14 -37.5 19.5t-40.5 5.5q-30 0 -48.5 -9t-18.5 -23q0 -13 15.5 -21t38.5 -11.5t44 -6.5q58 -8 92 -27.5t34 -68.5q0 -38 -21.5 -75.5t-62 -61.5t-96.5 -24zM107 -323q-23 0 -23 19q0 14 23 31q19 16 31 36t12 42q0 6 -4 10t-15 10
q-14 8 -20 21.5t-6 26.5q0 25 18 44.5t51 19.5q28 0 47 -18t19 -58q0 -52 -27 -94.5t-58 -68.5q-15 -13 -27 -17t-21 -4z" />
    <glyph glyph-name="uni021A" unicode="&#x21a;" horiz-adv-x="490" 
d="M231 -10q-12 0 -24.5 4t-20.5 19t-8 46q0 22 3.5 54t9.5 69q8 50 13.5 105.5t5.5 113.5q0 47 -4.5 81.5t-11.5 53.5q-38 -1 -72 -5t-69 -13q-9 -1 -15.5 -2.5t-12.5 -1.5q-9 0 -13 3.5t-4 17.5q0 17 5 35.5t15 31.5q10 14 23.5 20.5t29.5 8.5q25 3 64 5.5t85.5 4.5
t91.5 2q73 0 104.5 -1t42.5 -3q14 -2 19.5 -8.5t5.5 -20.5q0 -27 -24 -54q-10 -12 -21 -18.5t-29 -5.5q-16 2 -47 3t-69 1q-1 -35 -5.5 -81.5t-10.5 -93.5q-6 -46 -10 -92t-4 -84q0 -35 6.5 -61.5t26.5 -45.5q14 -14 14 -30q0 -22 -25 -40t-65 -18zM164 -321q-22 0 -22 19
q0 14 22 31q19 16 31 36t12 42q0 6 -3.5 10t-15.5 10q-13 8 -19.5 21.5t-6.5 26.5q0 25 18 44.5t51 19.5q29 0 48 -18t19 -58q0 -52 -27.5 -94.5t-58.5 -68.5q-14 -13 -26 -17t-22 -4z" />
    <glyph glyph-name="uni021B" unicode="&#x21b;" horiz-adv-x="335" 
d="M184 -13q-61 0 -87.5 40.5t-26.5 104.5q0 23 2.5 45t5.5 44t6 43t5 40q-21 -6 -42 -6q-22 0 -22 18q0 19 17 46.5t42.5 54.5t51 45.5t43.5 18.5q22 0 22 -38q0 -10 -1.5 -20.5t-3.5 -21.5q19 4 38.5 7t37.5 3q23 0 35.5 -8t12.5 -31q0 -24 -11.5 -48t-25.5 -24
q-3 0 -10 1t-17 3q-13 3 -33 6t-48 3q-7 -31 -12.5 -63.5t-5.5 -58.5q0 -58 29 -79t84 -21q17 0 24 -5.5t7 -19.5q0 -33 -34 -56t-83 -23zM102 -322q-22 0 -22 19q0 15 22 31q19 16 31 36t12 42q0 6 -4 10t-15 10q-13 8 -19.5 21.5t-6.5 26.5q0 25 18 44.5t51 19.5
q28 0 47 -18t19 -58q0 -52 -27 -94.5t-58 -68.5q-14 -13 -26.5 -17t-21.5 -4z" />
    <glyph glyph-name="uni0237" unicode="&#x237;" horiz-adv-x="246" 
d="M-36 -276q-39 0 -67.5 21t-28.5 59q0 30 15.5 47t32.5 17q12 0 23 -10q9 -9 20.5 -14t28.5 -5q37 0 54.5 24.5t24.5 62.5q13 64 16 120t3 119t-4.5 96.5t-27.5 44.5q-15 8 -22 14t-7 16q0 15 13.5 31t35.5 27t47 11q29 0 41.5 -15t16 -38t2.5 -49q-1 -107 -10.5 -203.5
t-35.5 -181.5q-26 -91 -67.5 -142.5t-103.5 -51.5z" />
    <glyph glyph-name="circumflex" unicode="&#x2c6;" horiz-adv-x="384" 
d="M67 461q-8 0 -14.5 6.5t-6.5 16.5q0 6 2.5 14t8.5 17q11 18 30 40.5t39 42.5t30 29q27 21 48 21q13 0 24.5 -6.5t19.5 -14.5q10 -10 27 -29.5t33.5 -42t25.5 -42.5q5 -7 6.5 -14t1.5 -12q0 -10 -7.5 -17.5t-17.5 -7.5q-4 0 -9 1t-10 5q-10 5 -28 18.5t-37.5 30
t-34.5 29.5q-30 -22 -62.5 -46t-48.5 -32q-11 -7 -20 -7z" />
    <glyph glyph-name="caron" unicode="&#x2c7;" horiz-adv-x="384" 
d="M194 460q-13 0 -24.5 6.5t-19.5 14.5q-10 10 -27 29.5t-33.5 42.5t-26.5 42q-7 14 -7 26q0 11 7.5 18t17.5 7q3 0 8 -1t11 -5q10 -5 27.5 -19l37.5 -30t35 -29q20 15 41.5 31t40 29t28.5 18q13 7 20 7q9 0 15 -7t6 -16q0 -14 -10 -31t-30 -40t-39.5 -42.5t-30.5 -29.5
q-25 -21 -47 -21z" />
    <glyph glyph-name="uni02C9" unicode="&#x2c9;" 
d="M-122 493q-8 -1 -14.5 9.5t-6.5 26.5q0 14 4.5 27t17.5 18q9 3 35.5 5.5t61 4t67 2.5t53.5 1q23 0 35 -5.5t12 -25.5t-7 -42t-21 -21q-21 2 -53.5 3.5t-67.5 0.5q-27 0 -62 -1t-54 -3z" />
    <glyph glyph-name="breve" unicode="&#x2d8;" horiz-adv-x="384" 
d="M187 464q-61 0 -97.5 38.5t-36.5 93.5q1 27 10 38.5t23 11.5q20 0 27 -24q9 -26 28.5 -43t52.5 -17t53.5 17t29.5 43q9 24 28 24q17 0 24 -13t7 -34q0 -37 -20 -67.5t-54 -49t-75 -18.5z" />
    <glyph glyph-name="dotaccent" unicode="&#x2d9;" horiz-adv-x="384" 
d="M188 478q-28 0 -45 16t-17 45q0 31 20 50.5t51 19.5q29 0 45 -16t16 -45q0 -30 -19 -50t-51 -20z" />
    <glyph glyph-name="ring" unicode="&#x2da;" horiz-adv-x="384" 
d="M185 458q-49 0 -78 27.5t-29 76.5q0 54 33.5 87t88.5 33q48 0 76.5 -27.5t28.5 -75.5q0 -53 -32 -87t-88 -34zM199 529q20 0 33 10.5t13 26.5q0 19 -16 32t-44 13q-21 0 -34 -11t-13 -28q0 -19 16.5 -31t44.5 -12z" />
    <glyph glyph-name="ogonek" unicode="&#x2db;" horiz-adv-x="384" 
d="M171 -246q-50 0 -75.5 28.5t-25.5 71.5q0 49 29 85.5t76.5 61t104.5 37.5q0 -1 2.5 -14.5t8.5 -19.5q3 -1 3 -6q0 -2 -2 -2q-23 -10 -43.5 -21t-38.5 -26q-19 -15 -31 -33.5t-12 -35.5q0 -19 13 -27.5t29 -8.5q8 0 20.5 2.5t25.5 9.5q7 4 15 4q13 0 17 -8.5t4 -14.5
q0 -7 -2.5 -15t-10.5 -19q-18 -23 -47 -36t-60 -13z" />
    <glyph glyph-name="tilde" unicode="&#x2dc;" horiz-adv-x="384" 
d="M64 478q-14 0 -22 14.5t-8 32.5q0 30 24 56.5t68 26.5q36 0 78 -20q16 -8 33 -15.5t32 -7.5q16 0 22.5 9t8.5 19q2 8 6 13.5t12 5.5q13 0 22.5 -14.5t9.5 -33.5q0 -32 -26 -59t-67 -27q-18 0 -37 5.5t-38 14.5q-19 11 -36 17.5t-31 6.5q-16 0 -22.5 -8t-8.5 -17
q-2 -7 -6 -13t-14 -6z" />
    <glyph glyph-name="hungarumlaut" unicode="&#x2dd;" horiz-adv-x="384" 
d="M78 457q-19 0 -19 20q0 12 5 20q17 35 38 68.5t43 58.5q10 14 21.5 21t21.5 8q15 0 31.5 -11.5t16.5 -31.5q0 -9 -4 -20.5t-12 -22.5q-25 -28 -56.5 -53.5t-64.5 -48.5q-11 -8 -21 -8zM234 462q-19 0 -19 20q0 5 2.5 10.5t5.5 10.5q21 32 43.5 64t46.5 55q24 24 46 24
q14 0 29.5 -12.5t15.5 -30.5q0 -9 -5 -21t-16 -23q-26 -25 -60 -48t-69 -43q-5 -4 -10 -5t-10 -1z" />
    <glyph glyph-name="gravecomb" unicode="&#x300;" 
d="M18 456q-8 0 -19 6q-36 20 -70.5 42t-60.5 47q-10 10 -15 21.5t-5 20.5q0 21 17.5 36t33.5 15q23 0 46 -23q24 -24 46.5 -56t43.5 -65q2 -5 4 -11t2 -11q0 -22 -23 -22z" />
    <glyph glyph-name="acutecomb" unicode="&#x301;" 
d="M-14 456q-23 0 -23 22q0 12 6 22q21 33 43.5 65t46.5 56q23 23 46 23q16 0 33.5 -15t17.5 -36q0 -9 -5 -20.5t-16 -21.5q-25 -25 -59.5 -47t-70.5 -42q-10 -6 -19 -6z" />
    <glyph glyph-name="uni0302" unicode="&#x302;" 
d="M-125 461q-8 0 -14.5 6.5t-6.5 16.5q0 6 2.5 14t8.5 17q11 18 30.5 40.5t39 42.5t29.5 29q27 21 48 21q13 0 24.5 -6.5t19.5 -14.5q10 -10 27 -29.5t33.5 -42t25.5 -42.5q5 -7 6.5 -14t1.5 -12q0 -10 -7.5 -17.5t-17.5 -7.5q-4 0 -9 1t-10 5q-10 5 -28 18.5t-37.5 30
t-34.5 29.5q-30 -22 -62.5 -46t-48.5 -32q-11 -7 -20 -7z" />
    <glyph glyph-name="tildecomb" unicode="&#x303;" 
d="M-128 478q-14 0 -22 14.5t-8 32.5q0 30 24 56.5t68 26.5q36 0 78 -20q16 -8 33 -15.5t32 -7.5q16 0 22.5 9t8.5 19q2 8 6 13.5t12 5.5q13 0 22.5 -14.5t9.5 -33.5q0 -32 -26 -59t-67 -27q-18 0 -37 5.5t-38 14.5q-19 11 -36 17.5t-31 6.5q-16 0 -22.5 -8t-8.5 -17
q-2 -7 -6 -13t-14 -6z" />
    <glyph glyph-name="uni0304" unicode="&#x304;" 
d="M-122 493q-8 -1 -14.5 9.5t-6.5 26.5q0 14 4.5 27t17.5 18q9 3 35.5 5.5t61 4t67 2.5t53.5 1q23 0 35 -5.5t12 -25.5t-7 -42t-21 -21q-21 2 -53.5 3.5t-67.5 0.5q-27 0 -62 -1t-54 -3z" />
    <glyph glyph-name="uni0306" unicode="&#x306;" 
d="M-5 464q-61 0 -97.5 38.5t-36.5 93.5q1 27 10 38.5t23 11.5q20 0 27 -24q9 -26 28.5 -43t52.5 -17t53.5 17t29.5 43q9 24 28 24q17 0 24 -13t7 -34q0 -37 -20 -67.5t-54 -49t-75 -18.5z" />
    <glyph glyph-name="uni0307" unicode="&#x307;" 
d="M-4 478q-28 0 -45 16t-17 45q0 31 20 50.5t51 19.5q29 0 45 -16t16 -45q0 -30 -19 -50t-51 -20z" />
    <glyph glyph-name="uni0308" unicode="&#x308;" 
d="M-103 482q-26 0 -41.5 15t-15.5 43q0 29 18.5 47.5t46.5 18.5q26 0 41.5 -15t15.5 -43t-17.5 -47t-47.5 -19zM96 482q-27 0 -42.5 15t-15.5 43q0 29 18.5 47.5t47.5 18.5q26 0 41 -15t15 -43t-17.5 -47t-46.5 -19z" />
    <glyph glyph-name="uni030A" unicode="&#x30a;" 
d="M-7 458q-49 0 -78 27.5t-29 76.5q0 54 33.5 87t88.5 33q48 0 76.5 -27.5t28.5 -75.5q0 -53 -32 -87t-88 -34zM7 529q20 0 33 10.5t13 26.5q0 19 -16 32t-44 13q-21 0 -34 -11t-13 -28q0 -19 16.5 -31t44.5 -12z" />
    <glyph glyph-name="uni030B" unicode="&#x30b;" 
d="M-114 457q-19 0 -19 20q0 12 5 20q17 35 38 68.5t43 58.5q10 14 21.5 21t21.5 8q15 0 31.5 -11.5t16.5 -31.5q0 -9 -4 -20.5t-12 -22.5q-25 -28 -56.5 -53.5t-64.5 -48.5q-11 -8 -21 -8zM42 462q-19 0 -19 20q0 5 2.5 10.5t5.5 10.5q21 32 43.5 64t46.5 55q24 24 46 24
q14 0 29.5 -12.5t15.5 -30.5q0 -9 -5 -21t-16 -23q-26 -25 -60 -48t-69 -43q-5 -4 -10 -5t-10 -1z" />
    <glyph glyph-name="uni030C" unicode="&#x30c;" 
d="M2 460q-13 0 -24.5 6.5t-19.5 14.5q-10 10 -27 29.5t-33.5 42.5t-26.5 42q-7 14 -7 26q0 11 7.5 18t17.5 7q3 0 8 -1t11 -5q10 -5 27.5 -19l37.5 -30t35 -29q20 15 41.5 31t40 29t28.5 18q13 7 20 7q9 0 15 -7t6 -16q0 -14 -10 -31t-30 -40t-39.5 -42.5t-30.5 -29.5
q-25 -21 -47 -21z" />
    <glyph glyph-name="dotbelowcomb" unicode="&#x323;" 
d="M-4 -188q-28 0 -45 16t-17 44q0 32 20 51t51 19q29 0 45 -15.5t16 -44.5q0 -30 -19 -50t-51 -20z" />
    <glyph glyph-name="uni0325" unicode="&#x325;" 
d="M-7 -267q-49 0 -78 27.5t-29 76.5q0 54 33.5 87t88.5 33q48 0 76.5 -27.5t28.5 -75.5q0 -53 -32 -87t-88 -34zM7 -196q20 0 33 11t13 27q0 19 -16 31.5t-44 12.5q-21 0 -34 -11t-13 -28q0 -19 16.5 -31t44.5 -12z" />
    <glyph glyph-name="uni0326" unicode="&#x326;" 
d="M-66 -321q-22 0 -22 19q0 15 22 31q19 16 31 36t12 42q0 6 -4 10t-15 10q-13 8 -19.5 21.5t-6.5 26.5q0 25 18 44.5t51 19.5q28 0 47 -18t19 -58q0 -52 -27 -94.5t-58 -68.5q-14 -13 -26.5 -17t-21.5 -4z" />
    <glyph glyph-name="uni0327" unicode="&#x327;" 
d="M-49 -246q-25 0 -42.5 11t-17.5 31q0 15 14 15q33 0 54.5 12t21.5 36q0 25 -26 36q-10 5 -17 11t-7 13q0 5 2.5 9.5t6.5 10.5q11 11 22 31t16 36h82q-10 -14 -22 -28.5t-26 -27.5q65 -12 65 -76q0 -33 -18.5 -60t-47 -43.5t-60.5 -16.5z" />
    <glyph glyph-name="uni0328" unicode="&#x328;" 
d="M-21 -246q-50 0 -75.5 28.5t-25.5 71.5q0 49 29 85.5t76.5 61t104.5 37.5q0 -1 2.5 -14.5t8.5 -19.5q3 -1 3 -6q0 -2 -2 -2q-23 -10 -43.5 -21t-38.5 -26q-19 -15 -31 -33.5t-12 -35.5q0 -19 13 -27.5t29 -8.5q8 0 20.5 2.5t25.5 9.5q7 4 15 4q13 0 17 -8.5t4 -14.5
q0 -7 -2.5 -15t-10.5 -19q-18 -23 -47 -36t-60 -13z" />
    <glyph glyph-name="pi" unicode="&#x3c0;" horiz-adv-x="512" 
d="M394 -9q-34 0 -54.5 22t-20.5 81q0 41 2.5 69t2.5 59q0 20 -1 38t-3 35q-15 1 -33 1.5t-41 0.5h-54v-37q0 -48 -5.5 -96t-16.5 -95q-8 -34 -26.5 -55.5t-50.5 -21.5q-18 0 -35 6.5t-10 19.5q27 58 45 106t18 107q0 17 -2 32.5t-5 25.5q-22 -4 -34.5 -7.5t-20.5 -6.5
q-12 -5 -17 -5q-7 0 -15 3.5t-8 13.5q0 20 5.5 35t12.5 25q15 19 43.5 30t70.5 16q20 2 52.5 4.5t72 4t78.5 1.5q62 0 90.5 -2t40.5 -4q26 -4 26 -33q0 -16 -5 -30t-13 -25q-11 -13 -22 -16t-30 -3h-10.5t-14.5 1q-6 -28 -9 -57.5t-3 -52.5q0 -50 16 -69.5t41 -26.5
q11 -2 15 -6.5t4 -15.5t-6 -28t-22.5 -30.5t-47.5 -13.5z" />
    <glyph glyph-name="tlArasunna" unicode="&#xc01;" horiz-adv-x="379" 
d="M232 -15q-54 0 -100 20.5t-74 62.5t-28 106q0 57 23 109t61.5 93t85.5 64.5t94 23.5q17 0 23 -6t6 -14q0 -13 -9 -22.5t-35 -18.5q-33 -11 -70 -36t-62.5 -61.5t-25.5 -84.5q0 -70 47.5 -106t119.5 -36q46 0 46 -24q0 -11 -7 -26q-9 -19 -34.5 -31.5t-60.5 -12.5z" />
    <glyph glyph-name="tlAnusvara" unicode="&#xc02;" horiz-adv-x="423" 
d="M165 59q-49 0 -77 29.5t-28 82.5q-6 -13 -11.5 -19t-15.5 -6q-12 0 -15 9.5t-3 19.5q0 32 14 73.5t42.5 81t72.5 65t104 25.5q52 0 80 -19t39 -48t11 -59q0 -44 -17 -86t-46.5 -75.5t-68 -53.5t-81.5 -20zM188 164q22 0 50.5 9.5t49.5 30t21 51.5q0 22 -16.5 42.5
t-66.5 20.5q-47 0 -77 -19.5t-49 -46.5q0 -41 25.5 -64.5t62.5 -23.5z" />
    <glyph glyph-name="tlVisarga" unicode="&#xc03;" horiz-adv-x="317" 
d="M139 310q-26 0 -41.5 16.5t-21.5 38.5q-4 -12 -7.5 -14t-8.5 -3q-9 0 -12 12.5t-3 27.5q0 42 19 78.5t52 59t75 22.5q38 0 57 -26.5t19 -63.5q0 -38 -18 -72t-47 -55t-63 -21zM147 386q23 0 46 16t23 37q0 11 -7 22.5t-32 11.5q-50 0 -77 -47q3 -19 16 -29.5t31 -10.5z
M121 20q-35 0 -54.5 20t-19.5 56q-4 -8 -8 -12.5t-11 -4.5q-8 0 -10.5 6.5t-2.5 13.5q0 22 10 50.5t30 55t51.5 44t73.5 17.5q37 0 56.5 -13t27.5 -33t8 -40q0 -40 -21 -76.5t-55 -60t-75 -23.5zM139 99q14 0 31 6t29.5 18t12.5 30q0 12 -9.5 24t-40.5 12q-26 0 -44 -10
t-32 -25q0 -28 15.5 -41.5t37.5 -13.5z" />
    <glyph glyph-name="tlA" unicode="&#xc05;" horiz-adv-x="735" 
d="M46 -107q-10 0 -18 14.5t-8 27.5q0 8 4 11q38 26 61 40t52 32q-44 23 -71 63.5t-27 101.5q0 53 22.5 102.5t57.5 88.5t72.5 62t67.5 23q13 0 17 -4t4 -11q0 -11 -8 -30.5t-21 -39.5t-29 -34.5t-32 -16.5q-12 -1 -29.5 -7t-31.5 -24.5t-14 -59.5q0 -53 35 -86t89 -48
q29 14 59.5 36t55.5 39q-36 8 -52.5 35.5t-16.5 61.5q0 38 18 82t51 82.5t78.5 63t101.5 24.5q51 0 93 -22.5t67.5 -63.5t25.5 -98q0 -64 -26.5 -118.5t-72 -97t-103 -72.5t-120 -46t-121.5 -16q-20 0 -39.5 2t-38.5 6q-37 -26 -70 -49t-70 -48q-7 -6 -13 -6zM347 85
q51 0 100 12.5t89 37.5t63.5 62.5t23.5 88.5q0 40 -18 71t-48.5 49.5t-69.5 18.5t-66.5 -17.5t-42 -43t-14.5 -50.5q0 -26 17 -45.5t53 -19.5q12 0 20 2t13 5q9 5 14.5 9t12.5 4q8 0 14.5 -5t6.5 -12q0 -8 -8 -16q-34 -34 -83.5 -71t-112.5 -79q9 -1 18 -1h18z" />
    <glyph glyph-name="tlAA" unicode="&#xc06;" horiz-adv-x="672" 
d="M-29 -99q-10 0 -17.5 15.5t-7.5 28.5q0 8 4 11q36 25 78 50t77 47q-24 23 -37.5 54.5t-13.5 73.5q0 56 23 106t58 89t72.5 61t66.5 22q13 0 17 -4t4 -10q0 -11 -7.5 -30t-20 -39t-28 -34.5t-32.5 -17.5q-13 -2 -30.5 -8t-31 -23.5t-13.5 -54.5q0 -43 21 -72t53 -47
q50 32 109 68.5t118 75.5q-20 16 -35 37.5t-15 54.5q0 42 25.5 81t68 63.5t91.5 24.5q45 0 69.5 -21.5t24.5 -55.5q0 -32 -24 -74.5t-74 -82.5q22 -16 37.5 -36t15.5 -48q0 -30 -20.5 -67.5t-61 -72t-99 -57t-134.5 -22.5q-40 0 -79 8t-71 24q-40 -27 -86 -57.5t-78 -52.5
q-4 -3 -9 -5.5t-8 -2.5zM525 317q24 19 34.5 41t10.5 42q0 23 -13 39t-36 16q-22 0 -39.5 -16t-17.5 -42t18.5 -44.5t42.5 -35.5zM356 84q47 0 86 11t63 30.5t24 46.5q0 21 -14.5 35t-34.5 26q-52 -34 -105 -69l-106 -70q22 -5 44 -7.5t43 -2.5z" />
    <glyph glyph-name="tlI" unicode="&#xc07;" horiz-adv-x="643" 
d="M514 -13q-8 0 -10.5 3.5t-3.5 7.5q-7 35 -21.5 61.5t-31.5 46.5q-36 -37 -83.5 -63t-97.5 -40t-94 -14q-55 0 -91 23t-36 67q0 41 33 80.5t93 65.5t139 26q32 0 64.5 -5t62.5 -14q17 28 27 56t10 49q0 30 -17.5 45.5t-43.5 15.5q-29 0 -51 -17.5t-39 -40.5t-31 -40
q-15 -18 -27 -18q-15 0 -21 8t-9 18q-3 12 -9.5 26t-20.5 24t-42 10q-33 0 -49.5 -16t-39.5 -48q-5 -7 -17 -7q-10 0 -21 8t-11 21q0 15 14.5 38t39 46.5t57 39.5t68.5 16q29 0 56.5 -12.5t47.5 -39.5q35 44 78 65.5t80 21.5q41 0 70 -27.5t29 -83.5q0 -42 -18.5 -89
t-50.5 -92q45 -23 73.5 -56.5t28.5 -74.5q0 -39 -29 -65q-12 -10 -28 -18t-27 -8zM210 78q29 0 63.5 8.5t68.5 24.5t60 36q-34 23 -69.5 32t-65.5 9q-52 0 -89.5 -20t-37.5 -49q0 -19 19.5 -30t50.5 -11z" />
    <glyph glyph-name="tlII" unicode="&#xc08;" horiz-adv-x="889" 
d="M222 -13q-53 0 -85 19.5t-46.5 52.5t-14.5 72q0 19 3 38q-3 0 -17 -2.5t-22 -2.5q-10 0 -10 8q0 10 8 29q11 25 28 31q6 3 14 3.5t19 0.5q27 61 75 102q-30 -10 -50 -19t-29 -9q-10 0 -15 13.5t-5 26.5q0 27 14 63.5t37 75t51 72.5t56 57q43 35 86 53.5t67 18.5
q15 0 20.5 -6.5t5.5 -17.5q0 -15 -8 -35t-17 -36t-14 -21q-8 -8 -27.5 -8.5t-48.5 -9t-65 -39.5q-27 -23 -47 -50t-34 -53q41 20 93 34t101 14q48 0 88.5 -16.5t65.5 -52t25 -93.5q0 -18 -3 -38q47 2 71 3t35 2q4 12 6.5 25.5t2.5 26.5q0 23 -9.5 47.5t-33.5 47.5
q-4 5 -8.5 9.5t-4.5 14.5q0 17 11.5 36.5t28.5 34t35 14.5q27 0 43.5 -29.5t16.5 -79.5q0 -29 -6.5 -64.5t-22.5 -75.5q16 1 30.5 1.5t28.5 0.5q41 0 72 -8t49 -29.5t18 -62.5q0 -34 -17.5 -68t-47 -61t-65 -43.5t-71.5 -16.5q-58 0 -84.5 29t-26.5 72q0 52 32 110l-100 -1
q-21 -56 -63 -104t-98 -77t-121 -29zM174 238q54 2 123 6t140 10q-5 57 -48 80t-102 23h-11t-11 -1q-68 -54 -91 -118zM724 75q26 0 47 15t21 44q0 38 -39.5 51t-94.5 11q-7 -14 -9.5 -28t-2.5 -26q0 -34 25.5 -50.5t52.5 -16.5zM263 90q30 0 64.5 10.5t63 34t40.5 60.5
q-79 -5 -127.5 -8t-75.5 -5t-41 -3t-23 -2q2 -38 26.5 -62.5t72.5 -24.5z" />
    <glyph glyph-name="tlU" unicode="&#xc09;" horiz-adv-x="690" 
d="M432 587q-11 0 -13 16q-3 24 -7 57t-6.5 61.5t-2.5 36.5q0 17 11.5 31t27 22t25.5 8q17 0 31.5 -20.5t14.5 -43.5q0 -18 -8.5 -46t-21 -56t-26.5 -47t-25 -19zM132 -50q-40 0 -59 22t-19 62q0 67 26 140t70 143q-43 -5 -74.5 -9.5t-42.5 -4.5q-8 0 -8 7q0 6 5.5 22.5
t17.5 34.5t32 25q5 2 42 4t89 4q53 63 113 106.5t120.5 66t112.5 22.5q41 0 57.5 -15t16.5 -35q0 -18 -12 -36t-29.5 -30.5t-34.5 -12.5q-7 0 -12 7t-16 13q-9 5 -23 9t-29 4q-43 0 -88 -26.5t-86 -69.5q52 2 103 3.5t91 2.5q4 0 8 -3.5t4 -8.5q0 -9 -11 -26.5t-27 -32
t-33 -14.5q-7 0 -30 1.5t-63 1.5q-43 0 -105 -3q-35 -52 -57.5 -108.5t-25.5 -105.5q-1 -25 9 -40.5t33 -15.5q17 0 39.5 13.5t45.5 36t41 48.5q15 21 31 21q12 0 17 -16q11 -32 44.5 -49.5t71.5 -17.5q58 0 82.5 20.5t24.5 43.5q0 20 -14.5 34.5t-39.5 14.5
q-16 0 -28.5 -4.5t-21.5 -12.5q-7 -6 -18 -6q-10 0 -17 6.5t-7 19.5q0 12 6 25q6 14 21.5 31t39.5 29.5t55 12.5q41 0 70.5 -28.5t29.5 -84.5q0 -42 -20.5 -78.5t-54.5 -65t-76 -44.5t-85 -16q-37 0 -70 14.5t-56 43.5q-46 -49 -93.5 -72t-82.5 -23z" />
    <glyph glyph-name="tlUU" unicode="&#xc0a;" horiz-adv-x="1024" 
d="M497 601q-12 0 -15 25.5l-7 59.5q-2 23 -4 42.5t-2 26.5q0 15 11.5 27.5t26 19.5t24.5 7q17 0 31.5 -18t14.5 -40q0 -18 -6.5 -36.5t-16.5 -38.5q-7 -15 -16.5 -32.5t-20 -30t-20.5 -12.5zM355 560q-10 0 -12.5 22t-9.5 83q-3 27 -5.5 49t-2.5 29q0 19 10.5 33.5t24 23
t22.5 8.5q20 0 31.5 -20t11.5 -37q0 -19 -2.5 -35t-6.5 -33q-31 -123 -61 -123zM132 -50q-40 0 -59 22t-19 62q0 66 25.5 138.5t69.5 142.5q-46 -4 -76.5 -7.5t-39.5 -3.5q-5 0 -6.5 3t-1.5 4q0 6 5.5 22.5t17.5 34.5t32 25q5 2 41.5 4.5t92.5 5.5q52 62 112 104.5t119.5 65
t111.5 22.5q41 0 57.5 -15t16.5 -35q0 -18 -12 -36t-29.5 -30.5t-34.5 -12.5q-7 0 -12 7t-16 13q-9 5 -23 9t-29 4q-41 0 -84.5 -25t-84.5 -65q76 4 160.5 8t164 7.5t138.5 5.5q8 24 8 47q0 24 -9.5 49t-33.5 47q-4 5 -8.5 9.5t-4.5 14.5q0 17 11.5 36t28.5 33t35 14
q26 0 43 -29t17 -79q0 -29 -7 -64.5t-22 -74.5q15 1 29.5 1.5t28.5 0.5q41 0 72 -8t49 -29.5t18 -62.5q0 -34 -17.5 -68t-47 -61t-65 -43.5t-71.5 -16.5q-58 0 -84.5 29t-26.5 72q0 52 30 107q-10 0 -47.5 -3t-90.5 -6.5t-111.5 -7.5t-112 -7.5t-92.5 -5.5t-52 -2
q-34 -52 -56 -108t-25 -104q-1 -25 9 -40.5t33 -15.5q17 0 39.5 13.5t45.5 36t41 48.5q15 21 31 21q13 0 17 -16q8 -33 43 -50t73 -17q58 0 82.5 20.5t24.5 43.5q0 20 -14.5 34.5t-39.5 14.5q-16 0 -28.5 -4.5t-21.5 -12.5q-7 -6 -18 -6q-10 0 -17 6.5t-7 19.5q0 12 6 25
q6 14 21.5 31t39.5 29.5t55 12.5q41 0 70.5 -28.5t29.5 -84.5q0 -42 -20.5 -78.5t-54.5 -65t-76 -44.5t-85 -16q-37 0 -70 14.5t-56 43.5q-46 -49 -93.5 -72t-82.5 -23zM864 234q26 0 47 15t21 44q0 35 -34 49t-82 14q-4 0 -8.5 -0.5t-9.5 -0.5q-7 -14 -9.5 -28.5
t-2.5 -25.5q0 -34 25.5 -50.5t52.5 -16.5z" />
    <glyph glyph-name="tlvR" unicode="&#xc0b;" horiz-adv-x="1272" 
d="M146 -50q-37 0 -56.5 22t-19.5 57q0 32 14 64t34.5 63t40.5 61q-7 -3 -15.5 -4t-16.5 -1q-45 0 -66 30t-21 73q0 34 12.5 70t35.5 67.5t56 51t73 19.5q50 0 70 -31t20 -72q0 -49 -20 -91t-46 -79.5t-46 -74.5t-20 -75q0 -46 36 -46q23 0 45 16t40 36.5t29 36.5
q14 18 21 24t16 6q12 0 21 -16q17 -33 45.5 -50t60.5 -17q33 0 61.5 16t46 46.5t17.5 73.5q0 40 -23.5 89.5t-70.5 98.5q-4 5 -8.5 9.5t-4.5 14.5q0 17 11.5 36.5t28.5 34t35 14.5q21 0 40 -21t33.5 -55.5t23 -76.5t8.5 -83q0 -73 -23 -134q14 -32 43.5 -47.5t57.5 -15.5
q33 0 61.5 16t46 46.5t17.5 73.5q0 40 -23.5 89.5t-70.5 98.5q-4 5 -8.5 9.5t-4.5 14.5q0 17 11.5 36.5t28.5 34t35 14.5q21 0 40 -21t33.5 -55.5t23 -76.5t8.5 -83q0 -72 -23 -133q14 -33 44 -48.5t58 -15.5q33 0 61.5 16t46 46.5t17.5 73.5q0 40 -23.5 89.5t-70.5 98.5
q-4 5 -8.5 9.5t-4.5 14.5q0 17 11 36.5t28.5 34t35.5 14.5q21 0 40 -21t33.5 -55.5t23 -76.5t8.5 -83q0 -86 -31.5 -153.5t-85 -106.5t-119.5 -39q-32 0 -70.5 13.5t-61.5 47.5q-61 -61 -145 -61q-32 0 -70 13t-61 47q-30 -28 -67 -44t-78 -16q-32 0 -69 12.5t-61 46.5
q-46 -49 -92.5 -73t-82.5 -24zM176 287q6 0 12.5 1t13.5 4q7 16 11 33t4 36q0 38 -15 56t-34 18q-28 0 -42.5 -22.5t-14.5 -49.5q0 -28 16 -52t49 -24z" />
    <glyph glyph-name="tlvL" unicode="&#xc0c;" horiz-adv-x="801" 
d="M298 -53q-89 0 -136.5 28t-47.5 86q0 38 18.5 65t50 45.5t70 32.5t77.5 27q38 13 71 26t53 32.5t20 49.5q0 28 -17.5 43.5t-43.5 15.5q-29 0 -51 -17.5t-39 -40.5t-31 -40q-15 -18 -30 -18q-18 0 -25 19q-4 12 -9.5 28t-19.5 27.5t-45 11.5q-33 0 -49.5 -16t-39.5 -48
q-5 -7 -17 -7q-10 0 -21 8t-11 21q0 15 14.5 38t39 46.5t57 39.5t68.5 16q29 0 56 -12.5t48 -39.5q35 44 78 65.5t80 21.5q50 0 75 -32.5t25 -76.5q0 -51 -21 -89t-56.5 -65.5t-79.5 -46.5t-90 -32q-48 -13 -75.5 -30.5t-27.5 -43.5q0 -48 112 -48q103 0 185 34t130 95
t48 142q0 75 -25.5 126.5t-68.5 71.5q-8 4 -12.5 8.5t-4.5 14.5q0 11 10.5 31t27.5 36.5t35 16.5q39 0 67.5 -34t44.5 -90.5t16 -122.5q0 -96 -40.5 -173.5t-109 -132.5t-155 -84t-178.5 -29z" />
    <glyph glyph-name="tlE" unicode="&#xc0e;" horiz-adv-x="620" 
d="M106 -50q-37 0 -64 21t-27 67q0 36 16.5 74t46 70t69.5 51.5t87 19.5q37 0 59.5 -21t26.5 -55q14 -44 44.5 -66t63.5 -22q44 0 74 31t30 91q0 52 -26 100.5t-67 88.5t-92 68.5t-102 40.5q-13 3 -13 18q0 5 4 18.5t13.5 29t25 27t37.5 11.5q26 0 60.5 -16.5t68.5 -42.5
t58 -53q48 -54 74.5 -120t26.5 -134q0 -64 -19.5 -113t-51 -81t-69 -48.5t-74.5 -16.5q-34 0 -64.5 13.5t-50.5 41.5q-32 -39 -76.5 -66t-88.5 -27zM155 46q36 0 65 25.5t36 60.5q-13 13 -31 19.5t-37 6.5q-31 0 -59.5 -17.5t-28.5 -52.5q0 -16 15 -29t40 -13z" />
    <glyph glyph-name="tlEE" unicode="&#xc0f;" horiz-adv-x="620" 
d="M158 392q-12 0 -23 12q-19 21 -34 51.5t-23.5 65t-8.5 65.5q0 66 30 121t82 88t118 33q24 0 47 -7t38 -21t15 -35q0 -24 -18 -45q-9 -10 -19 -17.5t-18 -7.5q-10 0 -27.5 11t-51.5 11q-61 0 -93.5 -35t-32.5 -88q0 -37 14 -75t36 -71q9 -13 9 -21q0 -6 -3.5 -10.5
t-10.5 -11.5q-15 -13 -26 -13zM106 -50q-37 0 -64 21t-27 67q0 36 16.5 74t46 70t69.5 51.5t87 19.5q37 0 59.5 -21t26.5 -55q14 -44 44.5 -66t63.5 -22q44 0 74 31t30 91q0 58 -31.5 112t-81.5 95q-39 33 -84 57t-90 34q-13 3 -13 18q0 5 4 18.5t13.5 29t25 27t37.5 11.5
q26 0 60.5 -16.5t68.5 -42.5t58 -53q48 -54 74.5 -120t26.5 -134q0 -64 -19.5 -113t-51 -81t-69 -48.5t-74.5 -16.5q-34 0 -64.5 13.5t-50.5 41.5q-32 -39 -76.5 -66t-88.5 -27zM155 46q36 0 65 25.5t36 60.5q-13 13 -31 19.5t-37 6.5q-31 0 -59.5 -17.5t-28.5 -52.5
q0 -16 15 -29t40 -13z" />
    <glyph glyph-name="tlAI" unicode="&#xc10;" horiz-adv-x="723" 
d="M106 -50q-37 0 -64 21t-27 67q0 36 16.5 74t46 70t69.5 51.5t87 19.5q41 0 64 -26t23 -67v-9q24 -34 59 -49.5t69 -15.5q48 0 84.5 22t57.5 61t21 89q0 24 -6 52.5t-20 54.5t-35.5 42.5t-53.5 16.5q-29 0 -59 -14.5t-58 -46.5q-30 -33 -45 -33q-11 0 -19.5 9.5
t-19.5 21.5t-28 21.5t-45 9.5q-35 0 -58.5 -14t-39.5 -38q-6 -10 -13 -13.5t-13 -3.5q-12 0 -20.5 8.5t-8.5 20.5q0 17 13 37.5t24 31.5q32 33 80.5 49t92.5 16q29 0 59 -12.5t54 -35.5q39 42 82.5 63t81.5 21q47 0 77 -27.5t44.5 -73t14.5 -99.5q0 -72 -23.5 -133
t-63.5 -106.5t-91 -70.5t-107 -25q-37 0 -73 12t-69 38q-32 -37 -75 -62t-85 -25zM155 46q36 0 65 25.5t36 60.5q-13 13 -31 19.5t-37 6.5q-31 0 -59.5 -17.5t-28.5 -52.5q0 -16 15 -29t40 -13z" />
    <glyph glyph-name="tlO" unicode="&#xc12;" horiz-adv-x="660" 
d="M146 -50q-37 0 -56.5 22t-19.5 57q0 32 14 64t34.5 63t40.5 61q-7 -3 -15.5 -4t-16.5 -1q-45 0 -66 30t-21 73q0 34 12.5 70t35.5 67.5t56 51t73 19.5q50 0 70 -31t20 -72q0 -49 -20 -91t-46 -79.5t-46 -74.5t-20 -75q0 -46 36 -46q23 0 45 16t40 36.5t29 36.5
q14 18 21 24t16 6q10 0 13.5 -5.5t4.5 -13.5q11 -37 37 -54t59 -17q32 0 59.5 17.5t27.5 47.5q0 20 -8.5 31t-17 19t-8.5 17q0 8 6 23.5t17 32.5t25 29t30 12q21 0 32 -21.5t11 -58.5q0 -51 -20 -95.5t-53 -78.5t-74.5 -53t-85.5 -19q-35 0 -61.5 14t-38.5 43
q-45 -48 -90.5 -70.5t-80.5 -22.5zM176 287q6 0 12.5 1t13.5 4q7 16 11 33t4 36q0 38 -15 56t-34 18q-28 0 -42.5 -22.5t-14.5 -49.5q0 -28 16 -52t49 -24z" />
    <glyph glyph-name="tlOO" unicode="&#xc13;" horiz-adv-x="660" 
d="M217 540q-16 0 -18 16q-3 18 -5.5 44t-5 51.5t-4 44.5t-1.5 25q0 18 12.5 32t28.5 21.5t26 7.5q18 0 31.5 -22.5t11.5 -47.5q-2 -22 -7.5 -51.5t-15.5 -57t-23 -45.5t-30 -18zM146 -50q-37 0 -56.5 22t-19.5 57q0 32 14 64t34.5 63t40.5 61q-7 -3 -15.5 -4t-16.5 -1
q-45 0 -66 30t-21 73q0 34 12.5 70t35.5 67.5t56 51t73 19.5q50 0 70 -31t20 -72q0 -49 -20 -91t-46 -79.5t-46 -74.5t-20 -75q0 -46 36 -46q23 0 45 16t40 36.5t29 36.5q14 18 21 24t16 6q11 0 14 -6.5t5 -14.5q11 -31 36.5 -50t58.5 -19q32 0 59.5 17.5t27.5 47.5
q0 20 -8.5 31t-17 19t-8.5 17q0 8 6 23.5t17 32.5t25 29t30 12q21 0 32 -21.5t11 -58.5q0 -51 -20 -95.5t-53 -78.5t-74.5 -53t-85.5 -19q-35 0 -61.5 14t-38.5 43q-45 -48 -90.5 -70.5t-80.5 -22.5zM176 287q6 0 12.5 1t13.5 4q7 16 11 33t4 36q0 38 -15 56t-34 18
q-28 0 -42.5 -22.5t-14.5 -49.5q0 -28 16 -52t49 -24z" />
    <glyph glyph-name="tlAU" unicode="&#xc14;" horiz-adv-x="921" 
d="M146 -50q-37 0 -56.5 22t-19.5 57q0 32 14 64t34.5 63t40.5 61q-7 -3 -15.5 -4t-16.5 -1q-45 0 -66 30t-21 73q0 34 12.5 70t35.5 67.5t56 51t73 19.5q33 0 52.5 -14t28.5 -36q5 -1 8.5 -1h7.5q32 0 49.5 18t17.5 46q0 32 -17.5 43.5t-40.5 11.5q-50 0 -83 -6.5t-50 -6.5
q-8 0 -10.5 4t-2.5 6q0 9 8.5 28t22 36.5t26.5 19.5q36 7 88.5 10.5t114 4.5t124.5 1h119q77 0 123 -1t71 -4q22 -2 44.5 -10.5t37.5 -31.5t15 -69q0 -51 -22 -93t-57 -67.5t-75 -25.5q-83 0 -83 94q0 34 12.5 66t31.5 50q-13 0 -42 0.5t-67 1t-77 0.5h-73t-54 -1
q1 -5 1.5 -9.5t0.5 -9.5q0 -40 -24.5 -79.5t-62 -70.5t-77.5 -48q-8 -41 -28.5 -77t-43.5 -69.5t-39.5 -66.5t-16.5 -67q0 -46 36 -46q23 0 45 16t40 36.5t29 36.5q14 18 21 24t16 6q10 0 13 -5.5t5 -13.5q11 -37 37 -54t59 -17q32 0 59.5 17.5t27.5 47.5q0 20 -8.5 31
t-17 19t-8.5 17q0 8 6 23.5t17 32.5t25 29t30 12q21 0 32 -21.5t11 -58.5q0 -51 -20 -95.5t-53 -78.5t-74.5 -53t-85.5 -19q-35 0 -61.5 14t-38.5 43q-45 -48 -90.5 -70.5t-80.5 -22.5zM848 483q29 0 43.5 17.5t14.5 37.5q0 17 -10.5 30.5t-31.5 13.5q-29 0 -45.5 -19
t-16.5 -40q0 -16 11 -28t35 -12zM176 287q6 0 12.5 1t13.5 4q7 16 11 33t4 36q0 38 -15 56t-34 18q-28 0 -42.5 -22.5t-14.5 -49.5q0 -28 16 -52t49 -24z" />
    </font>
</defs>
</svg>
